{
DisplayStrings = (
"/iMatra-deva/iMatra_reph-deva"
);
classes = (
{
automatic = 1;
code = "A Aacute Abreve Acircumflex Adieresis Agrave Amacron Aogonek Aring Aringacute Atilde AE AEacute B C Cacute Ccaron Ccedilla Ccircumflex Cdotaccent D Eth Dcaron Dcroat E Eacute Ebreve Ecaron Ecircumflex Edieresis Edotaccent Egrave Emacron Eogonek F G Gbreve Gcircumflex Gcommaaccent Gdotaccent H Hbar Hcircumflex I IJ Iacute Ibreve Icircumflex Idieresis Idotaccent Igrave Imacron Iogonek Itilde J Jcircumflex K Kcommaaccent L Lacute Lcaron Lcommaaccent Ldot Lslash M N Nacute Ncaron Ncommaaccent Eng Ntilde O Oacute Obreve Ocircumflex Odieresis Ograve Ohungarumlaut Omacron Oslash Oslashacute Otilde OE P Thorn Q R Racute Rcaron Rcommaaccent S Sacute Scaron Scedilla Scircumflex Scommaaccent T Tbar Tcaron Tcedilla Tcommaaccent U Uacute Ubreve Ucircumflex Udieresis Ugrave Uhungarumlaut Umacron Uogonek Uring Utilde V W Wacute Wcircumflex Wdieresis Wgrave X Y Yacute Ycircumflex Ydieresis Ygrave Z Zacute Zcaron Zdotaccent uni0394 Omega uni03A9";
name = Uppercase;
},
{

glyphs = (
{
glyphname = A;
lastChange = "2014-11-13 12:55:38 +0000";
layers = (
{
anchors = (
{
name = ogonek;
position = "{453, 7}";
},
{
name = top;
position = "{229, 511}";
}
);
hints = (
{
horizontal = 1;
place = "{139.250000, 75.821429}";
},
{
horizontal = 1;
place = "{511.000000, -20.000000}";
},
{
horizontal = 1;
place = "{15.000000, 21.000000}";
}
);
layerId = "E777F328-EA17-4AE7-9EBA-8002E537BA4F";
name = Regular;
paths = (
{
closed = 1;
nodes = (
"87 148 LINE",
"339 148 LINE",
"339 196 LINE",
"87 196 LINE"
);
},
{
closed = 1;
nodes = (
"194 511 LINE",
"353 0 LINE",
"450 0 LINE",
"288 511 LINE"
);
},
{
closed = 1;
nodes = (
"170 511 LINE",
"8 0 LINE",
"66 0 LINE",
"224 511 LINE"
);
}
);
width = 457;
},
{
anchors = (
{
name = ogonek;
position = "{453, 7}";
},
{
name = top;
position = "{235, 511}";
}
);
hints = (
{
horizontal = 1;
place = "{128.000000, 96.714286}";
},
{
horizontal = 1;
place = "{511.000000, -20.000000}";
},
{
horizontal = 1;
place = "{15.000000, 21.000000}";
}
);
layerId = "39185045-6A8C-415A-8312-7B8F11386A4C";
name = Bold;
paths = (
{
closed = 1;
nodes = (
"86 140 LINE",
"343 140 LINE",
"343 202 LINE",
"86 202 LINE"
);
},
{
closed = 1;
nodes = (
"190 511 LINE",
"341 0 LINE",
"466 0 LINE",
"311 511 LINE"
);
},
{
closed = 1;
nodes = (
"159 511 LINE",
"4 0 LINE",
"79 0 LINE",
"229 511 LINE"
);
}
);
width = 470;
}
);
leftKerningGroup = A;
rightKerningGroup = A;
unicode = 0041;
},
{
glyphname = AE;
lastChange = "2014-10-23 15:27:43 +0000";
layers = (
{
anchors = (
{
name = top;
position = "{413, 511}";
}
);
hints = (
{
place = "{329.500000, 100.000000}";
},
{
horizontal = 1;
place = "{0.000000, 76.714286}";
},
{
horizontal = 1;
place = "{208.035714, 75.928571}";
},
{
horizontal = 1;
place = "{434.178571, 76.821429}";
}
);
layerId = "E777F328-EA17-4AE7-9EBA-8002E537BA4F";
name = Regular;
paths = (
{
closed = 1;
nodes = (
"232 511 LINE",
"11 0 LINE",
"69 0 LINE",
"286 511 LINE"
);
},
{
closed = 1;
nodes = (
"137 221 LINE",
"603 221 LINE",
"603 271 LINE",
"137 271 LINE"
);
},
{
closed = 1;
nodes = (
"329 462 LINE",
"620 462 LINE",
"620 511 LINE",
"329 511 LINE",
"329 0 LINE",
"430 0 LINE",
"430 462 LINE"
);
},
{
closed = 1;
nodes = (
"329 0 LINE",
"634 0 LINE",
"634 49 LINE",
"329 49 LINE"
);
},
{
closed = 1;
nodes = (
"251 462 LINE",
"329 462 LINE",
"329 511 LINE",
"251 511 LINE"
);
}
);
width = 657;
},
{
anchors = (
{
name = top;
position = "{420, 511}";
}
);
hints = (
{
place = "{337.000000, 130.000000}";
},
{
horizontal = 1;
place = "{0.000000, 98.142857}";
},
{
horizontal = 1;
place = "{197.857143, 96.285714}";
},
{
horizontal = 1;
place = "{413.285714, 97.714286}";
}
);
layerId = "39185045-6A8C-415A-8312-7B8F11386A4C";
name = Bold;
paths = (
{
closed = 1;
nodes = (
"224 511 LINE",
"11 0 LINE",
"85 0 LINE",
"295 511 LINE"
);
},
{
closed = 1;
nodes = (
"137 215 LINE",
"623 215 LINE",
"623 277 LINE",
"137 277 LINE"
);
},
{
closed = 1;
nodes = (
"337 448 LINE",
"643 448 LINE",
"643 511 LINE",
"337 511 LINE",
"337 0 LINE",
"468 0 LINE",
"468 448 LINE"
);
},
{
closed = 1;
nodes = (
"337 0 LINE",
"657 0 LINE",
"657 63 LINE",
"337 63 LINE"
);
},
{
closed = 1;
nodes = (
"250 449 LINE",
"337 449 LINE",
"337 511 LINE",
"250 511 LINE"
);
}
);
width = 672;
}
);
leftKerningGroup = AE;
unicode = 00C6;
},
{
glyphname = B;
lastChange = "2014-10-23 15:27:43 +0000";
layers = (
{
hints = (
{
place = "{64.500000, 100.000000}";
},
{
place = "{294.250000, 100.000000}";
},
{
place = "{316.000000, 100.000000}";
},
{
horizontal = 1;
place = "{0.000000, 76.714286}";
},
{
horizontal = 1;
place = "{223.035714, 49.535714}";
},
{
horizontal = 1;
place = "{249.428571, 23.250000}";
},
{
horizontal = 1;
place = "{434.285714, 76.714286}";
},
{
horizontal = 1;
place = "{249.428571, 49.642857}";
}
);
layerId = "E777F328-EA17-4AE7-9EBA-8002E537BA4F";
name = Regular;
paths = (
{
closed = 1;
nodes = (
"64 511 LINE",
"64 0 LINE",
"164 0 LINE",
"164 511 LINE"
);
},
{
closed = 1;
nodes = (
"251 0 LINE SMOOTH",
"383 0 OFFCURVE",
"416 71 OFFCURVE",
"416 137 CURVE SMOOTH",
"416 202 OFFCURVE",
"376 273 OFFCURVE",
"251 273 CURVE SMOOTH",
"64 273 LINE",
"64 0 LINE"
);
},
{
closed = 1;
nodes = (
"164 37 LINE",
"164 243 LINE",
"239 243 LINE SMOOTH",
"292 243 OFFCURVE",
"316 192 OFFCURVE",
"316 137 CURVE SMOOTH",
"316 73 OFFCURVE",
"293 37 OFFCURVE",
"239 37 CURVE SMOOTH"
);
},
{
closed = 1;
nodes = (
"228 249 LINE SMOOTH",
"366 249 OFFCURVE",
"394 318 OFFCURVE",
"394 380 CURVE SMOOTH",
"394 444 OFFCURVE",
"359 511 OFFCURVE",
"228 511 CURVE SMOOTH",
"64 511 LINE",
"64 249 LINE"
);
},
{
closed = 1;
nodes = (
"164 279 LINE",
"164 474 LINE",
"220 474 LINE SMOOTH",
"267 474 OFFCURVE",
"294 444 OFFCURVE",
"294 379 CURVE SMOOTH",
"294 327 OFFCURVE",
"279 279 OFFCURVE",
"220 279 CURVE SMOOTH"
);
}
);
width = 439;
},
{
hints = (
{
place = "{57.000000, 130.000000}";
},
{
place = "{283.000000, 130.000000}";
},
{
place = "{301.000000, 130.000000}";
},
{
horizontal = 1;
place = "{0.000000, 98.142857}";
},
{
horizontal = 1;
place = "{212.857143, 61.857143}";
},
{
horizontal = 1;
place = "{247.285714, 27.000000}";
},
{
horizontal = 1;
place = "{412.857143, 98.142857}";
},
{
horizontal = 1;
place = "{247.285714, 61.428571}";
}
);
layerId = "39185045-6A8C-415A-8312-7B8F11386A4C";
name = Bold;
paths = (
{
closed = 1;
nodes = (
"57 511 LINE",
"57 0 LINE",
"187 0 LINE",
"187 511 LINE"
);
},
{
closed = 1;
nodes = (
"259 0 LINE SMOOTH",
"398 0 OFFCURVE",
"431 75 OFFCURVE",
"431 137 CURVE SMOOTH",
"431 198 OFFCURVE",
"391 274 OFFCURVE",
"259 274 CURVE SMOOTH",
"57 274 LINE",
"57 0 LINE"
);
},
{
closed = 1;
nodes = (
"187 47 LINE",
"187 238 LINE",
"241 238 LINE SMOOTH",
"280 238 OFFCURVE",
"301 188 OFFCURVE",
"301 137 CURVE SMOOTH",
"301 74 OFFCURVE",
"281 47 OFFCURVE",
"241 47 CURVE SMOOTH"
);
},
{
closed = 1;
nodes = (
"240 247 LINE SMOOTH",
"393 247 OFFCURVE",
"413 322 OFFCURVE",
"413 380 CURVE SMOOTH",
"413 429 OFFCURVE",
"386 511 OFFCURVE",
"240 511 CURVE SMOOTH",
"57 511 LINE",
"57 247 LINE"
);
},
{
closed = 1;
nodes = (
"187 283 LINE",
"187 464 LINE",
"227 464 LINE SMOOTH",
"256 464 OFFCURVE",
"283 444 OFFCURVE",
"283 379 CURVE SMOOTH",
"283 331 OFFCURVE",
"276 283 OFFCURVE",
"227 283 CURVE SMOOTH"
);
}
);
width = 446;
}
);
unicode = 0042;
},
{
glyphname = C;
lastChange = "2014-11-14 23:24:29 +0000";
layers = (
{
anchors = (
{
name = bottom;
position = "{233, 0}";
},
{
name = top;
position = "{219, 511}";
}
);
hints = (
{
place = "{37.250000, 100.000000}";
},
{
place = "{338.321429, 81.178571}";
},
{
horizontal = 1;
place = "{-10.000000, 80.392857}";
},
{
horizontal = 1;
place = "{439.714286, 80.392857}";
}
);
layerId = "E777F328-EA17-4AE7-9EBA-8002E537BA4F";
name = Regular;
paths = (
{
closed = 1;
nodes = (
"417 379 LINE",
"407 465 OFFCURVE",
"370 521 OFFCURVE",
"246 521 CURVE SMOOTH",
"82 521 OFFCURVE",
"37 426 OFFCURVE",
"37 255 CURVE SMOOTH",
"37 85 OFFCURVE",
"82 -10 OFFCURVE",
"246 -10 CURVE SMOOTH",
"379 -10 OFFCURVE",
"412 59 OFFCURVE",
"419 163 CURVE",
"338 167 LINE",
"337 86 OFFCURVE",
"316 32 OFFCURVE",
"246 32 CURVE SMOOTH",
"158 32 OFFCURVE",
"137 102 OFFCURVE",
"137 255 CURVE SMOOTH",
"137 410 OFFCURVE",
"158 479 OFFCURVE",
"246 479 CURVE SMOOTH",
"307 479 OFFCURVE",
"331 435 OFFCURVE",
"337 366 CURVE"
);
}
);
width = 437;
},
{
anchors = (
{
name = bottom;
position = "{229, 0}";
},
{
name = top;
position = "{215, 511}";
}
);
hints = (
{
place = "{26.000000, 130.000000}";
},
{
place = "{321.714286, 105.285714}";
},
{
horizontal = 1;
place = "{-10.000000, 103.428571}";
},
{
horizontal = 1;
place = "{416.142857, 103.428571}";
}
);
layerId = "39185045-6A8C-415A-8312-7B8F11386A4C";
name = Bold;
paths = (
{
closed = 1;
nodes = (
"425 370 LINE",
"415 461 OFFCURVE",
"381 521 OFFCURVE",
"245 521 CURVE SMOOTH",
"76 521 OFFCURVE",
"26 430 OFFCURVE",
"26 255 CURVE SMOOTH",
"26 81 OFFCURVE",
"76 -10 OFFCURVE",
"245 -10 CURVE SMOOTH",
"391 -10 OFFCURVE",
"420 63 OFFCURVE",
"427 173 CURVE",
"322 178 LINE",
"321 93 OFFCURVE",
"306 44 OFFCURVE",
"245 44 CURVE SMOOTH",
"177 44 OFFCURVE",
"156 101 OFFCURVE",
"156 255 CURVE SMOOTH",
"156 411 OFFCURVE",
"177 467 OFFCURVE",
"245 467 CURVE SMOOTH",
"299 467 OFFCURVE",
"316 426 OFFCURVE",
"322 355 CURVE"
);
}
);
width = 429;
}
);
unicode = 0043;
},
{
glyphname = D;
lastChange = "2014-10-23 15:27:43 +0000";
layers = (
{
anchors = (
{
name = center;
position = "{250, 255}";
},
{
name = top;
position = "{250, 511}";
}
);
hints = (
{
place = "{64.500000, 100.000000}";
},
{
place = "{343.750000, 100.000000}";
},
{
horizontal = 1;
place = "{0.000000, 76.714286}";
},
{
horizontal = 1;
place = "{434.285714, 76.714286}";
}
);
layerId = "E777F328-EA17-4AE7-9EBA-8002E537BA4F";
name = Regular;
paths = (
{
closed = 1;
nodes = (
"64 511 LINE",
"64 0 LINE",
"164 0 LINE",
"164 511 LINE"
);
},
{
closed = 1;
nodes = (
"164 511 LINE",
"164 474 LINE",
"228 474 LINE SMOOTH",
"336 474 OFFCURVE",
"356 374 OFFCURVE",
"356 255 CURVE SMOOTH",
"356 137 OFFCURVE",
"336 37 OFFCURVE",
"228 37 CURVE SMOOTH",
"164 37 LINE",
"164 0 LINE",
"242 0 LINE SMOOTH",
"420 0 OFFCURVE",
"457 112 OFFCURVE",
"457 255 CURVE SMOOTH",
"457 398 OFFCURVE",
"420 511 OFFCURVE",
"242 511 CURVE SMOOTH"
);
}
);
width = 504;
},
{
anchors = (
{
name = center;
position = "{254, 255}";
},
{
name = top;
position = "{254, 511}";
}
);
hints = (
{
place = "{57.000000, 130.000000}";
},
{
place = "{325.000000, 130.000000}";
},
{
horizontal = 1;
place = "{0.000000, 98.142857}";
},
{
horizontal = 1;
place = "{412.857143, 98.142857}";
}
);
layerId = "39185045-6A8C-415A-8312-7B8F11386A4C";
name = Bold;
paths = (
{
closed = 1;
nodes = (
"57 511 LINE",
"57 0 LINE",
"187 0 LINE",
"187 511 LINE"
);
},
{
closed = 1;
nodes = (
"187 511 LINE",
"187 464 LINE",
"230 464 LINE SMOOTH",
"325 464 OFFCURVE",
"345 368 OFFCURVE",
"345 255 CURVE SMOOTH",
"345 143 OFFCURVE",
"325 47 OFFCURVE",
"230 47 CURVE SMOOTH",
"187 47 LINE",
"187 0 LINE",
"251 0 LINE SMOOTH",
"438 0 OFFCURVE",
"476 112 OFFCURVE",
"476 255 CURVE SMOOTH",
"476 398 OFFCURVE",
"438 511 OFFCURVE",
"251 511 CURVE SMOOTH"
);
}
);
width = 515;
}
);
unicode = 0044;
},
{
glyphname = E;
lastChange = "2014-10-23 15:27:43 +0000";
layers = (
{
anchors = (
{
name = bottom;
position = "{196, 0}";
},
{
name = ogonek;
position = "{414, 7}";
},
{
name = top;
position = "{210, 511}";
}
);
hints = (
{
place = "{64.500000, 100.000000}";
},
{
horizontal = 1;
place = "{0.000000, 76.714286}";
},
{
horizontal = 1;
place = "{222.035714, 75.928571}";
},
{
horizontal = 1;
place = "{434.285714, 76.714286}";
}
);
layerId = "E777F328-EA17-4AE7-9EBA-8002E537BA4F";
name = Regular;
paths = (
{
closed = 1;
nodes = (
"64 462 LINE",
"355 462 LINE",
"355 511 LINE",
"64 511 LINE"
);
},
{
closed = 1;
nodes = (
"64 462 LINE",
"64 0 LINE",
"164 0 LINE",
"164 462 LINE"
);
},
{
closed = 1;
nodes = (
"64 0 LINE",
"369 0 LINE",
"369 49 LINE",
"64 49 LINE"
);
},
{
closed = 1;
nodes = (
"164 235 LINE",
"337 235 LINE",
"337 285 LINE",
"164 285 LINE"
);
}
);
width = 392;
},
{
anchors = (
{
name = bottom;
position = "{196, 0}";
},
{
name = ogonek;
position = "{422, 7}";
},
{
name = top;
position = "{210, 511}";
}
);
hints = (
{
place = "{57.000000, 130.000000}";
},
{
horizontal = 1;
place = "{0.000000, 98.142857}";
},
{
horizontal = 1;
place = "{211.857143, 96.285714}";
},
{
horizontal = 1;
place = "{412.857143, 98.142857}";
}
);
layerId = "39185045-6A8C-415A-8312-7B8F11386A4C";
name = Bold;
paths = (
{
closed = 1;
nodes = (
"57 448 LINE",
"363 448 LINE",
"363 511 LINE",
"57 511 LINE"
);
},
{
closed = 1;
nodes = (
"57 448 LINE",
"57 0 LINE",
"187 0 LINE",
"187 448 LINE"
);
},
{
closed = 1;
nodes = (
"57 0 LINE",
"377 0 LINE",
"377 63 LINE",
"57 63 LINE"
);
},
{
closed = 1;
nodes = (
"187 229 LINE",
"343 229 LINE",
"343 291 LINE",
"187 291 LINE"
);
}
);
width = 392;
}
);
unicode = 0045;
},
{
glyphname = F;
lastChange = "2014-10-23 15:27:43 +0000";
layers = (
{
hints = (
{
place = "{64.500000, 100.000000}";
},
{
horizontal = 1;
place = "{222.035714, 75.928571}";
},
{
horizontal = 1;
place = "{434.285714, 76.714286}";
},
{
horizontal = 1;
place = "{15.000000, 21.000000}";
}
);
layerId = "E777F328-EA17-4AE7-9EBA-8002E537BA4F";
name = Regular;
paths = (
{
closed = 1;
nodes = (
"64 455 LINE",
"341 455 LINE",
"341 511 LINE",
"64 511 LINE"
);
},
{
closed = 1;
nodes = (
"64 455 LINE",
"64 0 LINE",
"164 0 LINE",
"164 455 LINE"
);
},
{
closed = 1;
nodes = (
"64 232 LINE",
"317 232 LINE",
"317 287 LINE",
"64 287 LINE"
);
}
);
width = 358;
},
{
hints = (
{
place = "{57.000000, 130.000000}";
},
{
horizontal = 1;
place = "{211.857143, 96.285714}";
},
{
horizontal = 1;
place = "{412.857143, 98.142857}";
},
{
horizontal = 1;
place = "{15.000000, 21.000000}";
}
);
layerId = "39185045-6A8C-415A-8312-7B8F11386A4C";
name = Bold;
paths = (
{
closed = 1;
nodes = (
"57 438 LINE",
"349 438 LINE",
"349 511 LINE",
"57 511 LINE"
);
},
{
closed = 1;
nodes = (
"57 438 LINE",
"57 0 LINE",
"187 0 LINE",
"187 438 LINE"
);
},
{
closed = 1;
nodes = (
"57 223 LINE",
"319 223 LINE",
"319 295 LINE",
"57 295 LINE"
);
}
);
width = 354;
}
);
unicode = 0046;
},
{
glyphname = G;
lastChange = "2014-10-23 15:27:43 +0000";
layers = (
{
anchors = (
{
name = bottom;
position = "{244, 0}";
},
{
name = top;
position = "{244, 511}";
}
);
hints = (
{
place = "{37.250000, 100.000000}";
},
{
place = "{343.214286, 65.357143}";
},
{
place = "{343.214286, 86.071429}";
},
{
horizontal = 1;
place = "{-10.000000, 80.392857}";
},
{
horizontal = 1;
place = "{0.000000, 71.285714}";
},
{
horizontal = 1;
place = "{197.785714, 63.571429}";
},
{
horizontal = 1;
place = "{439.714286, 80.392857}";
}
);
layerId = "E777F328-EA17-4AE7-9EBA-8002E537BA4F";
name = Regular;
paths = (
{
closed = 1;
nodes = (
"380 0 LINE",
"429 0 LINE",
"429 262 LINE",
"343 262 LINE",
"343 108 LINE"
);
},
{
closed = 1;
nodes = (
"256 213 LINE",
"429 213 LINE",
"429 262 LINE",
"256 262 LINE"
);
},
{
closed = 1;
nodes = (
"37 91 OFFCURVE",
"79 -10 OFFCURVE",
"237 -10 CURVE SMOOTH",
"366 -10 OFFCURVE",
"395 122 OFFCURVE",
"402 187 CURVE",
"343 181 LINE",
"342 76 OFFCURVE",
"306 32 OFFCURVE",
"237 32 CURVE SMOOTH",
"156 32 OFFCURVE",
"137 110 OFFCURVE",
"137 255 CURVE SMOOTH",
"137 410 OFFCURVE",
"158 479 OFFCURVE",
"246 479 CURVE SMOOTH",
"307 479 OFFCURVE",
"331 435 OFFCURVE",
"337 366 CURVE",
"417 379 LINE",
"407 465 OFFCURVE",
"370 521 OFFCURVE",
"246 521 CURVE SMOOTH",
"82 521 OFFCURVE",
"37 426 OFFCURVE",
"37 255 CURVE SMOOTH"
);
}
);
width = 487;
},
{
anchors = (
{
name = bottom;
position = "{245, 0}";
},
{
name = top;
position = "{245, 511}";
}
);
hints = (
{
place = "{26.000000, 130.000000}";
},
{
place = "{327.142857, 83.571429}";
},
{
place = "{327.142857, 110.714286}";
},
{
horizontal = 1;
place = "{-10.000000, 103.428571}";
},
{
horizontal = 1;
place = "{0.000000, 94.857143}";
},
{
horizontal = 1;
place = "{183.857143, 80.714286}";
},
{
horizontal = 1;
place = "{416.142857, 103.428571}";
}
);
layerId = "39185045-6A8C-415A-8312-7B8F11386A4C";
name = Bold;
paths = (
{
closed = 1;
nodes = (
"376 0 LINE",
"438 0 LINE",
"438 266 LINE",
"327 266 LINE",
"327 98 LINE"
);
},
{
closed = 1;
nodes = (
"252 204 LINE",
"438 204 LINE",
"438 266 LINE",
"252 266 LINE"
);
},
{
closed = 1;
nodes = (
"26 91 OFFCURVE",
"76 -10 OFFCURVE",
"234 -10 CURVE SMOOTH",
"375 -10 OFFCURVE",
"398 148 OFFCURVE",
"405 194 CURVE",
"327 192 LINE",
"327 75 OFFCURVE",
"294 44 OFFCURVE",
"234 44 CURVE SMOOTH",
"175 44 OFFCURVE",
"156 118 OFFCURVE",
"156 255 CURVE SMOOTH",
"156 412 OFFCURVE",
"177 467 OFFCURVE",
"245 467 CURVE SMOOTH",
"299 467 OFFCURVE",
"316 426 OFFCURVE",
"322 355 CURVE",
"425 370 LINE",
"415 461 OFFCURVE",
"381 521 OFFCURVE",
"245 521 CURVE SMOOTH",
"76 521 OFFCURVE",
"26 430 OFFCURVE",
"26 255 CURVE SMOOTH"
);
}
);
width = 488;
}
);
unicode = 0047;
},
{
glyphname = H;
lastChange = "2014-11-06 17:53:05 +0000";
layers = (
{
anchors = (
{
name = center;
position = "{256, 255}";
},
{
name = top;
position = "{256, 511}";
}
);
hints = (
{
place = "{64.500000, 100.000000}";
},
{
place = "{346.071429, 100.000000}";
},
{
horizontal = 1;
place = "{217.928571, 75.928571}";
},
{
horizontal = 1;
place = "{511.000000, -20.000000}";
},
{
horizontal = 1;
place = "{15.000000, 21.000000}";
}
);
layerId = "E777F328-EA17-4AE7-9EBA-8002E537BA4F";
name = Regular;
paths = (
{
closed = 1;
nodes = (
"64 511 LINE",
"64 0 LINE",
"164 0 LINE",
"164 511 LINE"
);
},
{
closed = 1;
nodes = (
"138 231 LINE",
"415 231 LINE",
"415 280 LINE",
"138 280 LINE"
);
},
{
closed = 1;
nodes = (
"346 511 LINE",
"346 0 LINE",
"447 0 LINE",
"447 511 LINE"
);
}
);
width = 511;
},
{
anchors = (
{
name = center;
position = "{257, 255}";
},
{
name = top;
position = "{257, 511}";
}
);
hints = (
{
place = "{57.000000, 130.000000}";
},
{
place = "{325.714286, 130.000000}";
},
{
horizontal = 1;
place = "{208.285714, 96.285714}";
},
{
horizontal = 1;
place = "{511.000000, -20.000000}";
},
{
horizontal = 1;
place = "{15.000000, 21.000000}";
}
);
layerId = "39185045-6A8C-415A-8312-7B8F11386A4C";
name = Bold;
paths = (
{
closed = 1;
nodes = (
"57 511 LINE",
"57 0 LINE",
"187 0 LINE",
"187 511 LINE"
);
},
{
closed = 1;
nodes = (
"153 224 LINE",
"419 224 LINE",
"419 287 LINE",
"153 287 LINE"
);
},
{
closed = 1;
nodes = (
"326 511 LINE",
"326 0 LINE",
"457 0 LINE",
"457 511 LINE"
);
}
);
width = 514;
}
);
unicode = 0048;
},
{
glyphname = I;
lastChange = "2014-10-23 15:27:43 +0000";
layers = (
{
anchors = (
{
name = ogonek;
position = "{200, 7}";
},
{
name = top;
position = "{115, 511}";
}
);
hints = (
{
place = "{64.500000, 100.000000}";
},
{
horizontal = 1;
place = "{511.000000, -20.000000}";
},
{
horizontal = 1;
place = "{15.000000, 21.000000}";
}
);
layerId = "E777F328-EA17-4AE7-9EBA-8002E537BA4F";
name = Regular;
paths = (
{
closed = 1;
nodes = (
"64 511 LINE",
"64 0 LINE",
"164 0 LINE",
"164 511 LINE"
);
}
);
width = 229;
},
{
anchors = (
{
name = ogonek;
position = "{212, 7}";
},
{
name = top;
position = "{122, 511}";
}
);
hints = (
{
place = "{57.000000, 130.000000}";
},
{
horizontal = 1;
place = "{511.000000, -20.000000}";
},
{
horizontal = 1;
place = "{15.000000, 21.000000}";
}
);
layerId = "39185045-6A8C-415A-8312-7B8F11386A4C";
name = Bold;
paths = (
{
closed = 1;
nodes = (
"57 511 LINE",
"57 0 LINE",
"187 0 LINE",
"187 511 LINE"
);
}
);
width = 244;
}
);
unicode = 0049;
},
{
glyphname = J;
lastChange = "2014-10-23 15:27:43 +0000";
layers = (
{
anchors = (
{
name = top;
position = "{237, 511}";
}
);
hints = (
{
place = "{1.500000, 86.750000}";
},
{
place = "{187.250000, 100.000000}";
},
{
horizontal = 1;
place = "{-10.000000, 80.392857}";
},
{
horizontal = 1;
place = "{511.000000, -20.000000}";
}
);
layerId = "E777F328-EA17-4AE7-9EBA-8002E537BA4F";
name = Regular;
paths = (
{
closed = 1;
nodes = (
"287 511 LINE",
"187 511 LINE",
"187 128 LINE SMOOTH",
"187 59 OFFCURVE",
"176 32 OFFCURVE",
"138 32 CURVE SMOOTH",
"100 32 OFFCURVE",
"88 64 OFFCURVE",
"88 147 CURVE",
"1 147 LINE",
"1 57 OFFCURVE",
"6 -10 OFFCURVE",
"136 -10 CURVE SMOOTH",
"274 -10 OFFCURVE",
"287 56 OFFCURVE",
"287 128 CURVE SMOOTH"
);
}
);
width = 342;
},
{
anchors = (
{
name = top;
position = "{241, 511}";
}
);
hints = (
{
place = "{-6.000000, 113.000000}";
},
{
place = "{176.000000, 130.000000}";
},
{
horizontal = 1;
place = "{-10.000000, 103.428571}";
},
{
horizontal = 1;
place = "{511.000000, -20.000000}";
}
);
layerId = "39185045-6A8C-415A-8312-7B8F11386A4C";
name = Bold;
paths = (
{
closed = 1;
nodes = (
"306 511 LINE",
"176 511 LINE",
"176 128 LINE SMOOTH",
"176 70 OFFCURVE",
"166 44 OFFCURVE",
"142 44 CURVE SMOOTH",
"117 44 OFFCURVE",
"107 75 OFFCURVE",
"107 158 CURVE",
"-6 158 LINE",
"-6 57 OFFCURVE",
"-1 -10 OFFCURVE",
"139 -10 CURVE SMOOTH",
"292 -10 OFFCURVE",
"306 60 OFFCURVE",
"306 128 CURVE SMOOTH"
);
}
);
width = 353;
}
);
leftKerningGroup = J;
unicode = 004A;
},
{
glyphname = K;
lastChange = "2014-10-23 15:27:43 +0000";
layers = (
{
anchors = (
{
name = bottom;
position = "{220, 0}";
},
{
name = top;
position = "{220, 511}";
}
);
hints = (
{
place = "{64.500000, 100.000000}";
},
{
horizontal = 1;
place = "{221.928571, 48.428571}";
},
{
horizontal = 1;
place = "{247.000000, 23.357143}";
},
{
horizontal = 1;
place = "{247.000000, 50.750000}";
},
{
horizontal = 1;
place = "{511.000000, -20.000000}";
},
{
horizontal = 1;
place = "{15.000000, 21.000000}";
}
);
layerId = "E777F328-EA17-4AE7-9EBA-8002E537BA4F";
name = Regular;
paths = (
{
closed = 1;
nodes = (
"64 511 LINE",
"64 0 LINE",
"164 0 LINE",
"164 511 LINE"
);
},
{
closed = 1;
nodes = (
"441 0 LINE",
"268 270 LINE",
"162 270 LINE",
"335 0 LINE"
);
},
{
closed = 1;
nodes = (
"118 235 LINE",
"246 235 LINE",
"246 285 LINE",
"118 285 LINE"
);
},
{
closed = 1;
nodes = (
"370 511 LINE",
"212 267 LINE",
"269 267 LINE",
"429 511 LINE"
);
}
);
width = 437;
},
{
anchors = (
{
name = bottom;
position = "{227, 0}";
},
{
name = top;
position = "{227, 511}";
}
);
hints = (
{
place = "{57.000000, 130.000000}";
},
{
horizontal = 1;
place = "{212.285714, 61.285714}";
},
{
horizontal = 1;
place = "{247.000000, 26.571429}";
},
{
horizontal = 1;
place = "{247.000000, 62.000000}";
},
{
horizontal = 1;
place = "{511.000000, -20.000000}";
},
{
horizontal = 1;
place = "{15.000000, 21.000000}";
}
);
layerId = "39185045-6A8C-415A-8312-7B8F11386A4C";
name = Bold;
paths = (
{
closed = 1;
nodes = (
"57 511 LINE",
"57 0 LINE",
"187 0 LINE",
"187 511 LINE"
);
},
{
closed = 1;
nodes = (
"467 0 LINE",
"297 275 LINE",
"160 275 LINE",
"329 0 LINE"
);
},
{
closed = 1;
nodes = (
"129 229 LINE",
"264 229 LINE",
"264 292 LINE",
"129 292 LINE"
);
},
{
closed = 1;
nodes = (
"374 511 LINE",
"224 271 LINE",
"298 271 LINE",
"451 511 LINE"
);
}
);
width = 452;
}
);
unicode = 004B;
},
{
glyphname = L;
lastChange = "2014-11-14 22:34:39 +0000";
layers = (
{
anchors = (
{
name = bottom;
position = "{190, 0}";
},
{
name = top;
position = "{115, 511}";
},
{
name = topright;
position = "{324, 511}";
}
);
hints = (
{
place = "{64.500000, 100.000000}";
},
{
horizontal = 1;
place = "{0.000000, 76.714286}";
},
{
horizontal = 1;
place = "{511.000000, -20.000000}";
}
);
layerId = "E777F328-EA17-4AE7-9EBA-8002E537BA4F";
name = Regular;
paths = (
{
closed = 1;
nodes = (
"64 511 LINE",
"64 0 LINE",
"164 0 LINE",
"164 511 LINE"
);
},
{
closed = 1;
nodes = (
"64 0 LINE",
"336 0 LINE",
"336 49 LINE",
"64 49 LINE"
);
}
);
width = 338;
},
{
anchors = (
{
name = bottom;
position = "{190, 0}";
},
{
name = top;
position = "{122, 511}";
},
{
name = topright;
position = "{324, 511}";
}
);
hints = (
{
place = "{57.000000, 130.000000}";
},
{
horizontal = 1;
place = "{0.000000, 98.142857}";
},
{
horizontal = 1;
place = "{511.000000, -20.000000}";
}
);
layerId = "39185045-6A8C-415A-8312-7B8F11386A4C";
name = Bold;
paths = (
{
closed = 1;
nodes = (
"57 511 LINE",
"57 0 LINE",
"187 0 LINE",
"187 511 LINE"
);
},
{
closed = 1;
nodes = (
"57 0 LINE",
"344 0 LINE",
"344 63 LINE",
"57 63 LINE"
);
}
);
width = 338;
}
);
rightKerningGroup = L;
unicode = 004C;
},
{
glyphname = M;
lastChange = "2014-10-23 15:27:43 +0000";
layers = (
{
hints = (
{
place = "{57.500000, 108.428571}";
},
{
place = "{463.535714, 85.892857}";
},
{
horizontal = 1;
place = "{511.000000, -20.000000}";
},
{
horizontal = 1;
place = "{15.000000, 21.000000}";
}
);
layerId = "E777F328-EA17-4AE7-9EBA-8002E537BA4F";
name = Regular;
paths = (
{
closed = 1;
nodes = (
"69 511 LINE",
"55 0 LINE",
"115 0 LINE",
"127 511 LINE"
);
},
{
closed = 1;
nodes = (
"426 511 LINE",
"281 0 LINE",
"339 0 LINE",
"486 511 LINE"
);
},
{
closed = 1;
nodes = (
"465 511 LINE",
"476 0 LINE",
"576 0 LINE",
"561 511 LINE"
);
},
{
closed = 1;
nodes = (
"340 0 LINE",
"198 511 LINE",
"108 511 LINE",
"252 0 LINE"
);
}
);
width = 630;
},
{
hints = (
{
place = "{50.000000, 136.285714}";
},
{
place = "{445.857143, 116.428571}";
},
{
horizontal = 1;
place = "{511.000000, -20.000000}";
},
{
horizontal = 1;
place = "{15.000000, 21.000000}";
}
);
layerId = "39185045-6A8C-415A-8312-7B8F11386A4C";
name = Bold;
paths = (
{
closed = 1;
nodes = (
"59 511 LINE",
"46 0 LINE",
"125 0 LINE",
"134 511 LINE"
);
},
{
closed = 1;
nodes = (
"396 511 LINE",
"270 0 LINE",
"346 0 LINE",
"475 511 LINE"
);
},
{
closed = 1;
nodes = (
"446 511 LINE",
"455 0 LINE",
"586 0 LINE",
"571 511 LINE"
);
},
{
closed = 1;
nodes = (
"347 0 LINE",
"225 511 LINE",
"109 511 LINE",
"234 0 LINE"
);
}
);
width = 630;
}
);
unicode = 004D;
},
{
glyphname = N;
lastChange = "2014-10-23 15:27:43 +0000";
layers = (
{
anchors = (
{
name = bottom;
position = "{267, 0}";
},
{
name = top;
position = "{267, 511}";
}
);
hints = (
{
place = "{64.500000, 100.000000}";
},
{
place = "{366.000000, 100.000000}";
},
{
horizontal = 1;
place = "{511.000000, -20.000000}";
},
{
horizontal = 1;
place = "{15.000000, 21.000000}";
}
);
layerId = "E777F328-EA17-4AE7-9EBA-8002E537BA4F";
name = Regular;
paths = (
{
closed = 1;
nodes = (
"65 511 LINE",
"65 0 LINE",
"124 0 LINE",
"124 511 LINE"
);
},
{
closed = 1;
nodes = (
"409 511 LINE",
"409 0 LINE",
"468 0 LINE",
"468 511 LINE"
);
},
{
closed = 1;
nodes = (
"65 511 LINE",
"362 0 LINE",
"468 0 LINE",
"171 511 LINE"
);
}
);
width = 533;
},
{
anchors = (
{
name = bottom;
position = "{266, 0}";
},
{
name = top;
position = "{266, 511}";
}
);
hints = (
{
place = "{57.000000, 130.000000}";
},
{
place = "{351.000000, 130.000000}";
},
{
horizontal = 1;
place = "{511.000000, -20.000000}";
},
{
horizontal = 1;
place = "{15.000000, 21.000000}";
}
);
layerId = "39185045-6A8C-415A-8312-7B8F11386A4C";
name = Bold;
paths = (
{
closed = 1;
nodes = (
"54 511 LINE",
"54 0 LINE",
"132 0 LINE",
"132 511 LINE"
);
},
{
closed = 1;
nodes = (
"399 511 LINE",
"399 0 LINE",
"477 0 LINE",
"477 511 LINE"
);
},
{
closed = 1;
nodes = (
"54 511 LINE",
"340 0 LINE",
"476 0 LINE",
"190 511 LINE"
);
}
);
width = 533;
}
);
unicode = 004E;
},
{
glyphname = Eng;
lastChange = "2014-10-23 15:27:43 +0000";
layers = (
{
components = (
{
name = N;
}
);
hints = (
{
place = "{64.500000, 100.000000}";
},
{
place = "{366.000000, 100.000000}";
},
{
horizontal = 1;
place = "{-145.035714, 78.285714}";
},
{
horizontal = 1;
place = "{15.000000, 21.000000}";
},
{
horizontal = 1;
place = "{511.000000, -20.000000}";
}
);
layerId = "E777F328-EA17-4AE7-9EBA-8002E537BA4F";
name = Regular;
paths = (
{
closed = 1;
nodes = (
"228 -141 LINE",
"262 -158 OFFCURVE",
"295 -169 OFFCURVE",
"330 -169 CURVE SMOOTH",
"421 -169 OFFCURVE",
"468 -124 OFFCURVE",
"468 -35 CURVE SMOOTH",
"468 0 LINE",
"362 0 LINE",
"369 -13 LINE",
"369 -58 LINE SMOOTH",
"369 -89 OFFCURVE",
"352 -112 OFFCURVE",
"321 -112 CURVE SMOOTH",
"295 -112 OFFCURVE",
"274 -94 OFFCURVE",
"259 -70 CURVE"
);
}
);
width = 533;
},
{
components = (
{
name = N;
}
);
hints = (
{
place = "{57.000000, 130.000000}";
},
{
place = "{351.000000, 130.000000}";
},
{
horizontal = 1;
place = "{-134.857143, 101.857143}";
},
{
horizontal = 1;
place = "{15.000000, 21.000000}";
},
{
horizontal = 1;
place = "{511.000000, -20.000000}";
}
);
layerId = "39185045-6A8C-415A-8312-7B8F11386A4C";
name = Bold;
paths = (
{
closed = 1;
nodes = (
"211 -145 LINE",
"249 -161 OFFCURVE",
"287 -169 OFFCURVE",
"318 -169 CURVE SMOOTH",
"428 -169 OFFCURVE",
"476 -118 OFFCURVE",
"476 -22 CURVE SMOOTH",
"476 0 LINE",
"340 0 LINE",
"347 -14 LINE",
"347 -48 LINE SMOOTH",
"347 -73 OFFCURVE",
"334 -93 OFFCURVE",
"305 -93 CURVE SMOOTH",
"281 -93 OFFCURVE",
"263 -78 OFFCURVE",
"248 -52 CURVE"
);
}
);
width = 533;
}
);
unicode = 014A;
},
{
glyphname = O;
lastChange = "2014-10-27 22:20:43 +0000";
layers = (
{
anchors = (
{
name = top;
position = "{248, 511}";
}
);
hints = (
{
place = "{37.250000, 100.000000}";
},
{
place = "{357.250000, 100.000000}";
},
{
horizontal = 1;
place = "{-10.000000, 80.392857}";
},
{
horizontal = 1;
place = "{439.714286, 80.392857}";
}
);
layerId = "E777F328-EA17-4AE7-9EBA-8002E537BA4F";
name = Regular;
paths = (
{
closed = 1;
nodes = (
"391 -10 OFFCURVE",
"457 74 OFFCURVE",
"457 255 CURVE SMOOTH",
"457 437 OFFCURVE",
"391 521 OFFCURVE",
"247 521 CURVE SMOOTH",
"103 521 OFFCURVE",
"37 438 OFFCURVE",
"37 255 CURVE SMOOTH",
"37 73 OFFCURVE",
"103 -10 OFFCURVE",
"247 -10 CURVE SMOOTH"
);
},
{
closed = 1;
nodes = (
"172 31 OFFCURVE",
"137 101 OFFCURVE",
"137 255 CURVE SMOOTH",
"137 410 OFFCURVE",
"172 480 OFFCURVE",
"247 480 CURVE SMOOTH",
"322 480 OFFCURVE",
"357 408 OFFCURVE",
"357 255 CURVE SMOOTH",
"357 103 OFFCURVE",
"322 31 OFFCURVE",
"247 31 CURVE SMOOTH"
);
}
);
width = 495;
},
{
anchors = (
{
name = top;
position = "{244, 511}";
}
);
hints = (
{
place = "{26.000000, 130.000000}";
},
{
place = "{331.000000, 130.000000}";
},
{
horizontal = 1;
place = "{-10.000000, 103.428571}";
},
{
horizontal = 1;
place = "{416.142857, 103.428571}";
}
);
layerId = "39185045-6A8C-415A-8312-7B8F11386A4C";
name = Bold;
paths = (
{
closed = 1;
nodes = (
"393 -10 OFFCURVE",
"461 74 OFFCURVE",
"461 255 CURVE SMOOTH",
"461 437 OFFCURVE",
"392 521 OFFCURVE",
"243 521 CURVE SMOOTH",
"95 521 OFFCURVE",
"26 438 OFFCURVE",
"26 255 CURVE SMOOTH",
"26 73 OFFCURVE",
"94 -10 OFFCURVE",
"243 -10 CURVE SMOOTH"
);
},
{
closed = 1;
nodes = (
"183 42 OFFCURVE",
"156 109 OFFCURVE",
"156 255 CURVE SMOOTH",
"156 402 OFFCURVE",
"183 469 OFFCURVE",
"243 469 CURVE SMOOTH",
"303 469 OFFCURVE",
"331 400 OFFCURVE",
"331 255 CURVE SMOOTH",
"331 111 OFFCURVE",
"303 42 OFFCURVE",
"243 42 CURVE SMOOTH"
);
}
);
width = 487;
}
);
unicode = 004F;
},
{
glyphname = OE;
lastChange = "2014-10-23 15:27:43 +0000";
layers = (
{
anchors = (
{
name = top;
position = "{331, 511}";
}
);
hints = (
{
place = "{37.250000, 100.000000}";
},
{
place = "{350.250000, 100.000000}";
},
{
horizontal = 1;
place = "{0.000000, 76.714286}";
},
{
horizontal = 1;
place = "{222.035714, 75.928571}";
},
{
horizontal = 1;
place = "{434.285714, 76.714286}";
}
);
layerId = "E777F328-EA17-4AE7-9EBA-8002E537BA4F";
name = Regular;
paths = (
{
closed = 1;
nodes = (
"411 0 OFFCURVE",
"450 110 OFFCURVE",
"450 255 CURVE SMOOTH",
"450 400 OFFCURVE",
"411 511 OFFCURVE",
"244 511 CURVE SMOOTH",
"76 511 OFFCURVE",
"37 400 OFFCURVE",
"37 255 CURVE SMOOTH",
"37 110 OFFCURVE",
"76 0 OFFCURVE",
"244 0 CURVE SMOOTH"
);
},
{
closed = 1;
nodes = (
"157 49 OFFCURVE",
"137 138 OFFCURVE",
"137 255 CURVE SMOOTH",
"137 373 OFFCURVE",
"158 462 OFFCURVE",
"244 462 CURVE SMOOTH",
"330 462 OFFCURVE",
"350 373 OFFCURVE",
"350 255 CURVE SMOOTH",
"350 138 OFFCURVE",
"330 49 OFFCURVE",
"244 49 CURVE SMOOTH"
);
},
{
closed = 1;
nodes = (
"245 462 LINE",
"626 462 LINE",
"626 511 LINE",
"245 511 LINE"
);
},
{
closed = 1;
nodes = (
"244 0 LINE",
"640 0 LINE",
"640 49 LINE",
"244 49 LINE"
);
},
{
closed = 1;
nodes = (
"444 235 LINE",
"608 235 LINE",
"608 285 LINE",
"444 285 LINE"
);
}
);
width = 662;
},
{
anchors = (
{
name = top;
position = "{325, 511}";
}
);
hints = (
{
place = "{26.000000, 130.000000}";
},
{
place = "{324.000000, 130.000000}";
},
{
horizontal = 1;
place = "{0.000000, 98.142857}";
},
{
horizontal = 1;
place = "{211.857143, 96.285714}";
},
{
horizontal = 1;
place = "{412.857143, 98.142857}";
}
);
layerId = "39185045-6A8C-415A-8312-7B8F11386A4C";
name = Bold;
paths = (
{
closed = 1;
nodes = (
"414 0 OFFCURVE",
"454 119 OFFCURVE",
"454 255 CURVE SMOOTH",
"454 391 OFFCURVE",
"414 511 OFFCURVE",
"240 511 CURVE SMOOTH",
"66 511 OFFCURVE",
"26 391 OFFCURVE",
"26 255 CURVE SMOOTH",
"26 119 OFFCURVE",
"66 0 OFFCURVE",
"240 0 CURVE SMOOTH"
);
},
{
closed = 1;
nodes = (
"172 63 OFFCURVE",
"156 152 OFFCURVE",
"156 255 CURVE SMOOTH",
"156 359 OFFCURVE",
"173 448 OFFCURVE",
"241 448 CURVE SMOOTH",
"309 448 OFFCURVE",
"324 359 OFFCURVE",
"324 255 CURVE SMOOTH",
"324 152 OFFCURVE",
"309 63 OFFCURVE",
"240 63 CURVE SMOOTH"
);
},
{
closed = 1;
nodes = (
"241 448 LINE",
"622 448 LINE",
"622 511 LINE",
"241 511 LINE"
);
},
{
closed = 1;
nodes = (
"240 0 LINE",
"636 0 LINE",
"636 63 LINE",
"240 63 LINE"
);
},
{
closed = 1;
nodes = (
"448 229 LINE",
"602 229 LINE",
"602 291 LINE",
"448 291 LINE"
);
}
);
width = 651;
}
);
leftMetricsKey = "=O";
rightMetricsKey = "=E";
unicode = 0152;
},
{
glyphname = P;
lastChange = "2014-10-23 15:27:43 +0000";
layers = (
{
hints = (
{
place = "{64.500000, 100.000000}";
},
{
place = "{308.928571, 100.000000}";
},
{
horizontal = 1;
place = "{180.500000, 76.714286}";
},
{
horizontal = 1;
place = "{434.285714, 76.714286}";
},
{
horizontal = 1;
place = "{15.000000, 21.000000}";
}
);
layerId = "E777F328-EA17-4AE7-9EBA-8002E537BA4F";
name = Regular;
paths = (
{
closed = 1;
nodes = (
"64 469 LINE",
"64 0 LINE",
"164 0 LINE",
"164 469 LINE"
);
},
{
closed = 1;
nodes = (
"244 181 LINE SMOOTH",
"373 181 OFFCURVE",
"408 260 OFFCURVE",
"408 345 CURVE SMOOTH",
"408 431 OFFCURVE",
"373 511 OFFCURVE",
"244 511 CURVE SMOOTH",
"64 511 LINE",
"64 181 LINE"
);
},
{
closed = 1;
nodes = (
"164 217 LINE",
"164 474 LINE",
"228 474 LINE SMOOTH",
"284 474 OFFCURVE",
"308 425 OFFCURVE",
"308 345 CURVE SMOOTH",
"308 266 OFFCURVE",
"284 217 OFFCURVE",
"228 217 CURVE SMOOTH"
);
}
);
width = 419;
},
{
hints = (
{
place = "{57.000000, 130.000000}";
},
{
place = "{299.285714, 130.000000}";
},
{
horizontal = 1;
place = "{173.000000, 98.142857}";
},
{
horizontal = 1;
place = "{412.857143, 98.142857}";
},
{
horizontal = 1;
place = "{15.000000, 21.000000}";
}
);
layerId = "39185045-6A8C-415A-8312-7B8F11386A4C";
name = Bold;
paths = (
{
closed = 1;
nodes = (
"57 455 LINE",
"57 0 LINE",
"187 0 LINE",
"187 455 LINE"
);
},
{
closed = 1;
nodes = (
"260 173 LINE SMOOTH",
"390 173 OFFCURVE",
"429 254 OFFCURVE",
"429 341 CURVE SMOOTH",
"429 430 OFFCURVE",
"390 511 OFFCURVE",
"260 511 CURVE SMOOTH",
"57 511 LINE",
"57 173 LINE"
);
},
{
closed = 1;
nodes = (
"187 220 LINE",
"187 464 LINE",
"235 464 LINE SMOOTH",
"276 464 OFFCURVE",
"299 424 OFFCURVE",
"299 341 CURVE SMOOTH",
"299 261 OFFCURVE",
"276 220 OFFCURVE",
"235 220 CURVE SMOOTH"
);
}
);
width = 424;
}
);
unicode = 0050;
},
{
glyphname = Thorn;
lastChange = "2014-10-23 15:27:43 +0000";
layers = (
{
hints = (
{
place = "{64.500000, 100.000000}";
},
{
place = "{308.928571, 100.000000}";
},
{
horizontal = 1;
place = "{180.500000, 76.714286}";
},
{
horizontal = 1;
place = "{434.285714, 76.714286}";
},
{
horizontal = 1;
place = "{15.000000, 15.000000}";
}
);
layerId = "E777F328-EA17-4AE7-9EBA-8002E537BA4F";
name = Regular;
paths = (
{
closed = 1;
nodes = (
"64 509 LINE",
"64 0 LINE",
"164 0 LINE",
"164 509 LINE"
);
},
{
closed = 1;
nodes = (
"244 90 LINE SMOOTH",
"373 90 OFFCURVE",
"408 169 OFFCURVE",
"408 254 CURVE SMOOTH",
"408 340 OFFCURVE",
"373 419 OFFCURVE",
"244 419 CURVE SMOOTH",
"64 419 LINE",
"64 90 LINE"
);
},
{
closed = 1;
nodes = (
"164 127 LINE",
"164 382 LINE",
"228 382 LINE SMOOTH",
"284 382 OFFCURVE",
"308 334 OFFCURVE",
"308 254 CURVE SMOOTH",
"308 175 OFFCURVE",
"284 127 OFFCURVE",
"228 127 CURVE SMOOTH"
);
}
);
width = 419;
},
{
hints = (
{
place = "{57.000000, 130.000000}";
},
{
place = "{299.285714, 130.000000}";
},
{
horizontal = 1;
place = "{173.000000, 98.142857}";
},
{
horizontal = 1;
place = "{412.857143, 98.142857}";
},
{
horizontal = 1;
place = "{15.000000, 15.000000}";
}
);
layerId = "39185045-6A8C-415A-8312-7B8F11386A4C";
name = Bold;
paths = (
{
closed = 1;
nodes = (
"57 520 LINE",
"57 0 LINE",
"187 0 LINE",
"187 520 LINE"
);
},
{
closed = 1;
nodes = (
"260 92 LINE SMOOTH",
"390 92 OFFCURVE",
"429 173 OFFCURVE",
"429 259 CURVE SMOOTH",
"429 347 OFFCURVE",
"390 428 OFFCURVE",
"260 428 CURVE SMOOTH",
"57 428 LINE",
"57 92 LINE"
);
},
{
closed = 1;
nodes = (
"187 139 LINE",
"187 381 LINE",
"235 381 LINE SMOOTH",
"276 381 OFFCURVE",
"299 341 OFFCURVE",
"299 259 CURVE SMOOTH",
"299 179 OFFCURVE",
"276 139 OFFCURVE",
"235 139 CURVE SMOOTH"
);
}
);
width = 424;
}
);
unicode = 00DE;
},
{
glyphname = Q;
lastChange = "2014-10-23 15:27:43 +0000";
layers = (
{
components = (
{
name = O;
}
);
hints = (
{
place = "{37.250000, 100.000000}";
},
{
place = "{350.250000, 100.000000}";
},
{
horizontal = 1;
place = "{-10.000000, 80.392857}";
},
{
horizontal = 1;
place = "{439.714286, 80.392857}";
},
{
horizontal = 1;
place = "{-86.464286, 21.000000}";
}
);
layerId = "E777F328-EA17-4AE7-9EBA-8002E537BA4F";
name = Regular;
paths = (
{
closed = 1;
nodes = (
"224 -8 LINE",
"409 -115 LINE",
"444 -49 LINE",
"258 26 LINE"
);
}
);
width = 488;
},
{
components = (
{
name = O;
}
);
hints = (
{
place = "{26.000000, 130.000000}";
},
{
place = "{324.000000, 130.000000}";
},
{
horizontal = 1;
place = "{-10.000000, 103.428571}";
},
{
horizontal = 1;
place = "{416.142857, 103.428571}";
},
{
horizontal = 1;
place = "{-89.142857, 21.000000}";
}
);
layerId = "39185045-6A8C-415A-8312-7B8F11386A4C";
name = Bold;
paths = (
{
closed = 1;
nodes = (
"213 -8 LINE",
"411 -117 LINE",
"455 -34 LINE",
"257 35 LINE"
);
}
);
width = 480;
}
);
unicode = 0051;
},
{
glyphname = R;
lastChange = "2014-10-23 15:27:43 +0000";
layers = (
{
anchors = (
{
name = bottom;
position = "{232, 0}";
},
{
name = top;
position = "{232, 511}";
}
);
hints = (
{
place = "{64.500000, 100.000000}";
},
{
place = "{315.392857, 100.000000}";
},
{
horizontal = 1;
place = "{201.500000, 50.000000}";
},
{
horizontal = 1;
place = "{434.285714, 76.714286}";
},
{
horizontal = 1;
place = "{201.500000, 76.714286}";
},
{
horizontal = 1;
place = "{15.000000, 21.000000}";
}
);
layerId = "E777F328-EA17-4AE7-9EBA-8002E537BA4F";
name = Regular;
paths = (
{
closed = 1;
nodes = (
"64 469 LINE",
"64 0 LINE",
"164 0 LINE",
"164 469 LINE"
);
},
{
closed = 1;
nodes = (
"246 215 LINE SMOOTH",
"384 215 OFFCURVE",
"415 291 OFFCURVE",
"415 356 CURVE SMOOTH",
"415 427 OFFCURVE",
"384 511 OFFCURVE",
"246 511 CURVE SMOOTH",
"64 511 LINE",
"64 215 LINE"
);
},
{
closed = 1;
nodes = (
"164 252 LINE",
"164 474 LINE",
"233 474 LINE SMOOTH",
"292 474 OFFCURVE",
"315 415 OFFCURVE",
"315 356 CURVE SMOOTH",
"315 305 OFFCURVE",
"292 252 OFFCURVE",
"233 252 CURVE SMOOTH"
);
},
{
closed = 1;
nodes = (
"197 215 LINE",
"232 215 OFFCURVE",
"244 210 OFFCURVE",
"257 179 CURVE SMOOTH",
"329 0 LINE",
"437 0 LINE",
"359 187 LINE SMOOTH",
"340 231 OFFCURVE",
"296 237 OFFCURVE",
"197 237 CURVE"
);
}
);
width = 464;
},
{
anchors = (
{
name = bottom;
position = "{238, 0}";
},
{
name = top;
position = "{238, 511}";
}
);
hints = (
{
place = "{57.000000, 130.000000}";
},
{
place = "{308.428571, 130.000000}";
},
{
horizontal = 1;
place = "{194.000000, 65.000000}";
},
{
horizontal = 1;
place = "{412.857143, 98.142857}";
},
{
horizontal = 1;
place = "{194.000000, 98.142857}";
},
{
horizontal = 1;
place = "{15.000000, 21.000000}";
}
);
layerId = "39185045-6A8C-415A-8312-7B8F11386A4C";
name = Bold;
paths = (
{
closed = 1;
nodes = (
"57 455 LINE",
"57 0 LINE",
"187 0 LINE",
"187 455 LINE"
);
},
{
closed = 1;
nodes = (
"260 211 LINE SMOOTH",
"406 211 OFFCURVE",
"438 287 OFFCURVE",
"438 352 CURVE SMOOTH",
"438 425 OFFCURVE",
"406 511 OFFCURVE",
"260 511 CURVE SMOOTH",
"57 511 LINE",
"57 211 LINE"
);
},
{
closed = 1;
nodes = (
"187 258 LINE",
"187 464 LINE",
"240 464 LINE SMOOTH",
"286 464 OFFCURVE",
"308 409 OFFCURVE",
"308 352 CURVE SMOOTH",
"308 306 OFFCURVE",
"286 258 OFFCURVE",
"240 258 CURVE SMOOTH"
);
},
{
closed = 1;
nodes = (
"206 211 LINE",
"235 211 OFFCURVE",
"238 207 OFFCURVE",
"247 183 CURVE SMOOTH",
"321 0 LINE",
"461 0 LINE",
"382 191 LINE SMOOTH",
"364 231 OFFCURVE",
"315 240 OFFCURVE",
"206 240 CURVE"
);
}
);
width = 475;
}
);
unicode = 0052;
},
{
glyphname = S;
lastChange = "2014-11-16 15:31:09 +0000";
layers = (
{
anchors = (
{
name = bottom;
position = "{214, 0}";
},
{
name = top;
position = "{219, 511}";
}
);
hints = (
{
place = "{41.000000, 100.000000}";
},
{
place = "{292.000000, 100.000000}";
},
{
horizontal = 1;
place = "{-10.000000, 78.000000}";
},
{
horizontal = 1;
place = "{443.000000, 78.000000}";
}
);
layerId = "E777F328-EA17-4AE7-9EBA-8002E537BA4F";
name = Regular;
paths = (
{
closed = 1;
nodes = (
"100 521 OFFCURVE",
"40 469 OFFCURVE",
"40 369 CURVE SMOOTH",
"40 282 OFFCURVE",
"76 239 OFFCURVE",
"173 216 CURVE SMOOTH",
"213 206 LINE SMOOTH",
"294 187 OFFCURVE",
"317 168 OFFCURVE",
"317 118 CURVE SMOOTH",
"317 62 OFFCURVE",
"281 31 OFFCURVE",
"215 31 CURVE SMOOTH",
"153 31 OFFCURVE",
"117 76 OFFCURVE",
"109 156 CURVE",
"29 144 LINE",
"42 39 OFFCURVE",
"101 -10 OFFCURVE",
"215 -10 CURVE SMOOTH",
"334 -10 OFFCURVE",
"399 43 OFFCURVE",
"399 141 CURVE SMOOTH",
"399 226 OFFCURVE",
"362 268 OFFCURVE",
"264 293 CURVE SMOOTH",
"219 305 LINE SMOOTH",
"145 324 OFFCURVE",
"121 343 OFFCURVE",
"121 393 CURVE SMOOTH",
"121 448 OFFCURVE",
"156 480 OFFCURVE",
"216 480 CURVE SMOOTH",
"274 480 OFFCURVE",
"309 435 OFFCURVE",
"315 356 CURVE",
"396 367 LINE",
"382 472 OFFCURVE",
"325 521 OFFCURVE",
"217 521 CURVE SMOOTH"
);
}
);
width = 429;
},
{
anchors = (
{
name = bottom;
position = "{218, 0}";
},
{
name = top;
position = "{223, 511}";
}
);
hints = (
{
place = "{33.000000, 130.000000}";
},
{
place = "{271.714286, 130.000000}";
},
{
horizontal = 1;
place = "{-10.000000, 99.142857}";
},
{
horizontal = 1;
place = "{421.857143, 99.142857}";
}
);
layerId = "39185045-6A8C-415A-8312-7B8F11386A4C";
name = Bold;
paths = (
{
closed = 1;
nodes = (
"96 521 OFFCURVE",
"33 468 OFFCURVE",
"33 362 CURVE SMOOTH",
"33 267 OFFCURVE",
"73 223 OFFCURVE",
"167 204 CURVE SMOOTH",
"202 196 LINE SMOOTH",
"287 178 OFFCURVE",
"309 164 OFFCURVE",
"309 120 CURVE SMOOTH",
"309 72 OFFCURVE",
"275 42 OFFCURVE",
"221 42 CURVE SMOOTH",
"163 42 OFFCURVE",
"132 87 OFFCURVE",
"126 166 CURVE",
"22 151 LINE",
"35 40 OFFCURVE",
"98 -10 OFFCURVE",
"220 -10 CURVE SMOOTH",
"346 -10 OFFCURVE",
"413 45 OFFCURVE",
"413 147 CURVE SMOOTH",
"413 240 OFFCURVE",
"374 283 OFFCURVE",
"279 304 CURVE SMOOTH",
"237 315 LINE SMOOTH",
"160 334 OFFCURVE",
"136 347 OFFCURVE",
"136 391 CURVE SMOOTH",
"136 438 OFFCURVE",
"168 469 OFFCURVE",
"218 469 CURVE SMOOTH",
"271 469 OFFCURVE",
"302 424 OFFCURVE",
"307 347 CURVE",
"411 360 LINE",
"396 470 OFFCURVE",
"336 521 OFFCURVE",
"220 521 CURVE SMOOTH"
);
}
);
width = 435;
}
);
unicode = 0053;
},
{
glyphname = T;
lastChange = "2014-10-27 12:10:32 +0000";
layers = (
{
anchors = (
{
name = bottom;
position = "{182, 0}";
},
{
name = center;
position = "{182, 255}";
},
{
name = top;
position = "{182, 511}";
}
);
hints = (
{
place = "{131.714286, 100.000000}";
},
{
horizontal = 1;
place = "{511.000000, -20.000000}";
},
{
horizontal = 1;
place = "{15.000000, 21.000000}";
}
);
layerId = "E777F328-EA17-4AE7-9EBA-8002E537BA4F";
name = Regular;
paths = (
{
closed = 1;
nodes = (
"-3 462 LINE",
"365 462 LINE",
"365 511 LINE",
"-3 511 LINE"
);
},
{
closed = 1;
nodes = (
"132 462 LINE",
"132 0 LINE",
"232 0 LINE",
"232 462 LINE"
);
}
);
width = 362;
},
{
anchors = (
{
name = bottom;
position = "{188, 0}";
},
{
name = center;
position = "{188, 255}";
},
{
name = top;
position = "{188, 511}";
}
);
hints = (
{
place = "{123.142857, 130.000000}";
},
{
horizontal = 1;
place = "{511.000000, -20.000000}";
},
{
horizontal = 1;
place = "{15.000000, 21.000000}";
}
);
layerId = "39185045-6A8C-415A-8312-7B8F11386A4C";
name = Bold;
paths = (
{
closed = 1;
nodes = (
"-8 448 LINE",
"384 448 LINE",
"384 511 LINE",
"-8 511 LINE"
);
},
{
closed = 1;
nodes = (
"123 448 LINE",
"123 0 LINE",
"253 0 LINE",
"253 448 LINE"
);
}
);
width = 375;
}
);
leftKerningGroup = T;
rightKerningGroup = T;
unicode = 0054;
},
{
glyphname = U;
lastChange = "2014-10-23 15:27:43 +0000";
layers = (
{
anchors = (
{
name = ogonek;
position = "{347, 7}";
},
{
name = top;
position = "{254, 511}";
}
);
hints = (
{
place = "{54.500000, 100.000000}";
},
{
place = "{338.750000, 100.000000}";
},
{
horizontal = 1;
place = "{-10.000000, 82.285714}";
},
{
horizontal = 1;
place = "{511.000000, -20.000000}";
}
);
layerId = "E777F328-EA17-4AE7-9EBA-8002E537BA4F";
name = Regular;
paths = (
{
closed = 1;
nodes = (
"379 511 LINE",
"379 169 LINE SMOOTH",
"379 73 OFFCURVE",
"320 39 OFFCURVE",
"258 39 CURVE SMOOTH",
"200 39 OFFCURVE",
"154 73 OFFCURVE",
"154 169 CURVE SMOOTH",
"154 511 LINE",
"54 511 LINE",
"54 169 LINE SMOOTH",
"54 28 OFFCURVE",
"153 -10 OFFCURVE",
"252 -10 CURVE SMOOTH",
"334 -10 OFFCURVE",
"438 29 OFFCURVE",
"438 169 CURVE SMOOTH",
"438 511 LINE"
);
}
);
width = 492;
},
{
anchors = (
{
name = ogonek;
position = "{370, 7}";
},
{
name = top;
position = "{255, 511}";
}
);
hints = (
{
place = "{47.000000, 130.000000}";
},
{
place = "{320.000000, 130.000000}";
},
{
horizontal = 1;
place = "{-10.000000, 105.857143}";
},
{
horizontal = 1;
place = "{511.000000, -20.000000}";
}
);
layerId = "39185045-6A8C-415A-8312-7B8F11386A4C";
name = Bold;
paths = (
{
closed = 1;
nodes = (
"372 511 LINE",
"372 169 LINE SMOOTH",
"372 84 OFFCURVE",
"323 54 OFFCURVE",
"264 54 CURVE SMOOTH",
"215 54 OFFCURVE",
"177 84 OFFCURVE",
"177 169 CURVE SMOOTH",
"177 511 LINE",
"47 511 LINE",
"47 169 LINE SMOOTH",
"47 28 OFFCURVE",
"150 -10 OFFCURVE",
"256 -10 CURVE SMOOTH",
"340 -10 OFFCURVE",
"450 25 OFFCURVE",
"450 169 CURVE SMOOTH",
"450 511 LINE"
);
}
);
width = 496;
}
);
unicode = 0055;
},
{
glyphname = V;
lastChange = "2014-10-27 12:07:52 +0000";
layers = (
{
hints = (
{
horizontal = 1;
place = "{15.000000, 21.000000}";
},
{
horizontal = 1;
place = "{511.000000, -20.000000}";
}
);
layerId = "E777F328-EA17-4AE7-9EBA-8002E537BA4F";
name = Regular;
paths = (
{
closed = 1;
nodes = (
"255 0 LINE",
"106 511 LINE",
"6 511 LINE",
"163 0 LINE"
);
},
{
closed = 1;
nodes = (
"280 0 LINE",
"437 511 LINE",
"377 511 LINE",
"228 0 LINE"
);
}
);
width = 442;
},
{
hints = (
{
horizontal = 1;
place = "{15.000000, 21.000000}";
},
{
horizontal = 1;
place = "{511.000000, -20.000000}";
}
);
layerId = "39185045-6A8C-415A-8312-7B8F11386A4C";
name = Bold;
paths = (
{
closed = 1;
nodes = (
"270 0 LINE",
"126 511 LINE",
"-4 511 LINE",
"150 0 LINE"
);
},
{
closed = 1;
nodes = (
"302 0 LINE",
"456 511 LINE",
"379 511 LINE",
"235 0 LINE"
);
}
);
width = 452;
}
);
unicode = 0056;
},
{
glyphname = W;
lastChange = "2014-10-27 12:08:11 +0000";
layers = (
{
anchors = (
{
name = top;
position = "{340, 511}";
}
);
hints = (
{
horizontal = 1;
place = "{15.000000, 21.000000}";
},
{
horizontal = 1;
place = "{511.000000, -20.000000}";
}
);
layerId = "E777F328-EA17-4AE7-9EBA-8002E537BA4F";
name = Regular;
paths = (
{
closed = 1;
nodes = (
"219 0 LINE",
"115 511 LINE",
"15 511 LINE",
"124 0 LINE"
);
},
{
closed = 1;
nodes = (
"219 0 LINE",
"351 511 LINE",
"294 511 LINE",
"164 0 LINE"
);
},
{
closed = 1;
nodes = (
"515 0 LINE",
"624 511 LINE",
"564 511 LINE",
"461 0 LINE"
);
},
{
closed = 1;
nodes = (
"515 0 LINE",
"386 511 LINE",
"294 511 LINE",
"426 0 LINE"
);
}
);
width = 639;
},
{
anchors = (
{
name = top;
position = "{360, 511}";
}
);
hints = (
{
horizontal = 1;
place = "{15.000000, 21.000000}";
},
{
horizontal = 1;
place = "{511.000000, -20.000000}";
}
);
layerId = "39185045-6A8C-415A-8312-7B8F11386A4C";
name = Bold;
paths = (
{
closed = 1;
nodes = (
"239 0 LINE",
"140 511 LINE",
"11 511 LINE",
"116 0 LINE"
);
},
{
closed = 1;
nodes = (
"239 0 LINE",
"375 511 LINE",
"300 511 LINE",
"169 0 LINE"
);
},
{
closed = 1;
nodes = (
"545 0 LINE",
"650 511 LINE",
"573 511 LINE",
"476 0 LINE"
);
},
{
closed = 1;
nodes = (
"545 0 LINE",
"419 511 LINE",
"300 511 LINE",
"429 0 LINE"
);
}
);
width = 661;
}
);
leftKerningGroup = W;
rightKerningGroup = W;
unicode = 0057;
},
{
glyphname = X;
lastChange = "2014-10-23 15:27:43 +0000";
layers = (
{
hints = (
{
horizontal = 1;
place = "{511.000000, -20.000000}";
},
{
horizontal = 1;
place = "{15.000000, 21.000000}";
}
);
layerId = "E777F328-EA17-4AE7-9EBA-8002E537BA4F";
name = Regular;
paths = (
{
closed = 1;
nodes = (
"376 511 LINE",
"211 274 LINE",
"247 239 LINE",
"436 511 LINE"
);
},
{
closed = 1;
nodes = (
"0 511 LINE",
"332 0 LINE",
"446 0 LINE",
"114 511 LINE"
);
},
{
closed = 1;
nodes = (
"63 0 LINE",
"232 249 LINE",
"196 281 LINE",
"3 0 LINE"
);
}
);
width = 435;
},
{
hints = (
{
horizontal = 1;
place = "{511.000000, -20.000000}";
},
{
horizontal = 1;
place = "{15.000000, 21.000000}";
}
);
layerId = "39185045-6A8C-415A-8312-7B8F11386A4C";
name = Bold;
paths = (
{
closed = 1;
nodes = (
"378 511 LINE",
"210 276 LINE",
"257 230 LINE",
"455 511 LINE"
);
},
{
closed = 1;
nodes = (
"-21 511 LINE",
"315 0 LINE",
"463 0 LINE",
"127 511 LINE"
);
},
{
closed = 1;
nodes = (
"66 0 LINE",
"233 239 LINE",
"184 281 LINE",
"-11 0 LINE"
);
}
);
width = 431;
}
);
unicode = 0058;
},
{
glyphname = Y;
lastChange = "2014-10-27 12:08:51 +0000";
layers = (
{
anchors = (
{
name = top;
position = "{203, 511}";
}
);
hints = (
{
place = "{152.500000, 100.000000}";
},
{
horizontal = 1;
place = "{176.321429, 30.178571}";
},
{
horizontal = 1;
place = "{15.000000, 21.000000}";
},
{
horizontal = 1;
place = "{511.000000, -20.000000}";
}
);
layerId = "E777F328-EA17-4AE7-9EBA-8002E537BA4F";
name = Regular;
paths = (
{
closed = 1;
nodes = (
"152 207 LINE",
"152 0 LINE",
"252 0 LINE",
"252 207 LINE"
);
},
{
closed = 1;
nodes = (
"245 176 LINE",
"94 511 LINE",
"-6 511 LINE",
"152 176 LINE"
);
},
{
closed = 1;
nodes = (
"252 176 LINE",
"409 511 LINE",
"351 511 LINE",
"194 176 LINE"
);
}
);
width = 404;
},
{
anchors = (
{
name = top;
position = "{210, 511}";
}
);
hints = (
{
place = "{145.000000, 130.000000}";
},
{
horizontal = 1;
place = "{174.714286, 39.285714}";
},
{
horizontal = 1;
place = "{15.000000, 21.000000}";
},
{
horizontal = 1;
place = "{511.000000, -20.000000}";
}
);
layerId = "39185045-6A8C-415A-8312-7B8F11386A4C";
name = Bold;
paths = (
{
closed = 1;
nodes = (
"145 214 LINE",
"145 0 LINE",
"275 0 LINE",
"275 214 LINE"
);
},
{
closed = 1;
nodes = (
"264 176 LINE",
"116 511 LINE",
"-13 511 LINE",
"145 175 LINE"
);
},
{
closed = 1;
nodes = (
"274 175 LINE",
"432 511 LINE",
"356 511 LINE",
"199 176 LINE"
);
}
);
width = 419;
}
);
leftKerningGroup = Y;
rightKerningGroup = Y;
unicode = 0059;
},
{
glyphname = Z;
lastChange = "2014-10-23 15:27:43 +0000";
layers = (
{
anchors = (
{
name = top;
position = "{197, 511}";
}
);
hints = (
{
horizontal = 1;
place = "{0.000000, 76.714286}";
},
{
horizontal = 1;
place = "{434.285714, 76.714286}";
}
);
layerId = "E777F328-EA17-4AE7-9EBA-8002E537BA4F";
name = Regular;
paths = (
{
closed = 1;
nodes = (
"29 462 LINE",
"297 462 LINE",
"277 472 LINE",
"15 63 LINE",
"15 0 LINE",
"380 0 LINE",
"380 49 LINE",
"91 49 LINE",
"111 39 LINE",
"373 448 LINE",
"373 511 LINE",
"29 511 LINE"
);
}
);
width = 395;
},
{
anchors = (
{
name = top;
position = "{201, 511}";
}
);
hints = (
{
horizontal = 1;
place = "{0.000000, 98.142857}";
},
{
horizontal = 1;
place = "{412.857143, 98.142857}";
}
);
layerId = "39185045-6A8C-415A-8312-7B8F11386A4C";
name = Bold;
paths = (
{
closed = 1;
nodes = (
"25 448 LINE",
"287 448 LINE",
"261 462 LINE",
"11 82 LINE",
"11 0 LINE",
"391 0 LINE",
"391 63 LINE",
"109 63 LINE",
"134 49 LINE",
"384 429 LINE",
"384 511 LINE",
"25 511 LINE"
);
}
);
width = 402;
}
);
unicode = 005A;
},
{
glyphname = a;
lastChange = "2014-10-23 15:27:43 +0000";
layers = (
{
anchors = (
{
name = ogonek;
position = "{409, 7}";
},
{
name = top;
position = "{220, 400}";
}
);
hints = (
{
horizontal = 1;
origin = "{0, 26}";
target = "{1, 10}";
},
{
horizontal = 1;
origin = "{0, 8}";
target = "{0, 15}";
},
{
origin = "{0, 23}";
target = "{1, 2}";
},
{
origin = "{1, 7}";
target = "{0, 4}";
},
{
origin = "{0, 11}";
target = "{0, 12}";
}
);
layerId = "E777F328-EA17-4AE7-9EBA-8002E537BA4F";
name = Regular;
paths = (
{
closed = 1;
nodes = (
"198 -10 OFFCURVE",
"246 10 OFFCURVE",
"281 54 CURVE",
"310 0 LINE",
"374 0 LINE",
"374 271 LINE SMOOTH",
"374 363 OFFCURVE",
"319 410 OFFCURVE",
"213 410 CURVE",
"99 410 OFFCURVE",
"61 360 OFFCURVE",
"54 275 CURVE",
"137 266 LINE",
"140 330 OFFCURVE",
"161 361 OFFCURVE",
"212 361 CURVE",
"254 361 OFFCURVE",
"275 332 OFFCURVE",
"275 276 CURVE SMOOTH",
"275 235 LINE",
"192 221 LINE SMOOTH",
"91 203 OFFCURVE",
"37 168 OFFCURVE",
"37 96 CURVE SMOOTH",
"37 31 OFFCURVE",
"79 -10 OFFCURVE",
"148 -10 CURVE SMOOTH"
);
},
{
closed = 1;
nodes = (
"148 42 OFFCURVE",
"127 65 OFFCURVE",
"127 102 CURVE SMOOTH",
"127 146 OFFCURVE",
"153 171 OFFCURVE",
"205 182 CURVE SMOOTH",
"275 195 LINE",
"275 90 LINE",
"256 67 OFFCURVE",
"221 42 OFFCURVE",
"184 42 CURVE SMOOTH"
);
}
);
width = 431;
},
{
anchors = (
{
name = ogonek;
position = "{416, 7}";
},
{
name = top;
position = "{225, 400}";
}
);
hints = (
{
horizontal = 1;
origin = "{0, 26}";
target = "{1, 10}";
},
{
horizontal = 1;
origin = "{0, 8}";
target = "{0, 15}";
},
{
origin = "{0, 23}";
target = "{1, 2}";
},
{
origin = "{1, 7}";
target = "{0, 4}";
},
{
origin = "{0, 11}";
target = "{0, 12}";
}
);
layerId = "39185045-6A8C-415A-8312-7B8F11386A4C";
name = Bold;
paths = (
{
closed = 1;
nodes = (
"192 -10 OFFCURVE",
"235 5 OFFCURVE",
"270 46 CURVE",
"305 0 LINE",
"391 0 LINE",
"391 271 LINE SMOOTH",
"391 361 OFFCURVE",
"329 410 OFFCURVE",
"217 410 CURVE",
"98 410 OFFCURVE",
"58 361 OFFCURVE",
"50 270 CURVE",
"157 258 LINE",
"160 321 OFFCURVE",
"180 346 OFFCURVE",
"216 346 CURVE",
"246 346 OFFCURVE",
"262 322 OFFCURVE",
"262 280 CURVE SMOOTH",
"262 239 LINE",
"197 227 LINE SMOOTH",
"91 208 OFFCURVE",
"32 176 OFFCURVE",
"32 99 CURVE SMOOTH",
"32 33 OFFCURVE",
"77 -10 OFFCURVE",
"147 -10 CURVE SMOOTH"
);
},
{
closed = 1;
nodes = (
"165 57 OFFCURVE",
"148 76 OFFCURVE",
"148 106 CURVE SMOOTH",
"148 146 OFFCURVE",
"170 169 OFFCURVE",
"216 178 CURVE SMOOTH",
"262 187 LINE",
"262 90 LINE",
"248 74 OFFCURVE",
"223 57 OFFCURVE",
"195 57 CURVE SMOOTH"
);
}
);
width = 441;
}
);
leftKerningGroup = a;
unicode = 0061;
},
{
glyphname = ae;
lastChange = "2014-10-23 15:27:43 +0000";
layers = (
{
anchors = (
{
name = bottom;
position = "{433, 0}";
},
{
name = ogonek;
position = "{589, 7}";
},
{
name = top;
position = "{433, 400}";
}
);
hints = (
{
horizontal = 1;
origin = "{0, 25}";
target = "{0, 6}";
},
{
horizontal = 1;
place = "{48.964286, 52.642857}";
},
{
horizontal = 1;
origin = "{4, 4}";
target = "{4, 3}";
},
{
horizontal = 1;
origin = "{3, 9}";
target = "{3, 2}";
},
{
horizontal = 1;
origin = "{0, 25}";
target = "{0, 6}";
},
{
origin = "{3, 12}";
target = "{3, 13}";
},
{
horizontal = 1;
place = "{3439.642857, 61.964286}";
},
{
origin = "{0, 15}";
target = "{4, 0}";
},
{
origin = "{0, 3}";
target = "{0, 2}";
},
{
origin = "{3, 12}";
target = "{3, 13}";
},
{
origin = "{0, 22}";
target = "{3, 5}";
},
{
origin = "{4, 4}";
target = "{0, 9}";
},
{
origin = "{0, 22}";
target = "{0, 9}";
}
);
layerId = "E777F328-EA17-4AE7-9EBA-8002E537BA4F";
name = Regular;
paths = (
{
closed = 1;
nodes = (
"559 -10 OFFCURVE",
"596 46 OFFCURVE",
"603 115 CURVE",
"522 118 LINE",
"520 75 OFFCURVE",
"501 39 OFFCURVE",
"443 39 CURVE SMOOTH",
"383 39 OFFCURVE",
"358 77 OFFCURVE",
"358 190 CURVE SMOOTH",
"358 312 OFFCURVE",
"376 361 OFFCURVE",
"436 361 CURVE SMOOTH",
"500 361 OFFCURVE",
"513 300 OFFCURVE",
"513 201 CURVE",
"608 201 LINE",
"608 306 OFFCURVE",
"579 410 OFFCURVE",
"437 410 CURVE SMOOTH",
"294 410 OFFCURVE",
"259 309 OFFCURVE",
"259 200 CURVE SMOOTH",
"259 64 OFFCURVE",
"306 -10 OFFCURVE",
"439 -10 CURVE SMOOTH"
);
},
{
closed = 1;
nodes = (
"148 42 OFFCURVE",
"127 65 OFFCURVE",
"127 102 CURVE SMOOTH",
"127 146 OFFCURVE",
"153 172 OFFCURVE",
"205 182 CURVE SMOOTH",
"275 194 LINE",
"275 90 LINE",
"256 67 OFFCURVE",
"221 42 OFFCURVE",
"184 42 CURVE SMOOTH"
);
},
{
closed = 1;
nodes = (
"202 -10 OFFCURVE",
"258 12 OFFCURVE",
"297 70 CURVE",
"353 70 LINE",
"353 271 LINE",
"275 270 LINE",
"275 235 LINE",
"192 221 LINE SMOOTH",
"91 203 OFFCURVE",
"37 168 OFFCURVE",
"37 96 CURVE SMOOTH",
"37 31 OFFCURVE",
"79 -10 OFFCURVE",
"148 -10 CURVE SMOOTH"
);
},
{
closed = 1;
nodes = (
"140 330 OFFCURVE",
"162 361 OFFCURVE",
"213 361 CURVE",
"251 361 OFFCURVE",
"272 333 OFFCURVE",
"275 282 CURVE",
"359 328 LINE",
"335 384 OFFCURVE",
"287 410 OFFCURVE",
"214 410 CURVE",
"99 410 OFFCURVE",
"61 360 OFFCURVE",
"54 275 CURVE",
"137 266 LINE"
);
},
{
closed = 1;
nodes = (
"608 190 LINE",
"608 201 LINE",
"604 239 LINE",
"297 239 LINE",
"297 190 LINE"
);
}
);
width = 644;
},
{
anchors = (
{
name = bottom;
position = "{425, 0}";
},
{
name = ogonek;
position = "{578, 7}";
},
{
name = top;
position = "{425, 400}";
}
);
hints = (
{
horizontal = 1;
origin = "{0, 25}";
target = "{0, 6}";
},
{
horizontal = 1;
place = "{29.142857, 79.428571}";
},
{
horizontal = 1;
origin = "{4, 4}";
target = "{4, 3}";
},
{
horizontal = 1;
origin = "{3, 9}";
target = "{3, 2}";
},
{
horizontal = 1;
origin = "{0, 25}";
target = "{0, 6}";
},
{
origin = "{3, 12}";
target = "{3, 13}";
},
{
horizontal = 1;
place = "{-12283.571429, 57.142857}";
},
{
origin = "{0, 15}";
target = "{4, 0}";
},
{
origin = "{0, 3}";
target = "{0, 2}";
},
{
origin = "{3, 12}";
target = "{3, 13}";
},
{
origin = "{0, 22}";
target = "{3, 5}";
},
{
origin = "{4, 4}";
target = "{0, 9}";
},
{
origin = "{0, 22}";
target = "{0, 9}";
}
);
layerId = "39185045-6A8C-415A-8312-7B8F11386A4C";
name = Bold;
paths = (
{
closed = 1;
nodes = (
"558 -10 OFFCURVE",
"596 44 OFFCURVE",
"603 114 CURVE",
"497 117 LINE",
"497 84 OFFCURVE",
"483 54 OFFCURVE",
"440 54 CURVE SMOOTH",
"398 54 OFFCURVE",
"374 78 OFFCURVE",
"374 184 CURVE SMOOTH",
"374 323 OFFCURVE",
"393 346 OFFCURVE",
"430 346 CURVE SMOOTH",
"472 346 OFFCURVE",
"484 298 OFFCURVE",
"484 196 CURVE",
"607 196 LINE",
"607 302 OFFCURVE",
"579 410 OFFCURVE",
"430 410 CURVE SMOOTH",
"281 410 OFFCURVE",
"245 309 OFFCURVE",
"245 200 CURVE SMOOTH",
"245 64 OFFCURVE",
"295 -10 OFFCURVE",
"433 -10 CURVE SMOOTH"
);
},
{
closed = 1;
nodes = (
"165 57 OFFCURVE",
"148 76 OFFCURVE",
"148 106 CURVE SMOOTH",
"148 146 OFFCURVE",
"170 169 OFFCURVE",
"216 178 CURVE SMOOTH",
"262 187 LINE",
"262 90 LINE",
"247 74 OFFCURVE",
"223 57 OFFCURVE",
"195 57 CURVE SMOOTH"
);
},
{
closed = 1;
nodes = (
"195 -10 OFFCURVE",
"248 4 OFFCURVE",
"288 63 CURVE",
"367 63 LINE",
"367 271 LINE",
"262 270 LINE",
"262 239 LINE",
"197 227 LINE SMOOTH",
"91 208 OFFCURVE",
"32 176 OFFCURVE",
"32 99 CURVE SMOOTH",
"32 33 OFFCURVE",
"77 -10 OFFCURVE",
"147 -10 CURVE SMOOTH"
);
},
{
closed = 1;
nodes = (
"160 321 OFFCURVE",
"180 346 OFFCURVE",
"216 346 CURVE",
"243 346 OFFCURVE",
"259 321 OFFCURVE",
"262 280 CURVE",
"372 331 LINE",
"346 384 OFFCURVE",
"294 410 OFFCURVE",
"217 410 CURVE",
"98 410 OFFCURVE",
"57 361 OFFCURVE",
"50 270 CURVE",
"157 258 LINE"
);
},
{
closed = 1;
nodes = (
"607 181 LINE",
"607 196 LINE",
"603 245 LINE",
"291 245 LINE",
"291 181 LINE"
);
}
);
width = 639;
}
);
leftKerningGroup = a;
leftMetricsKey = "=a";
rightMetricsKey = "=e";
unicode = 00E6;
},
{
glyphname = b;
lastChange = "2014-10-23 15:27:43 +0000";
layers = (
{
hints = (
{
horizontal = 1;
origin = "{1, 16}";
target = "{1, 9}";
},
{
horizontal = 1;
origin = "{1, 22}";
target = "{1, 3}";
},
{
origin = "{0, 3}";
target = "{0, 0}";
},
{
origin = "{1, 6}";
target = "{1, 19}";
}
);
layerId = "E777F328-EA17-4AE7-9EBA-8002E537BA4F";
name = Regular;
paths = (
{
closed = 1;
nodes = (
"163 59 LINE",
"163 539 LINE",
"64 526 LINE",
"64 0 LINE",
"109 0 LINE"
);
},
{
closed = 1;
nodes = (
"112 312 LINE",
"147 345 OFFCURVE",
"185 361 OFFCURVE",
"225 361 CURVE SMOOTH",
"293 361 OFFCURVE",
"317 299 OFFCURVE",
"317 200 CURVE SMOOTH",
"317 109 OFFCURVE",
"294 46 OFFCURVE",
"225 46 CURVE SMOOTH",
"184 46 OFFCURVE",
"147 67 OFFCURVE",
"112 121 CURVE",
"100 74 LINE",
"127 36 OFFCURVE",
"178 -10 OFFCURVE",
"252 -10 CURVE SMOOTH",
"386 -10 OFFCURVE",
"416 92 OFFCURVE",
"416 200 CURVE SMOOTH",
"416 309 OFFCURVE",
"386 410 OFFCURVE",
"252 410 CURVE SMOOTH",
"193 410 OFFCURVE",
"138 381 OFFCURVE",
"100 351 CURVE"
);
}
);
width = 452;
},
{
hints = (
{
horizontal = 1;
origin = "{1, 16}";
target = "{1, 9}";
},
{
horizontal = 1;
origin = "{1, 22}";
target = "{1, 3}";
},
{
origin = "{0, 3}";
target = "{0, 0}";
},
{
origin = "{1, 6}";
target = "{1, 19}";
}
);
layerId = "39185045-6A8C-415A-8312-7B8F11386A4C";
name = Bold;
paths = (
{
closed = 1;
nodes = (
"186 59 LINE",
"186 539 LINE",
"57 522 LINE",
"57 0 LINE",
"117 0 LINE"
);
},
{
closed = 1;
nodes = (
"118 304 LINE",
"151 330 OFFCURVE",
"185 346 OFFCURVE",
"221 346 CURVE SMOOTH",
"281 346 OFFCURVE",
"300 294 OFFCURVE",
"300 200 CURVE SMOOTH",
"300 118 OFFCURVE",
"280 63 OFFCURVE",
"219 63 CURVE SMOOTH",
"182 63 OFFCURVE",
"148 88 OFFCURVE",
"116 141 CURVE",
"104 76 LINE",
"132 37 OFFCURVE",
"182 -10 OFFCURVE",
"259 -10 CURVE SMOOTH",
"398 -10 OFFCURVE",
"429 92 OFFCURVE",
"429 200 CURVE SMOOTH",
"429 309 OFFCURVE",
"398 410 OFFCURVE",
"259 410 CURVE SMOOTH",
"201 410 OFFCURVE",
"143 380 OFFCURVE",
"104 355 CURVE"
);
}
);
width = 461;
}
);
rightMetricsKey = "=o";
unicode = 0062;
},
{
glyphname = c;
lastChange = "2014-10-23 15:27:43 +0000";
layers = (
{
anchors = (
{
name = bottom;
position = "{199, 0}";
},
{
name = top;
position = "{200, 400}";
}
);
hints = (
{
horizontal = 1;
origin = "{0, 15}";
target = "{0, 22}";
},
{
horizontal = 1;
origin = "{0, 9}";
target = "{0, 2}";
},
{
origin = "{0, 12}";
target = "{0, 25}";
},
{
origin = "{0, 19}";
target = "{0, 18}";
}
);
layerId = "E777F328-EA17-4AE7-9EBA-8002E537BA4F";
name = Regular;
paths = (
{
closed = 1;
nodes = (
"135 307 OFFCURVE",
"152 361 OFFCURVE",
"214 361 CURVE SMOOTH",
"263 361 OFFCURVE",
"284 328 OFFCURVE",
"286 259 CURVE",
"369 269 LINE",
"363 357 OFFCURVE",
"326 410 OFFCURVE",
"210 410 CURVE SMOOTH",
"64 410 OFFCURVE",
"36 312 OFFCURVE",
"36 200 CURVE SMOOTH",
"36 92 OFFCURVE",
"64 -10 OFFCURVE",
"210 -10 CURVE SMOOTH",
"327 -10 OFFCURVE",
"364 46 OFFCURVE",
"370 138 CURVE",
"286 142 LINE",
"284 73 OFFCURVE",
"263 39 OFFCURVE",
"214 39 CURVE SMOOTH",
"152 39 OFFCURVE",
"135 94 OFFCURVE",
"135 200 CURVE SMOOTH"
);
}
);
width = 406;
},
{
anchors = (
{
name = bottom;
position = "{203, 0}";
},
{
name = top;
position = "{201, 400}";
}
);
hints = (
{
horizontal = 1;
origin = "{0, 15}";
target = "{0, 22}";
},
{
horizontal = 1;
origin = "{0, 9}";
target = "{0, 2}";
},
{
origin = "{0, 12}";
target = "{0, 25}";
},
{
origin = "{0, 19}";
target = "{0, 18}";
}
);
layerId = "39185045-6A8C-415A-8312-7B8F11386A4C";
name = Bold;
paths = (
{
closed = 1;
nodes = (
"161 317 OFFCURVE",
"178 346 OFFCURVE",
"219 346 CURVE SMOOTH",
"251 346 OFFCURVE",
"270 319 OFFCURVE",
"272 248 CURVE",
"379 260 LINE",
"373 357 OFFCURVE",
"333 410 OFFCURVE",
"211 410 CURVE SMOOTH",
"59 410 OFFCURVE",
"32 313 OFFCURVE",
"32 200 CURVE SMOOTH",
"32 92 OFFCURVE",
"59 -10 OFFCURVE",
"211 -10 CURVE SMOOTH",
"335 -10 OFFCURVE",
"374 47 OFFCURVE",
"380 149 CURVE",
"272 153 LINE",
"270 83 OFFCURVE",
"251 54 OFFCURVE",
"219 54 CURVE SMOOTH",
"178 54 OFFCURVE",
"161 84 OFFCURVE",
"161 200 CURVE SMOOTH"
);
}
);
width = 412;
}
);
leftKerningGroup = c;
leftMetricsKey = "=o";
rightMetricsKey = "=o";
unicode = 0063;
},
{
glyphname = d;
lastChange = "2014-10-23 15:27:43 +0000";
layers = (
{
anchors = (
{
name = center;
position = "{232, 200}";
},
{
name = topright;
position = "{438, 400}";
}
);
hints = (
{
place = "{23.250000, 99.000000}";
},
{
place = "{276.285714, 99.000000}";
},
{
horizontal = 1;
place = "{-10.000000, 75.821429}";
},
{
horizontal = 1;
place = "{334.285714, 75.714286}";
},
{
horizontal = 1;
place = "{15.000000, 21.000000}";
},
{
horizontal = 1;
place = "{532.750000, -20.000000}";
}
);
layerId = "E777F328-EA17-4AE7-9EBA-8002E537BA4F";
name = Regular;
paths = (
{
closed = 1;
nodes = (
"325 0 LINE",
"388 0 LINE",
"388 539 LINE",
"289 526 LINE",
"289 60 LINE"
);
},
{
closed = 1;
nodes = (
"329 174 LINE",
"307 84 OFFCURVE",
"270 39 OFFCURVE",
"215 39 CURVE SMOOTH",
"162 39 OFFCURVE",
"135 91 OFFCURVE",
"135 194 CURVE SMOOTH",
"135 301 OFFCURVE",
"166 355 OFFCURVE",
"227 355 CURVE SMOOTH",
"272 355 OFFCURVE",
"308 330 OFFCURVE",
"341 279 CURVE",
"353 327 LINE",
"315 379 OFFCURVE",
"258 410 OFFCURVE",
"200 410 CURVE SMOOTH",
"91 410 OFFCURVE",
"36 338 OFFCURVE",
"36 194 CURVE SMOOTH",
"36 59 OFFCURVE",
"87 -10 OFFCURVE",
"187 -10 CURVE SMOOTH",
"255 -10 OFFCURVE",
"309 33 OFFCURVE",
"341 110 CURVE"
);
}
);
width = 452;
},
{
anchors = (
{
name = center;
position = "{240, 200}";
},
{
name = topright;
position = "{447, 400}";
}
);
hints = (
{
place = "{12.000000, 129.000000}";
},
{
place = "{254.857143, 129.000000}";
},
{
horizontal = 1;
place = "{-10.000000, 96.714286}";
},
{
horizontal = 1;
place = "{312.857143, 97.142857}";
},
{
horizontal = 1;
place = "{15.000000, 21.000000}";
},
{
horizontal = 1;
place = "{529.000000, -20.000000}";
}
);
layerId = "39185045-6A8C-415A-8312-7B8F11386A4C";
name = Bold;
paths = (
{
closed = 1;
nodes = (
"316 0 LINE",
"404 0 LINE",
"404 539 LINE",
"275 522 LINE",
"275 55 LINE"
);
},
{
closed = 1;
nodes = (
"324 208 LINE",
"305 104 OFFCURVE",
"272 54 OFFCURVE",
"220 54 CURVE SMOOTH",
"179 54 OFFCURVE",
"161 97 OFFCURVE",
"161 190 CURVE SMOOTH",
"161 290 OFFCURVE",
"187 337 OFFCURVE",
"242 337 CURVE SMOOTH",
"279 337 OFFCURVE",
"314 311 OFFCURVE",
"346 259 CURVE",
"358 326 LINE",
"316 379 OFFCURVE",
"260 410 OFFCURVE",
"202 410 CURVE SMOOTH",
"88 410 OFFCURVE",
"32 337 OFFCURVE",
"32 190 CURVE SMOOTH",
"32 58 OFFCURVE",
"83 -10 OFFCURVE",
"182 -10 CURVE SMOOTH",
"247 -10 OFFCURVE",
"303 36 OFFCURVE",
"338 116 CURVE"
);
}
);
width = 461;
}
);
leftKerningGroup = c;
leftMetricsKey = "=o";
unicode = 0064;
},
{
glyphname = eth;
lastChange = "2014-10-23 15:27:43 +0000";
layers = (
{
components = (
{
name = eslash;
transform = "{1, 0, 0, 1, 179, 189}";
}
);
hints = (
{
place = "{23.250000, 99.000000}";
},
{
place = "{294.142857, 96.107143}";
},
{
horizontal = 1;
place = "{-10.000000, 72.250000}";
},
{
horizontal = 1;
place = "{281.750000, 72.250000}";
},
{
horizontal = 1;
place = "{535.000000, -20.000000}";
}
);
layerId = "E777F328-EA17-4AE7-9EBA-8002E537BA4F";
name = Regular;
paths = (
{
closed = 1;
nodes = (
"361 -10 OFFCURVE",
"403 101 OFFCURVE",
"403 185 CURVE SMOOTH",
"403 391 OFFCURVE",
"302 500 OFFCURVE",
"240 556 CURVE",
"194 505 LINE",
"246 456 OFFCURVE",
"291 399 OFFCURVE",
"317 310 CURVE",
"295 343 OFFCURVE",
"254 354 OFFCURVE",
"220 354 CURVE SMOOTH",
"79 354 OFFCURVE",
"36 257 OFFCURVE",
"36 172 CURVE SMOOTH",
"36 87 OFFCURVE",
"78 -10 OFFCURVE",
"220 -10 CURVE SMOOTH"
);
},
{
closed = 1;
nodes = (
"156 30 OFFCURVE",
"135 98 OFFCURVE",
"135 172 CURVE SMOOTH",
"135 247 OFFCURVE",
"156 314 OFFCURVE",
"222 314 CURVE SMOOTH",
"297 314 OFFCURVE",
"311 240 OFFCURVE",
"311 172 CURVE SMOOTH",
"311 98 OFFCURVE",
"290 30 OFFCURVE",
"222 30 CURVE SMOOTH"
);
}
);
width = 446;
},
{
components = (
{
name = eslash;
transform = "{1, 0, 0, 1, 179, 189}";
}
);
hints = (
{
place = "{12.000000, 129.000000}";
},
{
place = "{268.428571, 125.571429}";
},
{
horizontal = 1;
place = "{-10.000000, 91.000000}";
},
{
horizontal = 1;
place = "{263.000000, 91.000000}";
},
{
horizontal = 1;
place = "{535.000000, -20.000000}";
}
);
layerId = "39185045-6A8C-415A-8312-7B8F11386A4C";
name = Bold;
paths = (
{
closed = 1;
nodes = (
"371 -10 OFFCURVE",
"414 107 OFFCURVE",
"414 189 CURVE SMOOTH",
"414 401 OFFCURVE",
"305 500 OFFCURVE",
"243 556 CURVE",
"182 489 LINE",
"233 444 OFFCURVE",
"276 398 OFFCURVE",
"304 328 CURVE",
"286 347 OFFCURVE",
"250 354 OFFCURVE",
"223 354 CURVE SMOOTH",
"78 354 OFFCURVE",
"32 257 OFFCURVE",
"32 172 CURVE SMOOTH",
"32 87 OFFCURVE",
"75 -10 OFFCURVE",
"223 -10 CURVE SMOOTH"
);
},
{
closed = 1;
nodes = (
"179 41 OFFCURVE",
"161 95 OFFCURVE",
"161 172 CURVE SMOOTH",
"161 249 OFFCURVE",
"180 303 OFFCURVE",
"226 303 CURVE SMOOTH",
"288 303 OFFCURVE",
"293 239 OFFCURVE",
"293 172 CURVE SMOOTH",
"293 95 OFFCURVE",
"276 41 OFFCURVE",
"226 41 CURVE SMOOTH"
);
}
);
width = 453;
}
);
leftMetricsKey = "=o";
rightMetricsKey = "=o+10";
unicode = 00F0;
},
{
glyphname = e;
lastChange = "2014-10-23 15:27:43 +0000";
layers = (
{
anchors = (
{
name = bottom;
position = "{208, 0}";
},
{
name = ogonek;
position = "{314, 7}";
},
{
name = top;
position = "{208, 400}";
}
);
hints = (
{
horizontal = 1;
origin = "{1, 25}";
target = "{1, 6}";
},
{
horizontal = 1;
origin = "{0, 0}";
target = "{0, 4}";
},
{
horizontal = 1;
origin = "{1, 19}";
target = "{1, 12}";
},
{
origin = "{0, 0}";
target = "{1, 9}";
},
{
origin = "{1, 15}";
target = "{0, 1}";
},
{
origin = "{1, 3}";
target = "{1, 2}";
}
);
layerId = "E777F328-EA17-4AE7-9EBA-8002E537BA4F";
name = Regular;
paths = (
{
closed = 1;
nodes = (
"74 190 LINE",
"385 190 LINE",
"385 201 LINE",
"381 239 LINE",
"74 239 LINE"
);
},
{
closed = 1;
nodes = (
"336 -10 OFFCURVE",
"373 46 OFFCURVE",
"380 115 CURVE",
"298 118 LINE",
"296 75 OFFCURVE",
"278 39 OFFCURVE",
"220 39 CURVE SMOOTH",
"160 39 OFFCURVE",
"135 77 OFFCURVE",
"135 190 CURVE SMOOTH",
"135 312 OFFCURVE",
"153 361 OFFCURVE",
"213 361 CURVE SMOOTH",
"277 361 OFFCURVE",
"290 300 OFFCURVE",
"290 201 CURVE",
"385 201 LINE",
"385 306 OFFCURVE",
"356 410 OFFCURVE",
"214 410 CURVE SMOOTH",
"70 410 OFFCURVE",
"36 309 OFFCURVE",
"36 200 CURVE SMOOTH",
"36 64 OFFCURVE",
"83 -10 OFFCURVE",
"216 -10 CURVE SMOOTH"
);
}
);
width = 421;
},
{
anchors = (
{
name = bottom;
position = "{211, 0}";
},
{
name = ogonek;
position = "{322, 7}";
},
{
name = top;
position = "{211, 400}";
}
);
hints = (
{
horizontal = 1;
origin = "{1, 25}";
target = "{1, 6}";
},
{
horizontal = 1;
origin = "{0, 0}";
target = "{0, 4}";
},
{
horizontal = 1;
origin = "{1, 19}";
target = "{1, 12}";
},
{
origin = "{0, 0}";
target = "{1, 9}";
},
{
origin = "{1, 15}";
target = "{0, 1}";
},
{
origin = "{1, 3}";
target = "{1, 2}";
}
);
layerId = "39185045-6A8C-415A-8312-7B8F11386A4C";
name = Bold;
paths = (
{
closed = 1;
nodes = (
"78 181 LINE",
"394 181 LINE",
"394 196 LINE",
"391 245 LINE",
"78 245 LINE"
);
},
{
closed = 1;
nodes = (
"345 -10 OFFCURVE",
"383 44 OFFCURVE",
"390 114 CURVE",
"283 117 LINE",
"282 84 OFFCURVE",
"270 54 OFFCURVE",
"227 54 CURVE SMOOTH",
"185 54 OFFCURVE",
"161 78 OFFCURVE",
"161 184 CURVE SMOOTH",
"161 323 OFFCURVE",
"180 346 OFFCURVE",
"217 346 CURVE SMOOTH",
"259 346 OFFCURVE",
"271 298 OFFCURVE",
"271 196 CURVE",
"394 196 LINE",
"394 302 OFFCURVE",
"366 410 OFFCURVE",
"217 410 CURVE SMOOTH",
"67 410 OFFCURVE",
"32 309 OFFCURVE",
"32 200 CURVE SMOOTH",
"32 64 OFFCURVE",
"81 -10 OFFCURVE",
"220 -10 CURVE SMOOTH"
);
}
);
width = 426;
}
);
leftKerningGroup = c;
leftMetricsKey = "=o";
rightMetricsKey = "=o";
unicode = 0065;
},
{
glyphname = f;
lastChange = "2014-10-23 15:27:43 +0000";
layers = (
{
hints = (
{
place = "{72.142857, 99.000000}";
},
{
horizontal = 1;
place = "{336.428571, 63.571429}";
},
{
horizontal = 1;
place = "{464.714286, 78.285714}";
},
{
horizontal = 1;
place = "{15.000000, 21.000000}";
}
);
layerId = "E777F328-EA17-4AE7-9EBA-8002E537BA4F";
name = Regular;
paths = (
{
closed = 1;
nodes = (
"8 350 LINE",
"252 350 LINE",
"252 400 LINE",
"8 400 LINE"
);
},
{
closed = 1;
nodes = (
"312 521 LINE",
"278 539 OFFCURVE",
"245 550 OFFCURVE",
"209 550 CURVE SMOOTH",
"119 550 OFFCURVE",
"72 504 OFFCURVE",
"72 415 CURVE SMOOTH",
"72 0 LINE",
"171 0 LINE",
"171 439 LINE SMOOTH",
"171 469 OFFCURVE",
"187 492 OFFCURVE",
"217 492 CURVE SMOOTH",
"242 492 OFFCURVE",
"265 474 OFFCURVE",
"281 450 CURVE"
);
}
);
width = 247;
},
{
hints = (
{
place = "{61.428571, 129.000000}";
},
{
horizontal = 1;
place = "{319.285714, 80.714286}";
},
{
horizontal = 1;
place = "{441.142857, 101.857143}";
},
{
horizontal = 1;
place = "{15.000000, 21.000000}";
}
);
layerId = "39185045-6A8C-415A-8312-7B8F11386A4C";
name = Bold;
paths = (
{
closed = 1;
nodes = (
"1 335 LINE",
"264 335 LINE",
"264 400 LINE",
"1 400 LINE"
);
},
{
closed = 1;
nodes = (
"326 525 LINE",
"288 542 OFFCURVE",
"251 550 OFFCURVE",
"218 550 CURVE SMOOTH",
"109 550 OFFCURVE",
"61 498 OFFCURVE",
"61 402 CURVE SMOOTH",
"61 0 LINE",
"190 0 LINE",
"190 429 LINE SMOOTH",
"190 452 OFFCURVE",
"202 473 OFFCURVE",
"229 473 CURVE SMOOTH",
"252 473 OFFCURVE",
"273 458 OFFCURVE",
"289 433 CURVE"
);
}
);
width = 256;
}
);
unicode = 0066;
},
{
glyphname = g;
lastChange = "2014-10-23 15:27:43 +0000";
layers = (
{
anchors = (
{
name = top;
position = "{220, 400}";
}
);
hints = (
{
place = "{14.500000, 87.071429}";
},
{
place = "{42.500000, 94.428571}";
},
{
place = "{268.321429, 94.428571}";
},
{
place = "{292.535714, 97.464286}";
},
{
horizontal = 1;
place = "{-150.035714, 74.035714}";
},
{
horizontal = 1;
place = "{0.000000, 70.464286}";
},
{
horizontal = 1;
place = "{116.500000, 65.571429}";
},
{
horizontal = 1;
place = "{345.321429, 55.571429}";
},
{
horizontal = 1;
place = "{345.321429, 65.571429}";
}
);
layerId = "E777F328-EA17-4AE7-9EBA-8002E537BA4F";
name = Regular;
paths = (
{
closed = 1;
nodes = (
"304 -169 OFFCURVE",
"400 -147 OFFCURVE",
"400 -55 CURVE SMOOTH",
"400 2 OFFCURVE",
"356 47 OFFCURVE",
"278 47 CURVE SMOOTH",
"124 47 LINE SMOOTH",
"102 47 OFFCURVE",
"92 62 OFFCURVE",
"92 75 CURVE SMOOTH",
"92 85 OFFCURVE",
"97 98 OFFCURVE",
"111 111 CURVE SMOOTH",
"155 153 LINE",
"113 180 LINE",
"67 135 LINE SMOOTH",
"40 109 OFFCURVE",
"35 89 OFFCURVE",
"35 67 CURVE SMOOTH",
"35 35 OFFCURVE",
"55 13 OFFCURVE",
"83 4 CURVE",
"52 -8 OFFCURVE",
"28 -39 OFFCURVE",
"28 -69 CURVE SMOOTH",
"28 -146 OFFCURVE",
"104 -169 OFFCURVE",
"206 -169 CURVE SMOOTH"
);
},
{
closed = 1;
nodes = (
"114 -103 OFFCURVE",
"114 -65 CURVE SMOOTH",
"114 -39 OFFCURVE",
"127 -15 OFFCURVE",
"145 0 CURVE",
"247 0 LINE SMOOTH",
"287 0 OFFCURVE",
"315 -21 OFFCURVE",
"315 -55 CURVE SMOOTH",
"315 -102 OFFCURVE",
"285 -120 OFFCURVE",
"206 -120 CURVE SMOOTH",
"146 -120 OFFCURVE"
);
},
{
closed = 1;
nodes = (
"346 111 OFFCURVE",
"376 194 OFFCURVE",
"376 263 CURVE SMOOTH",
"376 331 OFFCURVE",
"346 410 OFFCURVE",
"215 410 CURVE SMOOTH",
"85 410 OFFCURVE",
"55 331 OFFCURVE",
"55 263 CURVE SMOOTH",
"55 194 OFFCURVE",
"85 118 OFFCURVE",
"215 115 CURVE SMOOTH"
);
},
{
closed = 1;
nodes = (
"150 198 OFFCURVE",
"150 263 CURVE SMOOTH",
"150 327 OFFCURVE",
"166 362 OFFCURVE",
"215 362 CURVE SMOOTH",
"266 362 OFFCURVE",
"282 327 OFFCURVE",
"282 263 CURVE SMOOTH",
"282 198 OFFCURVE",
"266 163 OFFCURVE",
"215 163 CURVE SMOOTH",
"166 163 OFFCURVE"
);
},
{
closed = 1;
nodes = (
"403 360 LINE",
"403 400 LINE",
"272 400 LINE",
"273 360 LINE"
);
}
);
width = 432;
},
{
anchors = (
{
name = top;
position = "{225, 400}";
}
);
hints = (
{
place = "{7.000000, 111.714286}";
},
{
place = "{35.000000, 122.285714}";
},
{
place = "{251.714286, 122.285714}";
},
{
place = "{274.857143, 130.142857}";
},
{
horizontal = 1;
place = "{-139.857143, 93.857143}";
},
{
horizontal = 1;
place = "{0.000000, 88.142857}";
},
{
horizontal = 1;
place = "{109.000000, 82.714286}";
},
{
horizontal = 1;
place = "{328.714286, 72.714286}";
},
{
horizontal = 1;
place = "{328.714286, 82.714286}";
}
);
layerId = "39185045-6A8C-415A-8312-7B8F11386A4C";
name = Bold;
paths = (
{
closed = 1;
nodes = (
"315 -169 OFFCURVE",
"415 -141 OFFCURVE",
"415 -51 CURVE SMOOTH",
"415 13 OFFCURVE",
"366 62 OFFCURVE",
"280 62 CURVE SMOOTH",
"129 62 LINE SMOOTH",
"113 62 OFFCURVE",
"106 71 OFFCURVE",
"106 80 CURVE SMOOTH",
"106 86 OFFCURVE",
"108 96 OFFCURVE",
"123 109 CURVE SMOOTH",
"172 157 LINE",
"117 187 LINE",
"67 139 LINE SMOOTH",
"37 110 OFFCURVE",
"33 93 OFFCURVE",
"33 68 CURVE SMOOTH",
"33 31 OFFCURVE",
"57 10 OFFCURVE",
"83 3 CURVE",
"52 -4 OFFCURVE",
"24 -37 OFFCURVE",
"24 -68 CURVE SMOOTH",
"24 -144 OFFCURVE",
"104 -169 OFFCURVE",
"211 -169 CURVE SMOOTH"
);
},
{
closed = 1;
nodes = (
"136 -86 OFFCURVE",
"136 -61 CURVE SMOOTH",
"136 -37 OFFCURVE",
"149 -15 OFFCURVE",
"165 0 CURVE",
"239 0 LINE SMOOTH",
"284 0 OFFCURVE",
"303 -25 OFFCURVE",
"303 -51 CURVE SMOOTH",
"303 -84 OFFCURVE",
"284 -105 OFFCURVE",
"211 -105 CURVE SMOOTH",
"156 -105 OFFCURVE"
);
},
{
closed = 1;
nodes = (
"359 109 OFFCURVE",
"390 194 OFFCURVE",
"390 263 CURVE SMOOTH",
"390 331 OFFCURVE",
"359 410 OFFCURVE",
"220 410 CURVE SMOOTH",
"83 410 OFFCURVE",
"53 331 OFFCURVE",
"53 263 CURVE SMOOTH",
"53 194 OFFCURVE",
"83 119 OFFCURVE",
"220 115 CURVE SMOOTH"
);
},
{
closed = 1;
nodes = (
"176 198 OFFCURVE",
"176 263 CURVE SMOOTH",
"176 327 OFFCURVE",
"189 347 OFFCURVE",
"221 347 CURVE SMOOTH",
"254 347 OFFCURVE",
"268 327 OFFCURVE",
"268 263 CURVE SMOOTH",
"268 198 OFFCURVE",
"254 178 OFFCURVE",
"221 178 CURVE SMOOTH",
"189 178 OFFCURVE"
);
},
{
closed = 1;
nodes = (
"422 351 LINE",
"422 400 LINE",
"277 400 LINE",
"274 351 LINE"
);
}
);
width = 443;
}
);
leftKerningGroup = c;
unicode = 0067;
},
{
glyphname = h;
lastChange = "2014-10-23 15:27:43 +0000";
layers = (
{
anchors = (
{
name = center;
position = "{232, 200}";
},
{
name = top;
position = "{115, 511}";
}
);
hints = (
{
place = "{64.500000, 99.000000}";
},
{
place = "{308.428571, 99.000000}";
},
{
horizontal = 1;
place = "{334.178571, 75.821429}";
},
{
horizontal = 1;
place = "{532.750000, -20.000000}";
},
{
horizontal = 1;
place = "{15.000000, 21.000000}";
}
);
layerId = "E777F328-EA17-4AE7-9EBA-8002E537BA4F";
name = Regular;
paths = (
{
closed = 1;
nodes = (
"163 539 LINE",
"64 526 LINE SMOOTH",
"64 0 LINE",
"163 0 LINE"
);
},
{
closed = 1;
nodes = (
"126 290 LINE",
"155 319 OFFCURVE",
"195 354 OFFCURVE",
"251 354 CURVE SMOOTH",
"294 354 OFFCURVE",
"309 327 OFFCURVE",
"309 272 CURVE SMOOTH",
"309 0 LINE",
"408 0 LINE",
"408 282 LINE SMOOTH",
"408 357 OFFCURVE",
"371 410 OFFCURVE",
"279 410 CURVE SMOOTH",
"209 410 OFFCURVE",
"141 364 OFFCURVE",
"112 330 CURVE"
);
}
);
width = 465;
},
{
anchors = (
{
name = center;
position = "{235, 200}";
},
{
name = top;
position = "{122, 511}";
}
);
hints = (
{
place = "{57.000000, 129.000000}";
},
{
place = "{291.285714, 129.000000}";
},
{
horizontal = 1;
place = "{313.285714, 96.714286}";
},
{
horizontal = 1;
place = "{529.000000, -20.000000}";
},
{
horizontal = 1;
place = "{15.000000, 21.000000}";
}
);
layerId = "39185045-6A8C-415A-8312-7B8F11386A4C";
name = Bold;
paths = (
{
closed = 1;
nodes = (
"186 539 LINE",
"57 522 LINE SMOOTH",
"57 0 LINE",
"186 0 LINE"
);
},
{
closed = 1;
nodes = (
"135 275 LINE",
"156 295 OFFCURVE",
"192 337 OFFCURVE",
"248 337 CURVE SMOOTH",
"285 337 OFFCURVE",
"292 313 OFFCURVE",
"292 263 CURVE SMOOTH",
"292 0 LINE",
"421 0 LINE",
"421 281 LINE SMOOTH",
"421 349 OFFCURVE",
"385 410 OFFCURVE",
"289 410 CURVE SMOOTH",
"219 410 OFFCURVE",
"145 362 OFFCURVE",
"119 330 CURVE"
);
}
);
width = 470;
}
);
unicode = 0068;
},
{
glyphname = i;
lastChange = "2014-10-23 15:27:43 +0000";
layers = (
{
hints = (
{
place = "{58.500000, 112.000000}";
},
{
horizontal = 1;
place = "{15.000000, 21.000000}";
},
{
horizontal = 1;
place = "{400.000000, -20.000000}";
},
{
horizontal = 1;
place = "{567.892857, -20.000000}";
}
);
layerId = "E777F328-EA17-4AE7-9EBA-8002E537BA4F";
name = Regular;
paths = (
{
closed = 1;
nodes = (
"63 400 LINE",
"63 0 LINE",
"162 0 LINE",
"162 400 LINE"
);
},
{
closed = 1;
nodes = (
"146 447 OFFCURVE",
"173 473 OFFCURVE",
"173 506 CURVE SMOOTH",
"173 540 OFFCURVE",
"146 567 OFFCURVE",
"113 567 CURVE SMOOTH",
"80 567 OFFCURVE",
"53 540 OFFCURVE",
"53 506 CURVE SMOOTH",
"53 474 OFFCURVE",
"80 447 OFFCURVE",
"113 447 CURVE SMOOTH"
);
}
);
width = 227;
},
{
hints = (
{
place = "{51.000000, 142.000000}";
},
{
horizontal = 1;
place = "{15.000000, 21.000000}";
},
{
horizontal = 1;
place = "{400.000000, -20.000000}";
},
{
horizontal = 1;
place = "{583.428571, -20.000000}";
}
);
layerId = "39185045-6A8C-415A-8312-7B8F11386A4C";
name = Bold;
paths = (
{
closed = 1;
nodes = (
"56 400 LINE",
"56 0 LINE",
"185 0 LINE",
"185 400 LINE"
);
},
{
closed = 1;
nodes = (
"162 435 OFFCURVE",
"196 467 OFFCURVE",
"196 510 CURVE SMOOTH",
"196 553 OFFCURVE",
"162 587 OFFCURVE",
"120 587 CURVE SMOOTH",
"78 587 OFFCURVE",
"44 553 OFFCURVE",
"44 510 CURVE SMOOTH",
"44 469 OFFCURVE",
"78 435 OFFCURVE",
"120 435 CURVE SMOOTH"
);
}
);
width = 242;
}
);
unicode = 0069;
},
{
glyphname = dotlessi;
lastChange = "2014-10-23 15:27:43 +0000";
layers = (
{
anchors = (
{
name = ogonek;
position = "{200, 7}";
},
{
name = top;
position = "{114, 400}";
}
);
hints = (
{
place = "{64.500000, 99.000000}";
},
{
horizontal = 1;
place = "{400.000000, -20.000000}";
},
{
horizontal = 1;
place = "{15.000000, 21.000000}";
}
);
layerId = "E777F328-EA17-4AE7-9EBA-8002E537BA4F";
name = Regular;
paths = (
{
closed = 1;
nodes = (
"64 400 LINE",
"64 0 LINE",
"163 0 LINE",
"163 400 LINE"
);
}
);
width = 228;
},
{
anchors = (
{
name = ogonek;
position = "{211, 7}";
},
{
name = top;
position = "{121, 400}";
}
);
hints = (
{
place = "{57.000000, 129.000000}";
},
{
horizontal = 1;
place = "{400.000000, -20.000000}";
},
{
horizontal = 1;
place = "{15.000000, 21.000000}";
}
);
layerId = "39185045-6A8C-415A-8312-7B8F11386A4C";
name = Bold;
paths = (
{
closed = 1;
nodes = (
"57 400 LINE",
"57 0 LINE",
"186 0 LINE",
"186 400 LINE"
);
}
);
width = 243;
}
);
unicode = 0131;
},
{
glyphname = j;
lastChange = "2014-10-23 15:27:43 +0000";
layers = (
{
hints = (
{
place = "{58.500000, 112.000000}";
},
{
horizontal = 1;
place = "{-145.035714, 78.285714}";
},
{
horizontal = 1;
place = "{400.000000, -20.000000}";
},
{
horizontal = 1;
place = "{558.071429, -20.000000}";
}
);
layerId = "E777F328-EA17-4AE7-9EBA-8002E537BA4F";
name = Regular;
paths = (
{
closed = 1;
nodes = (
"-77 -141 LINE",
"-43 -158 OFFCURVE",
"-10 -169 OFFCURVE",
"26 -169 CURVE SMOOTH",
"116 -169 OFFCURVE",
"163 -124 OFFCURVE",
"163 -35 CURVE SMOOTH",
"163 400 LINE",
"64 400 LINE",
"64 -52 LINE SMOOTH",
"64 -86 OFFCURVE",
"48 -112 OFFCURVE",
"19 -112 CURVE SMOOTH",
"-10 -112 OFFCURVE",
"-30 -94 OFFCURVE",
"-46 -70 CURVE"
);
},
{
closed = 1;
nodes = (
"146 447 OFFCURVE",
"173 473 OFFCURVE",
"173 506 CURVE SMOOTH",
"173 540 OFFCURVE",
"146 567 OFFCURVE",
"113 567 CURVE SMOOTH",
"80 567 OFFCURVE",
"53 540 OFFCURVE",
"53 506 CURVE SMOOTH",
"53 474 OFFCURVE",
"80 447 OFFCURVE",
"113 447 CURVE SMOOTH"
);
}
);
width = 228;
},
{
hints = (
{
place = "{51.000000, 142.000000}";
},
{
horizontal = 1;
place = "{-134.857143, 101.857143}";
},
{
horizontal = 1;
place = "{400.000000, -20.000000}";
},
{
horizontal = 1;
place = "{567.714286, -20.000000}";
}
);
layerId = "39185045-6A8C-415A-8312-7B8F11386A4C";
name = Bold;
paths = (
{
closed = 1;
nodes = (
"-79 -145 LINE",
"-40 -161 OFFCURVE",
"-3 -169 OFFCURVE",
"29 -169 CURVE SMOOTH",
"138 -169 OFFCURVE",
"186 -118 OFFCURVE",
"186 -22 CURVE SMOOTH",
"186 400 LINE",
"57 400 LINE",
"57 -38 LINE SMOOTH",
"57 -67 OFFCURVE",
"45 -93 OFFCURVE",
"20 -93 CURVE SMOOTH",
"-11 -93 OFFCURVE",
"-26 -78 OFFCURVE",
"-42 -52 CURVE"
);
},
{
closed = 1;
nodes = (
"162 435 OFFCURVE",
"196 467 OFFCURVE",
"196 510 CURVE SMOOTH",
"196 553 OFFCURVE",
"162 587 OFFCURVE",
"120 587 CURVE SMOOTH",
"78 587 OFFCURVE",
"44 553 OFFCURVE",
"44 510 CURVE SMOOTH",
"44 469 OFFCURVE",
"78 435 OFFCURVE",
"120 435 CURVE SMOOTH"
);
}
);
width = 243;
}
);
unicode = 006A;
},
{
glyphname = dotlessj;
lastChange = "2014-10-23 15:27:43 +0000";
layers = (
{
anchors = (
{
name = top;
position = "{114, 400}";
}
);
hints = (
{
place = "{58.500000, 112.000000}";
},
{
horizontal = 1;
place = "{-145.035714, 78.285714}";
},
{
horizontal = 1;
place = "{400.000000, -20.000000}";
},
{
horizontal = 1;
place = "{558.071429, -20.000000}";
},
{
place = "{58.500000, 112.000000}";
},
{
horizontal = 1;
place = "{-145.035714, 78.285714}";
},
{
horizontal = 1;
place = "{400.000000, -20.000000}";
},
{
horizontal = 1;
place = "{558.071429, -20.000000}";
}
);
layerId = "E777F328-EA17-4AE7-9EBA-8002E537BA4F";
name = Regular;
paths = (
{
closed = 1;
nodes = (
"-77 -141 LINE",
"-43 -158 OFFCURVE",
"-10 -169 OFFCURVE",
"26 -169 CURVE SMOOTH",
"116 -169 OFFCURVE",
"163 -124 OFFCURVE",
"163 -35 CURVE SMOOTH",
"163 400 LINE",
"64 400 LINE",
"64 -52 LINE SMOOTH",
"64 -86 OFFCURVE",
"48 -112 OFFCURVE",
"19 -112 CURVE SMOOTH",
"-10 -112 OFFCURVE",
"-30 -94 OFFCURVE",
"-46 -70 CURVE"
);
}
);
width = 228;
},
{
anchors = (
{
name = top;
position = "{121, 400}";
}
);
hints = (
{
place = "{51.000000, 142.000000}";
},
{
horizontal = 1;
place = "{-134.857143, 101.857143}";
},
{
horizontal = 1;
place = "{400.000000, -20.000000}";
},
{
horizontal = 1;
place = "{567.714286, -20.000000}";
},
{
place = "{51.000000, 142.000000}";
},
{
horizontal = 1;
place = "{-134.857143, 101.857143}";
},
{
horizontal = 1;
place = "{400.000000, -20.000000}";
},
{
horizontal = 1;
place = "{567.714286, -20.000000}";
}
);
layerId = "39185045-6A8C-415A-8312-7B8F11386A4C";
name = Bold;
paths = (
{
closed = 1;
nodes = (
"-79 -145 LINE",
"-40 -161 OFFCURVE",
"-3 -169 OFFCURVE",
"29 -169 CURVE SMOOTH",
"138 -169 OFFCURVE",
"186 -118 OFFCURVE",
"186 -22 CURVE SMOOTH",
"186 400 LINE",
"57 400 LINE",
"57 -38 LINE SMOOTH",
"57 -67 OFFCURVE",
"45 -93 OFFCURVE",
"20 -93 CURVE SMOOTH",
"-11 -93 OFFCURVE",
"-26 -78 OFFCURVE",
"-42 -52 CURVE"
);
}
);
width = 243;
}
);
unicode = 0237;
},
{
glyphname = k;
lastChange = "2014-10-23 15:27:43 +0000";
layers = (
{
anchors = (
{
name = bottom;
position = "{221, 0}";
}
);
hints = (
{
place = "{64.500000, 99.000000}";
},
{
horizontal = 1;
place = "{182.714286, 30.285714}";
},
{
horizontal = 1;
place = "{182.714286, 66.571429}";
},
{
horizontal = 1;
place = "{15.000000, 21.000000}";
},
{
horizontal = 1;
place = "{532.750000, -20.000000}";
},
{
horizontal = 1;
place = "{400.000000, -20.000000}";
}
);
layerId = "E777F328-EA17-4AE7-9EBA-8002E537BA4F";
name = Regular;
paths = (
{
closed = 1;
nodes = (
"163 0 LINE",
"163 539 LINE",
"64 526 LINE",
"64 0 LINE"
);
},
{
closed = 1;
nodes = (
"337 400 LINE",
"108 154 LINE",
"163 154 LINE",
"393 400 LINE"
);
},
{
closed = 1;
nodes = (
"406 0 LINE",
"235 254 LINE",
"175 190 LINE",
"299 0 LINE"
);
}
);
width = 411;
},
{
anchors = (
{
name = bottom;
position = "{230, 0}";
}
);
hints = (
{
place = "{57.000000, 129.000000}";
},
{
horizontal = 1;
place = "{174.142857, 38.857143}";
},
{
horizontal = 1;
place = "{174.142857, 83.714286}";
},
{
horizontal = 1;
place = "{15.000000, 21.000000}";
},
{
horizontal = 1;
place = "{529.000000, -20.000000}";
},
{
horizontal = 1;
place = "{400.000000, -20.000000}";
}
);
layerId = "39185045-6A8C-415A-8312-7B8F11386A4C";
name = Bold;
paths = (
{
closed = 1;
nodes = (
"186 0 LINE",
"186 539 LINE",
"57 522 LINE",
"57 0 LINE"
);
},
{
closed = 1;
nodes = (
"341 400 LINE",
"116 154 LINE",
"186 154 LINE",
"414 400 LINE"
);
},
{
closed = 1;
nodes = (
"426 0 LINE",
"256 254 LINE",
"180 171 LINE",
"288 0 LINE"
);
}
);
width = 426;
}
);
unicode = 006B;
},
{
glyphname = kgreenlandic;
lastChange = "2014-10-23 15:27:43 +0000";
layers = (
{
hints = (
{
place = "{64.500000, 99.000000}";
},
{
horizontal = 1;
place = "{182.714286, 30.285714}";
},
{
horizontal = 1;
place = "{182.714286, 66.571429}";
},
{
horizontal = 1;
place = "{15.000000, 21.000000}";
},
{
horizontal = 1;
place = "{532.750000, -20.000000}";
},
{
horizontal = 1;
place = "{400.000000, -20.000000}";
}
);
layerId = "E777F328-EA17-4AE7-9EBA-8002E537BA4F";
name = Regular;
paths = (
{
closed = 1;
nodes = (
"163 0 LINE",
"163 400 LINE",
"64 400 LINE",
"64 0 LINE"
);
},
{
closed = 1;
nodes = (
"100 183 LINE",
"223 183 LINE",
"223 249 LINE",
"100 249 LINE"
);
},
{
closed = 1;
nodes = (
"293 400 LINE",
"174 228 LINE",
"251 189 LINE",
"401 400 LINE"
);
},
{
closed = 1;
nodes = (
"412 0 LINE",
"262 214 LINE",
"158 214 LINE",
"305 0 LINE"
);
}
);
width = 406;
},
{
hints = (
{
place = "{57.000000, 129.000000}";
},
{
horizontal = 1;
place = "{174.142857, 38.857143}";
},
{
horizontal = 1;
place = "{174.142857, 83.714286}";
},
{
horizontal = 1;
place = "{15.000000, 21.000000}";
},
{
horizontal = 1;
place = "{529.000000, -20.000000}";
},
{
horizontal = 1;
place = "{400.000000, -20.000000}";
}
);
layerId = "39185045-6A8C-415A-8312-7B8F11386A4C";
name = Bold;
paths = (
{
closed = 1;
nodes = (
"186 0 LINE",
"186 400 LINE",
"57 400 LINE",
"57 0 LINE"
);
},
{
closed = 1;
nodes = (
"100 174 LINE",
"232 174 LINE",
"232 258 LINE",
"100 258 LINE"
);
},
{
closed = 1;
nodes = (
"285 400 LINE",
"170 232 LINE",
"269 181 LINE",
"424 400 LINE"
);
},
{
closed = 1;
nodes = (
"436 0 LINE",
"285 214 LINE",
"151 214 LINE",
"298 0 LINE"
);
}
);
width = 426;
}
);
unicode = 0138;
},
{
glyphname = l;
lastChange = "2014-10-23 15:27:43 +0000";
layers = (
{
anchors = (
{
name = bottom;
position = "{114, 0}";
},
{
name = top;
position = "{114, 511}";
},
{
name = topright;
position = "{214, 400}";
}
);
hints = (
{
place = "{64.500000, 99.000000}";
},
{
horizontal = 1;
place = "{15.000000, 21.000000}";
},
{
horizontal = 1;
place = "{539.000000, -20.000000}";
}
);
layerId = "E777F328-EA17-4AE7-9EBA-8002E537BA4F";
name = Regular;
paths = (
{
closed = 1;
nodes = (
"64 526 LINE",
"64 0 LINE",
"163 0 LINE",
"163 539 LINE"
);
}
);
width = 228;
},
{
anchors = (
{
name = bottom;
position = "{121, 0}";
},
{
name = top;
position = "{121, 511}";
},
{
name = topright;
position = "{229, 400}";
}
);
hints = (
{
place = "{57.000000, 129.000000}";
},
{
horizontal = 1;
place = "{15.000000, 21.000000}";
},
{
horizontal = 1;
place = "{539.000000, -20.000000}";
}
);
layerId = "39185045-6A8C-415A-8312-7B8F11386A4C";
name = Bold;
paths = (
{
closed = 1;
nodes = (
"57 522 LINE",
"57 0 LINE",
"186 0 LINE",
"186 539 LINE"
);
}
);
width = 243;
}
);
unicode = 006C;
},
{
glyphname = m;
lastChange = "2014-10-23 15:27:43 +0000";
layers = (
{
hints = (
{
place = "{64.500000, 99.000000}";
},
{
place = "{304.250000, 99.000000}";
},
{
place = "{543.000000, 99.000000}";
},
{
horizontal = 1;
place = "{334.178571, 75.821429}";
},
{
horizontal = 1;
place = "{15.000000, 21.000000}";
},
{
horizontal = 1;
place = "{400.000000, -20.000000}";
}
);
layerId = "E777F328-EA17-4AE7-9EBA-8002E537BA4F";
name = Regular;
paths = (
{
closed = 1;
nodes = (
"108 400 LINE",
"64 400 LINE",
"64 0 LINE",
"163 0 LINE",
"163 341 LINE"
);
},
{
closed = 1;
nodes = (
"126 292 LINE",
"153 321 OFFCURVE",
"185 354 OFFCURVE",
"241 354 CURVE SMOOTH",
"283 354 OFFCURVE",
"305 331 OFFCURVE",
"305 284 CURVE SMOOTH",
"305 0 LINE",
"404 0 LINE",
"404 282 LINE SMOOTH",
"404 357 OFFCURVE",
"366 410 OFFCURVE",
"274 410 CURVE SMOOTH",
"204 410 OFFCURVE",
"139 364 OFFCURVE",
"112 330 CURVE"
);
},
{
closed = 1;
nodes = (
"365 292 LINE",
"391 321 OFFCURVE",
"424 354 OFFCURVE",
"480 354 CURVE SMOOTH",
"522 354 OFFCURVE",
"543 331 OFFCURVE",
"543 284 CURVE SMOOTH",
"543 0 LINE",
"642 0 LINE",
"642 282 LINE SMOOTH",
"642 357 OFFCURVE",
"604 410 OFFCURVE",
"513 410 CURVE SMOOTH",
"443 410 OFFCURVE",
"378 364 OFFCURVE",
"351 330 CURVE"
);
}
);
width = 700;
},
{
hints = (
{
place = "{57.000000, 129.000000}";
},
{
place = "{293.000000, 129.000000}";
},
{
place = "{528.000000, 129.000000}";
},
{
horizontal = 1;
place = "{313.285714, 96.714286}";
},
{
horizontal = 1;
place = "{15.000000, 21.000000}";
},
{
horizontal = 1;
place = "{400.000000, -20.000000}";
}
);
layerId = "39185045-6A8C-415A-8312-7B8F11386A4C";
name = Bold;
paths = (
{
closed = 1;
nodes = (
"115 400 LINE",
"57 400 LINE",
"57 0 LINE",
"186 0 LINE",
"186 341 LINE"
);
},
{
closed = 1;
nodes = (
"135 278 LINE",
"155 298 OFFCURVE",
"184 337 OFFCURVE",
"241 337 CURVE SMOOTH",
"275 337 OFFCURVE",
"293 320 OFFCURVE",
"293 283 CURVE SMOOTH",
"293 0 LINE",
"422 0 LINE",
"422 281 LINE SMOOTH",
"422 349 OFFCURVE",
"386 410 OFFCURVE",
"289 410 CURVE SMOOTH",
"219 410 OFFCURVE",
"145 362 OFFCURVE",
"119 330 CURVE"
);
},
{
closed = 1;
nodes = (
"371 278 LINE",
"390 298 OFFCURVE",
"420 337 OFFCURVE",
"476 337 CURVE SMOOTH",
"512 337 OFFCURVE",
"528 320 OFFCURVE",
"528 283 CURVE SMOOTH",
"528 0 LINE",
"657 0 LINE",
"657 281 LINE SMOOTH",
"657 349 OFFCURVE",
"621 410 OFFCURVE",
"525 410 CURVE SMOOTH",
"455 410 OFFCURVE",
"381 362 OFFCURVE",
"355 330 CURVE"
);
}
);
width = 707;
}
);
unicode = 006D;
},
{
glyphname = n;
lastChange = "2014-10-23 15:27:43 +0000";
layers = (
{
anchors = (
{
name = bottom;
position = "{232, 0}";
},
{
name = top;
position = "{232, 400}";
}
);
hints = (
{
place = "{64.500000, 99.000000}";
},
{
place = "{308.428571, 99.000000}";
},
{
horizontal = 1;
place = "{334.178571, 75.821429}";
},
{
horizontal = 1;
place = "{400.000000, -20.000000}";
},
{
horizontal = 1;
place = "{15.000000, 21.000000}";
}
);
layerId = "E777F328-EA17-4AE7-9EBA-8002E537BA4F";
name = Regular;
paths = (
{
closed = 1;
nodes = (
"108 400 LINE",
"64 400 LINE",
"64 0 LINE",
"163 0 LINE",
"163 341 LINE"
);
},
{
closed = 1;
nodes = (
"126 290 LINE",
"171 335 OFFCURVE",
"209 354 OFFCURVE",
"251 354 CURVE SMOOTH",
"292 354 OFFCURVE",
"309 330 OFFCURVE",
"309 272 CURVE SMOOTH",
"309 0 LINE",
"408 0 LINE",
"408 282 LINE SMOOTH",
"408 365 OFFCURVE",
"363 410 OFFCURVE",
"279 410 CURVE SMOOTH",
"222 410 OFFCURVE",
"149 375 OFFCURVE",
"112 330 CURVE"
);
}
);
width = 465;
},
{
anchors = (
{
name = bottom;
position = "{235, 0}";
},
{
name = top;
position = "{235, 400}";
}
);
hints = (
{
place = "{57.000000, 129.000000}";
},
{
place = "{291.285714, 129.000000}";
},
{
horizontal = 1;
place = "{313.285714, 96.714286}";
},
{
horizontal = 1;
place = "{400.000000, -20.000000}";
},
{
horizontal = 1;
place = "{15.000000, 21.000000}";
}
);
layerId = "39185045-6A8C-415A-8312-7B8F11386A4C";
name = Bold;
paths = (
{
closed = 1;
nodes = (
"115 400 LINE",
"57 400 LINE",
"57 0 LINE",
"186 0 LINE",
"186 341 LINE"
);
},
{
closed = 1;
nodes = (
"135 275 LINE",
"179 320 OFFCURVE",
"212 337 OFFCURVE",
"248 337 CURVE SMOOTH",
"281 337 OFFCURVE",
"292 319 OFFCURVE",
"292 263 CURVE SMOOTH",
"292 0 LINE",
"421 0 LINE",
"421 281 LINE SMOOTH",
"421 361 OFFCURVE",
"372 410 OFFCURVE",
"289 410 CURVE SMOOTH",
"232 410 OFFCURVE",
"152 373 OFFCURVE",
"119 330 CURVE"
);
}
);
width = 470;
}
);
unicode = 006E;
},
{
glyphname = eng;
lastChange = "2014-10-23 15:27:43 +0000";
layers = (
{
components = (
{
name = n;
}
);
hints = (
{
place = "{308.428571, 99.000000}";
},
{
horizontal = 1;
place = "{-145.035714, 78.285714}";
},
{
horizontal = 1;
place = "{0.000000, -20.000000}";
}
);
layerId = "E777F328-EA17-4AE7-9EBA-8002E537BA4F";
name = Regular;
paths = (
{
closed = 1;
nodes = (
"167 -141 LINE",
"201 -158 OFFCURVE",
"234 -169 OFFCURVE",
"270 -169 CURVE SMOOTH",
"360 -169 OFFCURVE",
"407 -124 OFFCURVE",
"407 -35 CURVE SMOOTH",
"407 1 LINE",
"308 1 LINE",
"308 -58 LINE SMOOTH",
"308 -89 OFFCURVE",
"291 -112 OFFCURVE",
"260 -112 CURVE SMOOTH",
"235 -112 OFFCURVE",
"213 -94 OFFCURVE",
"198 -70 CURVE"
);
}
);
width = 465;
},
{
components = (
{
name = n;
}
);
hints = (
{
place = "{291.285714, 129.000000}";
},
{
horizontal = 1;
place = "{-134.857143, 101.857143}";
},
{
horizontal = 1;
place = "{0.000000, -20.000000}";
}
);
layerId = "39185045-6A8C-415A-8312-7B8F11386A4C";
name = Bold;
paths = (
{
closed = 1;
nodes = (
"155 -145 LINE",
"194 -161 OFFCURVE",
"231 -169 OFFCURVE",
"263 -169 CURVE SMOOTH",
"372 -169 OFFCURVE",
"420 -118 OFFCURVE",
"420 -22 CURVE SMOOTH",
"420 1 LINE",
"291 1 LINE",
"291 -48 LINE SMOOTH",
"291 -73 OFFCURVE",
"278 -93 OFFCURVE",
"249 -93 CURVE SMOOTH",
"227 -93 OFFCURVE",
"207 -78 OFFCURVE",
"193 -52 CURVE"
);
}
);
width = 470;
}
);
unicode = 014B;
},
{
glyphname = o;
lastChange = "2014-10-23 15:27:43 +0000";
layers = (
{
anchors = (
{
name = top;
position = "{219, 400}";
}
);
hints = (
{
place = "{23.250000, 99.000000}";
},
{
place = "{291.250000, 99.000000}";
},
{
horizontal = 1;
place = "{-10.000000, 75.821429}";
},
{
horizontal = 1;
place = "{334.178571, 75.821429}";
}
);
layerId = "E777F328-EA17-4AE7-9EBA-8002E537BA4F";
name = Regular;
paths = (
{
closed = 1;
nodes = (
"368 -10 OFFCURVE",
"403 92 OFFCURVE",
"403 200 CURVE SMOOTH",
"403 309 OFFCURVE",
"368 410 OFFCURVE",
"220 410 CURVE SMOOTH",
"71 410 OFFCURVE",
"36 309 OFFCURVE",
"36 200 CURVE SMOOTH",
"36 92 OFFCURVE",
"71 -10 OFFCURVE",
"220 -10 CURVE SMOOTH"
);
},
{
closed = 1;
nodes = (
"148 39 OFFCURVE",
"135 106 OFFCURVE",
"135 200 CURVE SMOOTH",
"135 295 OFFCURVE",
"148 361 OFFCURVE",
"220 361 CURVE SMOOTH",
"291 361 OFFCURVE",
"304 295 OFFCURVE",
"304 200 CURVE SMOOTH",
"304 106 OFFCURVE",
"291 39 OFFCURVE",
"220 39 CURVE SMOOTH"
);
}
);
width = 439;
},
{
anchors = (
{
name = top;
position = "{223, 400}";
}
);
hints = (
{
place = "{12.000000, 129.000000}";
},
{
place = "{265.000000, 129.000000}";
},
{
horizontal = 1;
place = "{-10.000000, 96.714286}";
},
{
horizontal = 1;
place = "{313.285714, 96.714286}";
}
);
layerId = "39185045-6A8C-415A-8312-7B8F11386A4C";
name = Bold;
paths = (
{
closed = 1;
nodes = (
"378 -10 OFFCURVE",
"414 92 OFFCURVE",
"414 200 CURVE SMOOTH",
"414 309 OFFCURVE",
"378 410 OFFCURVE",
"223 410 CURVE SMOOTH",
"68 410 OFFCURVE",
"32 309 OFFCURVE",
"32 200 CURVE SMOOTH",
"32 92 OFFCURVE",
"68 -10 OFFCURVE",
"223 -10 CURVE SMOOTH"
);
},
{
closed = 1;
nodes = (
"170 54 OFFCURVE",
"161 105 OFFCURVE",
"161 200 CURVE SMOOTH",
"161 296 OFFCURVE",
"170 346 OFFCURVE",
"223 346 CURVE SMOOTH",
"276 346 OFFCURVE",
"285 296 OFFCURVE",
"285 200 CURVE SMOOTH",
"285 105 OFFCURVE",
"276 54 OFFCURVE",
"223 54 CURVE SMOOTH"
);
}
);
width = 446;
}
);
leftKerningGroup = c;
unicode = 006F;
},
{
glyphname = p;
lastChange = "2014-10-23 15:27:43 +0000";
layers = (
{
hints = (
{
place = "{64.500000, 99.000000}";
},
{
place = "{317.535714, 99.000000}";
},
{
horizontal = 1;
place = "{-10.000000, 75.821429}";
},
{
horizontal = 1;
place = "{334.178571, 75.821429}";
},
{
horizontal = 1;
place = "{400.000000, -20.000000}";
},
{
horizontal = 1;
place = "{-140.285714, 21.000000}";
}
);
layerId = "E777F328-EA17-4AE7-9EBA-8002E537BA4F";
name = Regular;
paths = (
{
closed = 1;
nodes = (
"294 354 OFFCURVE",
"318 286 OFFCURVE",
"318 200 CURVE SMOOTH",
"318 101 OFFCURVE",
"294 39 OFFCURVE",
"226 39 CURVE SMOOTH",
"194 39 OFFCURVE",
"160 40 OFFCURVE",
"111 76 CURVE",
"98 38 LINE",
"138 3 OFFCURVE",
"204 -10 OFFCURVE",
"252 -10 CURVE SMOOTH",
"386 -10 OFFCURVE",
"417 92 OFFCURVE",
"417 200 CURVE SMOOTH",
"417 309 OFFCURVE",
"386 410 OFFCURVE",
"253 410 CURVE SMOOTH",
"190 410 OFFCURVE",
"127 365 OFFCURVE",
"100 329 CURVE",
"111 291 LINE",
"145 330 OFFCURVE",
"185 354 OFFCURVE",
"226 354 CURVE SMOOTH"
);
},
{
closed = 1;
nodes = (
"109 400 LINE",
"64 400 LINE",
"64 -169 LINE",
"163 -156 LINE",
"163 348 LINE"
);
}
);
width = 453;
},
{
hints = (
{
place = "{57.000000, 129.000000}";
},
{
place = "{299.857143, 129.000000}";
},
{
horizontal = 1;
place = "{-10.000000, 96.714286}";
},
{
horizontal = 1;
place = "{313.285714, 96.714286}";
},
{
horizontal = 1;
place = "{400.000000, -20.000000}";
},
{
horizontal = 1;
place = "{-133.857143, 21.000000}";
}
);
layerId = "39185045-6A8C-415A-8312-7B8F11386A4C";
name = Bold;
paths = (
{
closed = 1;
nodes = (
"277 337 OFFCURVE",
"300 284 OFFCURVE",
"300 200 CURVE SMOOTH",
"300 102 OFFCURVE",
"277 54 OFFCURVE",
"221 54 CURVE SMOOTH",
"189 54 OFFCURVE",
"160 51 OFFCURVE",
"115 85 CURVE",
"98 35 LINE",
"142 -4 OFFCURVE",
"215 -10 OFFCURVE",
"258 -10 CURVE SMOOTH",
"397 -10 OFFCURVE",
"429 92 OFFCURVE",
"429 200 CURVE SMOOTH",
"429 309 OFFCURVE",
"397 410 OFFCURVE",
"256 410 CURVE SMOOTH",
"190 410 OFFCURVE",
"127 362 OFFCURVE",
"105 333 CURVE",
"118 283 LINE",
"149 315 OFFCURVE",
"179 337 OFFCURVE",
"216 337 CURVE SMOOTH"
);
},
{
closed = 1;
nodes = (
"117 400 LINE",
"57 400 LINE",
"57 -169 LINE",
"186 -152 LINE",
"186 348 LINE"
);
}
);
width = 461;
}
);
rightMetricsKey = "=o";
unicode = 0070;
},
{
glyphname = thorn;
lastChange = "2014-10-23 15:27:43 +0000";
layers = (
{
background = {
paths = (
{
closed = 0;
nodes = (
"163 539 LINE",
"64 526 LINE"
);
}
);
};
hints = (
{
place = "{64.500000, 99.000000}";
},
{
place = "{322.107143, 99.000000}";
},
{
horizontal = 1;
place = "{-10.000000, 76.250000}";
},
{
horizontal = 1;
place = "{333.750000, 76.250000}";
},
{
horizontal = 1;
place = "{518.750000, -20.000000}";
},
{
horizontal = 1;
place = "{-127.035714, 21.000000}";
}
);
layerId = "E777F328-EA17-4AE7-9EBA-8002E537BA4F";
name = Regular;
paths = (
{
closed = 1;
nodes = (
"163 539 LINE",
"64 526 LINE",
"64 -169 LINE",
"163 -156 LINE"
);
},
{
closed = 1;
nodes = (
"294 354 OFFCURVE",
"318 286 OFFCURVE",
"318 200 CURVE SMOOTH",
"318 101 OFFCURVE",
"294 39 OFFCURVE",
"226 39 CURVE SMOOTH",
"194 39 OFFCURVE",
"160 40 OFFCURVE",
"111 76 CURVE",
"98 38 LINE",
"138 3 OFFCURVE",
"204 -10 OFFCURVE",
"252 -10 CURVE SMOOTH",
"386 -10 OFFCURVE",
"417 92 OFFCURVE",
"417 200 CURVE SMOOTH",
"417 309 OFFCURVE",
"386 410 OFFCURVE",
"253 410 CURVE SMOOTH",
"190 410 OFFCURVE",
"127 365 OFFCURVE",
"100 329 CURVE",
"111 291 LINE",
"145 330 OFFCURVE",
"185 354 OFFCURVE",
"226 354 CURVE SMOOTH"
);
}
);
width = 453;
},
{
background = {
paths = (
{
closed = 0;
nodes = (
"186 539 LINE",
"57 522 LINE"
);
}
);
};
hints = (
{
place = "{57.000000, 129.000000}";
},
{
place = "{306.571429, 129.000000}";
},
{
horizontal = 1;
place = "{-10.000000, 95.000000}";
},
{
horizontal = 1;
place = "{315.000000, 95.000000}";
},
{
horizontal = 1;
place = "{515.000000, -20.000000}";
},
{
horizontal = 1;
place = "{-116.857143, 21.000000}";
}
);
layerId = "39185045-6A8C-415A-8312-7B8F11386A4C";
name = Bold;
paths = (
{
closed = 1;
nodes = (
"186 539 LINE",
"57 522 LINE",
"57 -169 LINE",
"186 -152 LINE"
);
},
{
closed = 1;
nodes = (
"277 337 OFFCURVE",
"300 284 OFFCURVE",
"300 200 CURVE SMOOTH",
"300 102 OFFCURVE",
"277 54 OFFCURVE",
"221 54 CURVE SMOOTH",
"189 54 OFFCURVE",
"160 51 OFFCURVE",
"115 85 CURVE",
"98 35 LINE",
"142 -4 OFFCURVE",
"215 -10 OFFCURVE",
"258 -10 CURVE SMOOTH",
"397 -10 OFFCURVE",
"429 92 OFFCURVE",
"429 200 CURVE SMOOTH",
"429 309 OFFCURVE",
"397 410 OFFCURVE",
"256 410 CURVE SMOOTH",
"190 410 OFFCURVE",
"127 362 OFFCURVE",
"105 333 CURVE",
"118 283 LINE",
"149 315 OFFCURVE",
"179 337 OFFCURVE",
"216 337 CURVE SMOOTH"
);
}
);
width = 461;
}
);
rightMetricsKey = "=o";
unicode = 00FE;
},
{
glyphname = q;
lastChange = "2014-10-23 15:27:43 +0000";
layers = (
{
hints = (
{
place = "{23.250000, 99.000000}";
},
{
place = "{276.285714, 99.000000}";
},
{
horizontal = 1;
place = "{-10.000000, 75.821429}";
},
{
horizontal = 1;
place = "{334.178571, 75.821429}";
},
{
horizontal = 1;
place = "{-140.285714, 21.000000}";
},
{
horizontal = 1;
place = "{400.000000, -20.000000}";
}
);
layerId = "E777F328-EA17-4AE7-9EBA-8002E537BA4F";
name = Regular;
paths = (
{
closed = 1;
nodes = (
"342 89 LINE",
"306 55 OFFCURVE",
"268 39 OFFCURVE",
"228 39 CURVE SMOOTH",
"159 39 OFFCURVE",
"135 102 OFFCURVE",
"135 200 CURVE SMOOTH",
"135 291 OFFCURVE",
"160 355 OFFCURVE",
"227 355 CURVE SMOOTH",
"268 355 OFFCURVE",
"306 334 OFFCURVE",
"341 279 CURVE",
"353 327 LINE",
"326 364 OFFCURVE",
"275 410 OFFCURVE",
"200 410 CURVE SMOOTH",
"67 410 OFFCURVE",
"36 309 OFFCURVE",
"36 200 CURVE SMOOTH",
"36 92 OFFCURVE",
"67 -10 OFFCURVE",
"200 -10 CURVE SMOOTH",
"259 -10 OFFCURVE",
"315 20 OFFCURVE",
"353 49 CURVE"
);
},
{
closed = 1;
nodes = (
"289 341 LINE",
"289 -155 LINE",
"388 -142 LINE",
"388 400 LINE",
"344 400 LINE"
);
}
);
width = 452;
},
{
hints = (
{
place = "{12.000000, 129.000000}";
},
{
place = "{254.857143, 129.000000}";
},
{
horizontal = 1;
place = "{-10.000000, 96.714286}";
},
{
horizontal = 1;
place = "{313.285714, 96.714286}";
},
{
horizontal = 1;
place = "{-133.857143, 21.000000}";
},
{
horizontal = 1;
place = "{400.000000, -20.000000}";
}
);
layerId = "39185045-6A8C-415A-8312-7B8F11386A4C";
name = Bold;
paths = (
{
closed = 1;
nodes = (
"344 96 LINE",
"312 70 OFFCURVE",
"277 54 OFFCURVE",
"240 54 CURVE SMOOTH",
"180 54 OFFCURVE",
"161 107 OFFCURVE",
"161 200 CURVE SMOOTH",
"161 282 OFFCURVE",
"182 337 OFFCURVE",
"242 337 CURVE SMOOTH",
"279 337 OFFCURVE",
"313 314 OFFCURVE",
"346 259 CURVE",
"358 326 LINE",
"329 362 OFFCURVE",
"280 410 OFFCURVE",
"202 410 CURVE SMOOTH",
"64 410 OFFCURVE",
"32 309 OFFCURVE",
"32 200 CURVE SMOOTH",
"32 92 OFFCURVE",
"64 -10 OFFCURVE",
"202 -10 CURVE SMOOTH",
"259 -10 OFFCURVE",
"318 21 OFFCURVE",
"358 44 CURVE"
);
},
{
closed = 1;
nodes = (
"275 341 LINE",
"275 -149 LINE",
"404 -132 LINE",
"404 400 LINE",
"346 400 LINE"
);
}
);
width = 461;
}
);
leftKerningGroup = c;
leftMetricsKey = "=o";
unicode = 0071;
},
{
glyphname = r;
lastChange = "2014-10-23 15:27:43 +0000";
layers = (
{
anchors = (
{
name = bottom;
position = "{114, 0}";
},
{
name = top;
position = "{165, 400}";
}
);
hints = (
{
place = "{64.500000, 99.000000}";
},
{
horizontal = 1;
place = "{325.500000, 84.500000}";
},
{
horizontal = 1;
place = "{400.000000, -20.000000}";
},
{
horizontal = 1;
place = "{15.000000, 21.000000}";
}
);
layerId = "E777F328-EA17-4AE7-9EBA-8002E537BA4F";
name = Regular;
paths = (
{
closed = 1;
nodes = (
"164 234 LINE",
"164 295 OFFCURVE",
"195 332 OFFCURVE",
"285 332 CURVE",
"285 403 LINE",
"179 403 OFFCURVE",
"128 307 OFFCURVE",
"128 234 CURVE"
);
},
{
closed = 1;
nodes = (
"108 400 LINE",
"64 400 LINE",
"64 0 LINE",
"163 0 LINE",
"163 306 LINE"
);
}
);
width = 285;
},
{
anchors = (
{
name = bottom;
position = "{121, 0}";
},
{
name = top;
position = "{164, 400}";
}
);
hints = (
{
place = "{57.000000, 129.000000}";
},
{
horizontal = 1;
place = "{303.000000, 107.000000}";
},
{
horizontal = 1;
place = "{400.000000, -20.000000}";
},
{
horizontal = 1;
place = "{15.000000, 21.000000}";
}
);
layerId = "39185045-6A8C-415A-8312-7B8F11386A4C";
name = Bold;
paths = (
{
closed = 1;
nodes = (
"186 219 LINE",
"186 283 OFFCURVE",
"210 312 OFFCURVE",
"292 312 CURVE",
"292 403 LINE",
"190 403 OFFCURVE",
"139 294 OFFCURVE",
"139 219 CURVE"
);
},
{
closed = 1;
nodes = (
"115 400 LINE",
"57 400 LINE",
"57 0 LINE",
"186 0 LINE",
"186 297 LINE"
);
}
);
width = 289;
}
);
unicode = 0072;
},
{
glyphname = s;
lastChange = "2014-10-23 15:27:43 +0000";
layers = (
{
anchors = (
{
name = bottom;
position = "{199, 0}";
},
{
name = top;
position = "{192, 400}";
}
);
hints = (
{
place = "{37.285714, 94.642857}";
},
{
place = "{260.464286, 93.750000}";
},
{
horizontal = 1;
place = "{-8.000000, 72.250000}";
},
{
horizontal = 1;
place = "{338.750000, 72.250000}";
}
);
layerId = "E777F328-EA17-4AE7-9EBA-8002E537BA4F";
name = Regular;
paths = (
{
closed = 1;
nodes = (
"201 246 LINE SMOOTH",
"152 260 OFFCURVE",
"121 275 OFFCURVE",
"121 312 CURVE SMOOTH",
"121 341 OFFCURVE",
"144 361 OFFCURVE",
"189 361 CURVE SMOOTH",
"237 361 OFFCURVE",
"263 330 OFFCURVE",
"268 279 CURVE",
"351 285 LINE",
"340 363 OFFCURVE",
"297 410 OFFCURVE",
"189 410 CURVE SMOOTH",
"97 410 OFFCURVE",
"37 366 OFFCURVE",
"37 290 CURVE SMOOTH",
"37 219 OFFCURVE",
"79 187 OFFCURVE",
"147 168 CURVE SMOOTH",
"185 157 LINE SMOOTH",
"246 141 OFFCURVE",
"270 123 OFFCURVE",
"270 94 CURVE SMOOTH",
"270 65 OFFCURVE",
"242 39 OFFCURVE",
"200 39 CURVE SMOOTH",
"145 39 OFFCURVE",
"116 72 OFFCURVE",
"111 125 CURVE",
"29 117 LINE",
"41 39 OFFCURVE",
"85 -10 OFFCURVE",
"200 -10 CURVE SMOOTH",
"293 -10 OFFCURVE",
"354 36 OFFCURVE",
"354 115 CURVE SMOOTH",
"354 185 OFFCURVE",
"311 214 OFFCURVE",
"237 235 CURVE SMOOTH"
);
}
);
width = 383;
},
{
anchors = (
{
name = bottom;
position = "{204, 0}";
},
{
name = top;
position = "{195, 400}";
}
);
hints = (
{
place = "{30.857143, 121.428571}";
},
{
place = "{248.142857, 120.000000}";
},
{
horizontal = 1;
place = "{-8.000000, 91.000000}";
},
{
horizontal = 1;
place = "{320.000000, 91.000000}";
}
);
layerId = "39185045-6A8C-415A-8312-7B8F11386A4C";
name = Bold;
paths = (
{
closed = 1;
nodes = (
"217 257 LINE SMOOTH",
"172 271 OFFCURVE",
"139 284 OFFCURVE",
"139 313 CURVE SMOOTH",
"139 336 OFFCURVE",
"160 346 OFFCURVE",
"186 346 CURVE SMOOTH",
"226 346 OFFCURVE",
"251 322 OFFCURVE",
"256 275 CURVE",
"364 281 LINE",
"351 363 OFFCURVE",
"303 410 OFFCURVE",
"186 410 CURVE SMOOTH",
"101 410 OFFCURVE",
"30 371 OFFCURVE",
"30 286 CURVE SMOOTH",
"30 213 OFFCURVE",
"69 178 OFFCURVE",
"140 158 CURVE SMOOTH",
"175 147 LINE SMOOTH",
"238 130 OFFCURVE",
"259 114 OFFCURVE",
"259 93 CURVE SMOOTH",
"259 69 OFFCURVE",
"235 54 OFFCURVE",
"209 54 CURVE SMOOTH",
"162 54 OFFCURVE",
"134 81 OFFCURVE",
"130 129 CURVE",
"23 121 LINE",
"36 39 OFFCURVE",
"83 -10 OFFCURVE",
"209 -10 CURVE SMOOTH",
"294 -10 OFFCURVE",
"368 32 OFFCURVE",
"368 120 CURVE SMOOTH",
"368 192 OFFCURVE",
"320 224 OFFCURVE",
"250 245 CURVE SMOOTH"
);
}
);
width = 391;
}
);
leftKerningGroup = s;
unicode = 0073;
},
{
glyphname = germandbls;
lastChange = "2014-10-23 15:27:43 +0000";
layers = (
{
hints = (
{
place = "{71.500000, 99.000000}";
},
{
place = "{193.642857, 80.285714}";
},
{
place = "{309.107143, 99.000000}";
},
{
place = "{356.250000, 99.000000}";
},
{
horizontal = 1;
place = "{-10.000000, 78.500000}";
},
{
horizontal = 1;
place = "{218.642857, 54.214286}";
},
{
horizontal = 1;
place = "{443.250000, 78.500000}";
},
{
horizontal = 1;
place = "{15.000000, 21.000000}";
}
);
layerId = "E777F328-EA17-4AE7-9EBA-8002E537BA4F";
name = Regular;
paths = (
{
closed = 1;
nodes = (
"170 367 LINE",
"170 444 OFFCURVE",
"188 482 OFFCURVE",
"238 482 CURVE SMOOTH",
"289 482 OFFCURVE",
"309 444 OFFCURVE",
"309 367 CURVE SMOOTH",
"309 323 OFFCURVE",
"289 285 OFFCURVE",
"245 285 CURVE SMOOTH",
"213 285 LINE",
"213 261 LINE",
"256 261 LINE SMOOTH",
"346 261 OFFCURVE",
"408 313 OFFCURVE",
"408 380 CURVE SMOOTH",
"408 463 OFFCURVE",
"350 522 OFFCURVE",
"238 522 CURVE SMOOTH",
"131 522 OFFCURVE",
"71 475 OFFCURVE",
"71 367 CURVE SMOOTH",
"71 0 LINE",
"170 0 LINE"
);
},
{
closed = 1;
nodes = (
"455 219 OFFCURVE",
"398 274 OFFCURVE",
"299 274 CURVE SMOOTH",
"213 274 LINE",
"213 249 LINE",
"272 249 LINE SMOOTH",
"325 249 OFFCURVE",
"356 221 OFFCURVE",
"356 133 CURVE SMOOTH",
"356 76 OFFCURVE",
"351 30 OFFCURVE",
"315 30 CURVE SMOOTH",
"283 30 OFFCURVE",
"274 64 OFFCURVE",
"273 138 CURVE",
"193 138 LINE",
"193 37 OFFCURVE",
"242 -10 OFFCURVE",
"319 -10 CURVE SMOOTH",
"413 -10 OFFCURVE",
"455 53 OFFCURVE",
"455 126 CURVE SMOOTH"
);
}
);
width = 464;
},
{
hints = (
{
place = "{64.000000, 129.000000}";
},
{
place = "{205.428571, 103.857143}";
},
{
place = "{293.571429, 129.000000}";
},
{
place = "{345.000000, 129.000000}";
},
{
horizontal = 1;
place = "{-10.000000, 101.000000}";
},
{
horizontal = 1;
place = "{200.428571, 68.142857}";
},
{
horizontal = 1;
place = "{417.000000, 101.000000}";
},
{
horizontal = 1;
place = "{15.000000, 21.000000}";
}
);
layerId = "39185045-6A8C-415A-8312-7B8F11386A4C";
name = Bold;
paths = (
{
closed = 1;
nodes = (
"193 352 LINE",
"193 434 OFFCURVE",
"201 467 OFFCURVE",
"242 467 CURVE SMOOTH",
"281 467 OFFCURVE",
"294 434 OFFCURVE",
"294 352 CURVE SMOOTH",
"294 314 OFFCURVE",
"282 289 OFFCURVE",
"245 289 CURVE SMOOTH",
"222 289 LINE",
"222 259 LINE",
"263 259 LINE SMOOTH",
"363 259 OFFCURVE",
"423 307 OFFCURVE",
"423 372 CURVE SMOOTH",
"423 455 OFFCURVE",
"359 518 OFFCURVE",
"242 518 CURVE SMOOTH",
"126 518 OFFCURVE",
"64 475 OFFCURVE",
"64 352 CURVE SMOOTH",
"64 0 LINE",
"193 0 LINE"
);
},
{
closed = 1;
nodes = (
"474 215 OFFCURVE",
"419 275 OFFCURVE",
"305 275 CURVE SMOOTH",
"222 275 LINE",
"222 244 LINE",
"272 244 LINE SMOOTH",
"310 244 OFFCURVE",
"345 232 OFFCURVE",
"345 131 CURVE SMOOTH",
"345 77 OFFCURVE",
"350 41 OFFCURVE",
"331 41 CURVE SMOOTH",
"316 41 OFFCURVE",
"310 68 OFFCURVE",
"311 142 CURVE",
"207 142 LINE",
"207 32 OFFCURVE",
"263 -10 OFFCURVE",
"335 -10 CURVE SMOOTH",
"433 -10 OFFCURVE",
"474 51 OFFCURVE",
"474 118 CURVE SMOOTH"
);
}
);
width = 475;
}
);
unicode = 00DF;
},
{
glyphname = t;
lastChange = "2014-10-23 15:27:43 +0000";
layers = (
{
anchors = (
{
name = bottom;
position = "{133, 0}";
},
{
name = center;
position = "{133, 200}";
},
{
name = topright;
position = "{245, 400}";
}
);
hints = (
{
place = "{69.250000, 99.000000}";
},
{
horizontal = 1;
place = "{-10.000000, 72.035714}";
},
{
horizontal = 1;
place = "{336.428571, 63.571429}";
},
{
horizontal = 1;
place = "{497.000000, -20.000000}";
}
);
layerId = "E777F328-EA17-4AE7-9EBA-8002E537BA4F";
name = Regular;
paths = (
{
closed = 1;
nodes = (
"12 350 LINE",
"256 350 LINE",
"256 400 LINE",
"12 400 LINE"
);
},
{
closed = 1;
nodes = (
"253 59 LINE",
"237 50 OFFCURVE",
"221 45 OFFCURVE",
"204 45 CURVE SMOOTH",
"185 45 OFFCURVE",
"174 54 OFFCURVE",
"174 90 CURVE SMOOTH",
"174 497 LINE",
"75 461 LINE",
"75 105 LINE SMOOTH",
"75 56 OFFCURVE",
"77 -10 OFFCURVE",
"177 -10 CURVE SMOOTH",
"198 -10 OFFCURVE",
"232 -4 OFFCURVE",
"266 14 CURVE"
);
}
);
width = 260;
},
{
anchors = (
{
name = bottom;
position = "{142, 0}";
},
{
name = center;
position = "{142, 200}";
},
{
name = topright;
position = "{258, 400}";
}
);
hints = (
{
place = "{58.000000, 129.000000}";
},
{
horizontal = 1;
place = "{-10.000000, 91.857143}";
},
{
horizontal = 1;
place = "{319.285714, 80.714286}";
},
{
horizontal = 1;
place = "{497.000000, -20.000000}";
}
);
layerId = "39185045-6A8C-415A-8312-7B8F11386A4C";
name = Bold;
paths = (
{
closed = 1;
nodes = (
"8 335 LINE",
"271 335 LINE",
"271 400 LINE",
"8 400 LINE"
);
},
{
closed = 1;
nodes = (
"270 73 LINE",
"257 66 OFFCURVE",
"242 61 OFFCURVE",
"225 61 CURVE SMOOTH",
"209 61 OFFCURVE",
"197 68 OFFCURVE",
"197 99 CURVE SMOOTH",
"197 497 LINE",
"68 453 LINE",
"68 124 LINE SMOOTH",
"68 71 OFFCURVE",
"69 -10 OFFCURVE",
"189 -10 CURVE SMOOTH",
"211 -10 OFFCURVE",
"251 -4 OFFCURVE",
"286 14 CURVE"
);
}
);
width = 276;
}
);
unicode = 0074;
},
{
glyphname = u;
lastChange = "2014-10-23 15:27:43 +0000";
layers = (
{
anchors = (
{
name = ogonek;
position = "{437, 7}";
},
{
name = top;
position = "{233, 400}";
}
);
hints = (
{
place = "{57.500000, 99.000000}";
},
{
place = "{301.964286, 99.000000}";
},
{
horizontal = 1;
place = "{-10.000000, 75.821429}";
},
{
horizontal = 1;
place = "{0.000000, 65.821429}";
},
{
horizontal = 1;
place = "{400.000000, -20.000000}";
}
);
layerId = "E777F328-EA17-4AE7-9EBA-8002E537BA4F";
name = Regular;
paths = (
{
closed = 1;
nodes = (
"345 164 LINE",
"310 82 OFFCURVE",
"274 42 OFFCURVE",
"221 42 CURVE SMOOTH",
"175 42 OFFCURVE",
"156 73 OFFCURVE",
"156 129 CURVE SMOOTH",
"156 400 LINE",
"57 400 LINE",
"57 118 LINE SMOOTH",
"57 44 OFFCURVE",
"90 -10 OFFCURVE",
"185 -10 CURVE SMOOTH",
"274 -10 OFFCURVE",
"321 52 OFFCURVE",
"351 105 CURVE"
);
},
{
closed = 1;
nodes = (
"337 0 LINE",
"401 0 LINE",
"401 400 LINE",
"302 400 LINE",
"302 60 LINE"
);
}
);
width = 465;
},
{
anchors = (
{
name = ogonek;
position = "{438, 7}";
},
{
name = top;
position = "{234, 400}";
}
);
hints = (
{
place = "{50.000000, 129.000000}";
},
{
place = "{282.142857, 129.000000}";
},
{
horizontal = 1;
place = "{-10.000000, 96.714286}";
},
{
horizontal = 1;
place = "{0.000000, 86.714286}";
},
{
horizontal = 1;
place = "{400.000000, -20.000000}";
}
);
layerId = "39185045-6A8C-415A-8312-7B8F11386A4C";
name = Bold;
paths = (
{
closed = 1;
nodes = (
"341 190 LINE",
"302 96 OFFCURVE",
"272 57 OFFCURVE",
"228 57 CURVE SMOOTH",
"187 57 OFFCURVE",
"179 89 OFFCURVE",
"179 133 CURVE SMOOTH",
"179 400 LINE",
"50 400 LINE",
"50 117 LINE SMOOTH",
"50 52 OFFCURVE",
"77 -10 OFFCURVE",
"182 -10 CURVE SMOOTH",
"280 -10 OFFCURVE",
"314 59 OFFCURVE",
"345 111 CURVE"
);
},
{
closed = 1;
nodes = (
"328 0 LINE",
"411 0 LINE",
"411 400 LINE",
"282 400 LINE",
"282 56 LINE"
);
}
);
width = 468;
}
);
unicode = 0075;
},
{
glyphname = v;
lastChange = "2014-10-23 15:27:43 +0000";
layers = (
{
hints = (
{
horizontal = 1;
place = "{15.000000, 21.000000}";
},
{
horizontal = 1;
place = "{400.000000, -20.000000}";
}
);
layerId = "E777F328-EA17-4AE7-9EBA-8002E537BA4F";
name = Regular;
paths = (
{
closed = 1;
nodes = (
"249 0 LINE",
"385 400 LINE",
"328 400 LINE",
"200 0 LINE"
);
},
{
closed = 1;
nodes = (
"232 0 LINE",
"104 400 LINE",
"5 400 LINE",
"139 0 LINE"
);
}
);
width = 389;
},
{
hints = (
{
horizontal = 1;
place = "{15.000000, 21.000000}";
},
{
horizontal = 1;
place = "{400.000000, -20.000000}";
}
);
layerId = "39185045-6A8C-415A-8312-7B8F11386A4C";
name = Bold;
paths = (
{
closed = 1;
nodes = (
"273 0 LINE",
"402 400 LINE",
"329 400 LINE",
"210 0 LINE"
);
},
{
closed = 1;
nodes = (
"248 0 LINE",
"128 400 LINE",
"-1 400 LINE",
"128 0 LINE"
);
}
);
width = 400;
}
);
unicode = 0076;
},
{
glyphname = w;
lastChange = "2014-10-23 15:27:43 +0000";
layers = (
{
anchors = (
{
name = top;
position = "{273, 400}";
}
);
hints = (
{
horizontal = 1;
place = "{15.000000, 21.000000}";
},
{
horizontal = 1;
place = "{400.000000, -20.000000}";
}
);
layerId = "E777F328-EA17-4AE7-9EBA-8002E537BA4F";
name = Regular;
paths = (
{
closed = 1;
nodes = (
"204 0 LINE",
"303 400 LINE",
"247 400 LINE",
"154 0 LINE"
);
},
{
closed = 1;
nodes = (
"187 0 LINE",
"108 400 LINE",
"8 400 LINE",
"94 0 LINE"
);
},
{
closed = 1;
nodes = (
"433 0 LINE",
"534 400 LINE",
"477 400 LINE",
"384 0 LINE"
);
},
{
closed = 1;
nodes = (
"416 0 LINE",
"337 400 LINE",
"304 400 LINE",
"250 341 LINE",
"323 0 LINE"
);
}
);
width = 541;
},
{
anchors = (
{
name = top;
position = "{280, 400}";
}
);
hints = (
{
horizontal = 1;
place = "{15.000000, 21.000000}";
},
{
horizontal = 1;
place = "{400.000000, -20.000000}";
}
);
layerId = "39185045-6A8C-415A-8312-7B8F11386A4C";
name = Bold;
paths = (
{
closed = 1;
nodes = (
"227 0 LINE",
"320 400 LINE",
"248 400 LINE",
"163 0 LINE"
);
},
{
closed = 1;
nodes = (
"203 0 LINE",
"132 400 LINE",
"2 400 LINE",
"83 0 LINE"
);
},
{
closed = 1;
nodes = (
"457 0 LINE",
"552 400 LINE",
"479 400 LINE",
"395 0 LINE"
);
},
{
closed = 1;
nodes = (
"433 0 LINE",
"362 400 LINE",
"320 400 LINE",
"250 318 LINE",
"312 0 LINE"
);
}
);
width = 555;
}
);
unicode = 0077;
},
{
glyphname = x;
lastChange = "2014-10-23 15:27:43 +0000";
layers = (
{
hints = (
{
horizontal = 1;
place = "{400.000000, -20.000000}";
},
{
horizontal = 1;
place = "{15.000000, 21.000000}";
}
);
layerId = "E777F328-EA17-4AE7-9EBA-8002E537BA4F";
name = Regular;
paths = (
{
closed = 1;
nodes = (
"369 0 LINE",
"111 400 LINE",
"2 400 LINE",
"260 0 LINE"
);
},
{
closed = 1;
nodes = (
"54 0 LINE",
"183 174 LINE",
"160 213 LINE",
"-3 0 LINE"
);
},
{
closed = 1;
nodes = (
"364 400 LINE",
"307 400 LINE",
"179 228 LINE",
"202 188 LINE"
);
}
);
width = 372;
},
{
hints = (
{
horizontal = 1;
place = "{400.000000, -20.000000}";
},
{
horizontal = 1;
place = "{15.000000, 21.000000}";
}
);
layerId = "39185045-6A8C-415A-8312-7B8F11386A4C";
name = Bold;
paths = (
{
closed = 1;
nodes = (
"390 0 LINE",
"142 400 LINE",
"1 400 LINE",
"249 0 LINE"
);
},
{
closed = 1;
nodes = (
"68 0 LINE",
"191 165 LINE",
"162 216 LINE",
"-5 0 LINE"
);
},
{
closed = 1;
nodes = (
"385 400 LINE",
"312 400 LINE",
"186 234 LINE",
"215 183 LINE"
);
}
);
width = 395;
}
);
unicode = 0078;
},
{
glyphname = y;
lastChange = "2014-10-23 15:27:43 +0000";
layers = (
{
anchors = (
{
name = top;
position = "{212, 400}";
}
);
hints = (
{
horizontal = 1;
place = "{400.000000, -20.000000}";
},
{
horizontal = 1;
place = "{-150.071429, 21.000000}";
}
);
layerId = "E777F328-EA17-4AE7-9EBA-8002E537BA4F";
name = Regular;
paths = (
{
closed = 1;
nodes = (
"240 66 LINE",
"104 400 LINE",
"5 400 LINE",
"186 -28 LINE"
);
},
{
closed = 1;
nodes = (
"182 -169 LINE",
"381 400 LINE",
"324 400 LINE",
"194 7 LINE",
"104 -159 LINE"
);
}
);
width = 384;
},
{
anchors = (
{
name = top;
position = "{221, 400}";
}
);
hints = (
{
horizontal = 1;
place = "{400.000000, -20.000000}";
},
{
horizontal = 1;
place = "{-144.714286, 21.000000}";
}
);
layerId = "39185045-6A8C-415A-8312-7B8F11386A4C";
name = Bold;
paths = (
{
closed = 1;
nodes = (
"255 89 LINE",
"128 400 LINE",
"-1 400 LINE",
"185 -30 LINE"
);
},
{
closed = 1;
nodes = (
"200 -169 LINE",
"389 400 LINE",
"316 400 LINE",
"194 4 LINE",
"105 -159 LINE"
);
}
);
width = 387;
}
);
unicode = 0079;
},
{
glyphname = z;
lastChange = "2014-10-23 15:27:43 +0000";
layers = (
{
anchors = (
{
name = top;
position = "{178, 400}";
}
);
hints = (
{
horizontal = 1;
place = "{0.000000, 69.357143}";
},
{
horizontal = 1;
place = "{331.535714, 69.357143}";
}
);
layerId = "E777F328-EA17-4AE7-9EBA-8002E537BA4F";
name = Regular;
paths = (
{
closed = 1;
nodes = (
"28 350 LINE",
"256 350 LINE",
"237 368 LINE",
"22 60 LINE",
"22 0 LINE",
"333 0 LINE",
"333 50 LINE",
"96 50 LINE",
"115 33 LINE",
"327 340 LINE",
"327 400 LINE",
"28 400 LINE"
);
}
);
width = 355;
},
{
anchors = (
{
name = top;
position = "{174, 400}";
}
);
hints = (
{
horizontal = 1;
place = "{0.000000, 87.571429}";
},
{
horizontal = 1;
place = "{313.857143, 87.571429}";
}
);
layerId = "39185045-6A8C-415A-8312-7B8F11386A4C";
name = Bold;
paths = (
{
closed = 1;
nodes = (
"21 335 LINE",
"237 335 LINE",
"212 362 LINE",
"17 75 LINE",
"17 0 LINE",
"332 0 LINE",
"332 65 LINE",
"112 65 LINE",
"137 40 LINE",
"328 325 LINE",
"328 400 LINE",
"21 400 LINE"
);
}
);
width = 349;
}
);
unicode = 007A;
},
{
glyphname = f.alt;
lastChange = "2014-10-23 15:27:43 +0000";
layers = (
{
hints = (
{
place = "{72.142857, 99.000000}";
},
{
horizontal = 1;
place = "{336.428571, 63.571429}";
},
{
horizontal = 1;
place = "{464.714286, 78.285714}";
},
{
horizontal = 1;
place = "{15.000000, 15.000000}";
}
);
layerId = "E777F328-EA17-4AE7-9EBA-8002E537BA4F";
name = Regular;
paths = (
{
closed = 1;
nodes = (
"387 505 LINE",
"352 528 OFFCURVE",
"299 550 OFFCURVE",
"241 550 CURVE SMOOTH",
"134 550 OFFCURVE",
"72 502 OFFCURVE",
"72 400 CURVE SMOOTH",
"72 0 LINE",
"171 0 LINE",
"171 411 LINE SMOOTH",
"171 461 OFFCURVE",
"199 492 OFFCURVE",
"241 492 CURVE SMOOTH",
"291 492 OFFCURVE",
"326 469 OFFCURVE",
"352 436 CURVE"
);
},
{
closed = 1;
nodes = (
"8 350 LINE",
"257 350 LINE",
"257 400 LINE",
"8 400 LINE"
);
}
);
width = 247;
},
{
hints = (
{
place = "{61.428571, 129.000000}";
},
{
horizontal = 1;
place = "{319.285714, 80.714286}";
},
{
horizontal = 1;
place = "{441.142857, 101.857143}";
},
{
horizontal = 1;
place = "{15.000000, 15.000000}";
}
);
layerId = "39185045-6A8C-415A-8312-7B8F11386A4C";
name = Bold;
paths = (
{
closed = 1;
nodes = (
"408 507 LINE",
"365 533 OFFCURVE",
"307 550 OFFCURVE",
"252 550 CURVE SMOOTH",
"122 550 OFFCURVE",
"61 493 OFFCURVE",
"61 391 CURVE SMOOTH",
"61 0 LINE",
"190 0 LINE",
"190 403 LINE SMOOTH",
"190 436 OFFCURVE",
"207 473 OFFCURVE",
"252 473 CURVE SMOOTH",
"297 473 OFFCURVE",
"331 458 OFFCURVE",
"363 419 CURVE"
);
},
{
closed = 1;
nodes = (
"1 335 LINE",
"264 335 LINE",
"264 400 LINE",
"1 400 LINE"
);
}
);
width = 256;
}
);
},
{
glyphname = fi;
lastChange = "2014-10-23 15:27:43 +0000";
layers = (
{
components = (
{
name = f.alt;
},
{
name = dotlessi;
transform = "{1, 0, 0, 1, 247, 0}";
}
);
layerId = "E777F328-EA17-4AE7-9EBA-8002E537BA4F";
name = Regular;
paths = (
{
closed = 1;
nodes = (
"236 350 LINE",
"325 350 LINE",
"325 400 LINE",
"236 400 LINE"
);
}
);
width = 475;
},
{
components = (
{
name = f.alt;
},
{
name = dotlessi;
transform = "{1, 0, 0, 1, 256, 0}";
}
);
layerId = "39185045-6A8C-415A-8312-7B8F11386A4C";
name = Bold;
paths = (
{
closed = 1;
nodes = (
"244 335 LINE",
"326 335 LINE",
"326 400 LINE",
"244 400 LINE"
);
}
);
width = 499;
}
);
unicode = FB01;
},
{
glyphname = ordfeminine;
lastChange = "2014-10-23 15:27:43 +0000";
layers = (
{
hints = (
{
place = "{21.642857, 91.071429}";
},
{
place = "{179.892857, 89.535714}";
},
{
horizontal = 1;
place = "{140.000000, 55.892857}";
},
{
horizontal = 1;
place = "{245.000000, 56.464286}";
},
{
horizontal = 1;
place = "{464.750000, 67.250000}";
}
);
layerId = "E777F328-EA17-4AE7-9EBA-8002E537BA4F";
name = Regular;
paths = (
{
closed = 1;
nodes = (
"109 430 LINE",
"113 486 OFFCURVE",
"129 498 OFFCURVE",
"153 498 CURVE SMOOTH",
"174 498 OFFCURVE",
"187 483 OFFCURVE",
"187 434 CURVE SMOOTH",
"187 407 LINE",
"127 400 LINE SMOOTH",
"56 390 OFFCURVE",
"28 357 OFFCURVE",
"28 315 CURVE SMOOTH",
"28 270 OFFCURVE",
"51 238 OFFCURVE",
"107 238 CURVE SMOOTH",
"153 238 OFFCURVE",
"180 257 OFFCURVE",
"201 276 CURVE",
"227 245 LINE",
"271 245 LINE",
"271 435 LINE SMOOTH",
"271 515 OFFCURVE",
"210 532 OFFCURVE",
"153 532 CURVE SMOOTH",
"92 532 OFFCURVE",
"49 503 OFFCURVE",
"42 447 CURVE"
);
},
{
closed = 1;
nodes = (
"118 278 OFFCURVE",
"104 294 OFFCURVE",
"104 317 CURVE SMOOTH",
"104 336 OFFCURVE",
"111 370 OFFCURVE",
"159 377 CURVE SMOOTH",
"187 380 LINE",
"187 295 LINE",
"179 287 OFFCURVE",
"165 278 OFFCURVE",
"143 278 CURVE SMOOTH"
);
},
{
closed = 1;
nodes = (
"22 140 LINE",
"275 140 LINE",
"275 197 LINE",
"22 197 LINE"
);
}
);
width = 306;
},
{
hints = (
{
place = "{18.428571, 115.714286}";
},
{
place = "{165.428571, 116.857143}";
},
{
horizontal = 1;
place = "{125.000000, 71.428571}";
},
{
horizontal = 1;
place = "{245.000000, 74.142857}";
},
{
horizontal = 1;
place = "{446.000000, 86.000000}";
}
);
layerId = "39185045-6A8C-415A-8312-7B8F11386A4C";
name = Bold;
paths = (
{
closed = 1;
nodes = (
"120 423 LINE",
"123 486 OFFCURVE",
"135 489 OFFCURVE",
"151 489 CURVE SMOOTH",
"166 489 OFFCURVE",
"172 474 OFFCURVE",
"172 434 CURVE SMOOTH",
"172 407 LINE",
"119 402 LINE SMOOTH",
"51 394 OFFCURVE",
"20 361 OFFCURVE",
"20 318 CURVE SMOOTH",
"20 270 OFFCURVE",
"46 238 OFFCURVE",
"103 238 CURVE SMOOTH",
"145 238 OFFCURVE",
"168 252 OFFCURVE",
"190 269 CURVE",
"221 245 LINE",
"279 245 LINE",
"279 435 LINE SMOOTH",
"279 515 OFFCURVE",
"209 532 OFFCURVE",
"151 532 CURVE SMOOTH",
"88 532 OFFCURVE",
"40 503 OFFCURVE",
"34 444 CURVE"
);
},
{
closed = 1;
nodes = (
"131 289 OFFCURVE",
"117 300 OFFCURVE",
"117 321 CURVE SMOOTH",
"117 332 OFFCURVE",
"120 370 OFFCURVE",
"161 374 CURVE SMOOTH",
"172 374 LINE",
"172 289 LINE",
"173 291 OFFCURVE",
"165 289 OFFCURVE",
"151 289 CURVE SMOOTH"
);
},
{
closed = 1;
nodes = (
"15 125 LINE",
"282 125 LINE",
"282 198 LINE",
"15 198 LINE"
);
}
);
width = 301;
}
);
unicode = 00AA;
},
{
glyphname = ordmasculine;
lastChange = "2014-10-23 15:27:43 +0000";
layers = (
{
hints = (
{
place = "{9.142857, 89.642857}";
},
{
place = "{185.821429, 89.642857}";
},
{
horizontal = 1;
place = "{140.000000, 55.892857}";
},
{
horizontal = 1;
place = "{238.000000, 67.250000}";
},
{
horizontal = 1;
place = "{464.750000, 67.250000}";
}
);
layerId = "E777F328-EA17-4AE7-9EBA-8002E537BA4F";
name = Regular;
paths = (
{
closed = 1;
nodes = (
"29 140 LINE",
"282 140 LINE",
"282 197 LINE",
"29 197 LINE"
);
},
{
closed = 1;
nodes = (
"114 273 OFFCURVE",
"106 310 OFFCURVE",
"106 385 CURVE SMOOTH",
"106 460 OFFCURVE",
"114 498 OFFCURVE",
"155 498 CURVE SMOOTH",
"198 498 OFFCURVE",
"206 460 OFFCURVE",
"206 385 CURVE SMOOTH",
"206 310 OFFCURVE",
"198 273 OFFCURVE",
"155 273 CURVE SMOOTH"
);
},
{
closed = 1;
nodes = (
"264 238 OFFCURVE",
"289 309 OFFCURVE",
"289 385 CURVE SMOOTH",
"289 461 OFFCURVE",
"264 532 OFFCURVE",
"155 532 CURVE SMOOTH",
"48 532 OFFCURVE",
"22 461 OFFCURVE",
"22 385 CURVE SMOOTH",
"22 309 OFFCURVE",
"48 238 OFFCURVE",
"155 238 CURVE SMOOTH"
);
}
);
width = 312;
},
{
hints = (
{
place = "{-1.571429, 116.428571}";
},
{
place = "{161.714286, 116.428571}";
},
{
horizontal = 1;
place = "{125.000000, 71.428571}";
},
{
horizontal = 1;
place = "{238.000000, 86.000000}";
},
{
horizontal = 1;
place = "{446.000000, 86.000000}";
}
);
layerId = "39185045-6A8C-415A-8312-7B8F11386A4C";
name = Bold;
paths = (
{
closed = 1;
nodes = (
"22 125 LINE",
"289 125 LINE",
"289 198 LINE",
"22 198 LINE"
);
},
{
closed = 1;
nodes = (
"128 280 OFFCURVE",
"121 304 OFFCURVE",
"121 385 CURVE SMOOTH",
"121 466 OFFCURVE",
"128 490 OFFCURVE",
"154 490 CURVE SMOOTH",
"183 490 OFFCURVE",
"188 466 OFFCURVE",
"188 385 CURVE SMOOTH",
"188 304 OFFCURVE",
"183 280 OFFCURVE",
"154 280 CURVE SMOOTH"
);
},
{
closed = 1;
nodes = (
"269 238 OFFCURVE",
"296 309 OFFCURVE",
"296 385 CURVE SMOOTH",
"296 461 OFFCURVE",
"269 532 OFFCURVE",
"154 532 CURVE SMOOTH",
"42 532 OFFCURVE",
"15 461 OFFCURVE",
"15 385 CURVE SMOOTH",
"15 309 OFFCURVE",
"42 238 OFFCURVE",
"154 238 CURVE SMOOTH"
);
}
);
width = 311;
}
);
unicode = 00BA;
},
{
glyphname = Omega;
lastChange = "2014-10-23 15:27:43 +0000";
layers = (
{
anchors = (
{
name = topleft;
position = "{14, 511}";
}
);
hints = (
{
place = "{36.250000, 100.000000}";
},
{
place = "{137.750000, 85.857143}";
},
{
place = "{333.000000, 85.750000}";
},
{
place = "{420.250000, 100.000000}";
},
{
horizontal = 1;
place = "{0.000000, 64.571429}";
},
{
horizontal = 1;
place = "{440.714286, 80.285714}";
}
);
layerId = "E777F328-EA17-4AE7-9EBA-8002E537BA4F";
name = Regular;
paths = (
{
closed = 1;
nodes = (
"151 138 LINE",
"151 0 LINE",
"224 0 LINE",
"224 126 LINE"
);
},
{
closed = 1;
nodes = (
"57 0 LINE",
"151 0 LINE",
"151 65 LINE",
"57 65 LINE"
);
},
{
closed = 1;
nodes = (
"387 481 OFFCURVE",
"426 402 OFFCURVE",
"426 303 CURVE SMOOTH",
"426 220 OFFCURVE",
"398 160 OFFCURVE",
"333 129 CURVE",
"333 92 LINE",
"472 118 OFFCURVE",
"521 226 OFFCURVE",
"521 306 CURVE SMOOTH",
"521 412 OFFCURVE",
"458 522 OFFCURVE",
"278 522 CURVE SMOOTH",
"98 522 OFFCURVE",
"36 412 OFFCURVE",
"36 306 CURVE SMOOTH",
"36 226 OFFCURVE",
"84 118 OFFCURVE",
"223 92 CURVE",
"223 129 LINE",
"158 160 OFFCURVE",
"130 220 OFFCURVE",
"130 303 CURVE SMOOTH",
"130 402 OFFCURVE",
"169 481 OFFCURVE",
"278 481 CURVE SMOOTH"
);
},
{
closed = 1;
nodes = (
"333 126 LINE",
"333 0 LINE",
"406 0 LINE",
"406 138 LINE"
);
},
{
closed = 1;
nodes = (
"499 65 LINE",
"405 65 LINE",
"405 0 LINE",
"499 0 LINE"
);
}
);
width = 557;
},
{
anchors = (
{
name = topleft;
position = "{14, 511}";
}
);
hints = (
{
place = "{25.000000, 130.000000}";
},
{
place = "{119.000000, 111.571429}";
},
{
place = "{318.000000, 112.000000}";
},
{
place = "{394.000000, 130.000000}";
},
{
horizontal = 1;
place = "{0.000000, 81.714286}";
},
{
horizontal = 1;
place = "{417.142857, 103.857143}";
}
);
layerId = "39185045-6A8C-415A-8312-7B8F11386A4C";
name = Bold;
paths = (
{
closed = 1;
nodes = (
"136 153 LINE",
"136 0 LINE",
"231 0 LINE",
"231 131 LINE"
);
},
{
closed = 1;
nodes = (
"46 0 LINE",
"136 0 LINE",
"136 82 LINE",
"46 82 LINE"
);
},
{
closed = 1;
nodes = (
"371 470 OFFCURVE",
"404 398 OFFCURVE",
"404 304 CURVE SMOOTH",
"404 219 OFFCURVE",
"372 169 OFFCURVE",
"318 135 CURVE",
"318 88 LINE",
"473 111 OFFCURVE",
"525 230 OFFCURVE",
"525 306 CURVE SMOOTH",
"525 412 OFFCURVE",
"466 522 OFFCURVE",
"274 522 CURVE SMOOTH",
"83 522 OFFCURVE",
"25 412 OFFCURVE",
"25 306 CURVE SMOOTH",
"25 230 OFFCURVE",
"76 111 OFFCURVE",
"231 88 CURVE",
"231 135 LINE",
"177 169 OFFCURVE",
"145 219 OFFCURVE",
"145 304 CURVE SMOOTH",
"145 398 OFFCURVE",
"178 470 OFFCURVE",
"274 470 CURVE SMOOTH"
);
},
{
closed = 1;
nodes = (
"318 131 LINE",
"318 0 LINE",
"413 0 LINE",
"413 153 LINE"
);
},
{
closed = 1;
nodes = (
"503 82 LINE",
"413 82 LINE",
"413 0 LINE",
"503 0 LINE"
);
}
);
width = 549;
}
);
unicode = 2126;
},
{
glyphname = mu;
lastChange = "2014-10-23 15:27:43 +0000";
layers = (
{
hints = (
{
place = "{65.250000, 99.000000}";
},
{
place = "{310.250000, 99.000000}";
},
{
horizontal = 1;
place = "{-10.000000, 76.000000}";
},
{
horizontal = 1;
place = "{400.000000, -20.000000}";
},
{
horizontal = 1;
place = "{-144.000000, 21.000000}";
},
{
place = "{407.500000, 99.000000}";
},
{
place = "{163.035714, 99.000000}";
},
{
horizontal = 1;
place = "{-10.000000, 75.821429}";
},
{
horizontal = 1;
place = "{0.000000, 65.821429}";
},
{
horizontal = 1;
place = "{400.000000, 21.000000}";
}
);
layerId = "E777F328-EA17-4AE7-9EBA-8002E537BA4F";
name = Regular;
paths = (
{
closed = 1;
nodes = (
"144 52 OFFCURVE",
"191 -10 OFFCURVE",
"280 -10 CURVE SMOOTH",
"375 -10 OFFCURVE",
"408 44 OFFCURVE",
"408 118 CURVE SMOOTH",
"408 400 LINE",
"309 400 LINE",
"309 129 LINE SMOOTH",
"309 73 OFFCURVE",
"290 42 OFFCURVE",
"244 42 CURVE SMOOTH",
"191 42 OFFCURVE",
"155 82 OFFCURVE",
"120 164 CURVE",
"114 105 LINE"
);
},
{
closed = 1;
nodes = (
"163 400 LINE",
"64 400 LINE",
"64 -169 LINE",
"128 -169 LINE",
"163 60 LINE"
);
}
);
width = 465;
},
{
hints = (
{
place = "{54.000000, 129.000000}";
},
{
place = "{284.000000, 129.000000}";
},
{
horizontal = 1;
place = "{-10.000000, 96.714286}";
},
{
horizontal = 1;
place = "{400.000000, -20.000000}";
},
{
horizontal = 1;
place = "{-144.000000, 21.000000}";
},
{
place = "{418.000000, 129.000000}";
},
{
place = "{185.857143, 129.000000}";
},
{
horizontal = 1;
place = "{-10.000000, 96.714286}";
},
{
horizontal = 1;
place = "{0.000000, 86.714286}";
},
{
horizontal = 1;
place = "{400.000000, 21.000000}";
}
);
layerId = "39185045-6A8C-415A-8312-7B8F11386A4C";
name = Bold;
paths = (
{
closed = 1;
nodes = (
"154 59 OFFCURVE",
"188 -10 OFFCURVE",
"286 -10 CURVE SMOOTH",
"391 -10 OFFCURVE",
"418 52 OFFCURVE",
"418 117 CURVE SMOOTH",
"418 400 LINE",
"289 400 LINE",
"289 133 LINE SMOOTH",
"289 89 OFFCURVE",
"281 57 OFFCURVE",
"240 57 CURVE SMOOTH",
"196 57 OFFCURVE",
"166 96 OFFCURVE",
"127 190 CURVE",
"123 111 LINE"
);
},
{
closed = 1;
nodes = (
"186 400 LINE",
"57 400 LINE",
"57 -169 LINE",
"140 -169 LINE",
"186 56 LINE"
);
}
);
width = 468;
}
);
unicode = 00B5;
},
{
glyphname = pi;
lastChange = "2014-10-23 15:27:43 +0000";
layers = (
{
hints = (
{
place = "{72.250000, 99.000000}";
},
{
place = "{286.250000, 99.000000}";
},
{
horizontal = 1;
place = "{336.428571, 63.571429}";
},
{
horizontal = 1;
place = "{15.000000, 21.000000}";
}
);
layerId = "E777F328-EA17-4AE7-9EBA-8002E537BA4F";
name = Regular;
paths = (
{
closed = 1;
nodes = (
"286 400 LINE",
"286 0 LINE",
"385 0 LINE",
"385 400 LINE"
);
},
{
closed = 1;
nodes = (
"72 400 LINE",
"72 0 LINE",
"171 0 LINE",
"171 400 LINE"
);
},
{
closed = 1;
nodes = (
"30 350 LINE",
"427 350 LINE",
"427 400 LINE",
"30 400 LINE"
);
}
);
width = 458;
},
{
hints = (
{
place = "{61.000000, 129.000000}";
},
{
place = "{275.000000, 129.000000}";
},
{
horizontal = 1;
place = "{319.285714, 80.714286}";
},
{
horizontal = 1;
place = "{15.000000, 21.000000}";
}
);
layerId = "39185045-6A8C-415A-8312-7B8F11386A4C";
name = Bold;
paths = (
{
closed = 1;
nodes = (
"275 400 LINE",
"275 0 LINE",
"404 0 LINE",
"404 400 LINE"
);
},
{
closed = 1;
nodes = (
"61 400 LINE",
"61 0 LINE",
"190 0 LINE",
"190 400 LINE"
);
},
{
closed = 1;
nodes = (
"19 335 LINE",
"446 335 LINE",
"446 400 LINE",
"19 400 LINE"
);
}
);
width = 465;
}
);
unicode = 03C0;
},
{
color = 6;
glyphname = "aShort-deva";
lastChange = "2014-11-14 11:45:58 +0000";
layers = (
{
background = {
paths = (
{
closed = 1;
nodes = (
"175 937 OFFCURVE",
"165 907 OFFCURVE",
"165 878 CURVE SMOOTH",
"165 835 OFFCURVE",
"221 775 OFFCURVE",
"332 775 CURVE SMOOTH",
"391 775 OFFCURVE",
"443 786 OFFCURVE",
"478 786 CURVE SMOOTH",
"573 786 OFFCURVE",
"583 716 OFFCURVE",
"583 694 CURVE SMOOTH",
"583 664 OFFCURVE",
"576 639 OFFCURVE",
"569 625 CURVE",
"616 622 LINE",
"620 642 OFFCURVE",
"627 665 OFFCURVE",
"627 706 CURVE SMOOTH",
"627 735 OFFCURVE",
"613 762 OFFCURVE",
"592 786 CURVE SMOOTH",
"567 815 OFFCURVE",
"520 836 OFFCURVE",
"468 836 CURVE SMOOTH",
"436 836 OFFCURVE",
"321 824 OFFCURVE",
"284 824 CURVE SMOOTH",
"243 824 OFFCURVE",
"209 850 OFFCURVE",
"209 893 CURVE SMOOTH",
"209 908 OFFCURVE",
"214 927 OFFCURVE",
"220 948 CURVE",
"181 955 LINE"
);
}
);
};
components = (
{
name = "a-deva";
},
{
name = "eShortMatra-deva";
transform = "{1, 0, 0, 1, 690, 0}";
}
);
layerId = "E777F328-EA17-4AE7-9EBA-8002E537BA4F";
name = Regular;
width = 690;
},
{
components = (
{
name = "a-deva";
},
{
name = "eShortMatra-deva";
transform = "{1, 0, 0, 1, 749, 0}";
}
);
layerId = "39185045-6A8C-415A-8312-7B8F11386A4C";
name = Bold;
width = 749;
}
);
unicode = 0904;
},
{
color = 6;
glyphname = "aCandra-deva";
lastChange = "2014-11-14 11:54:02 +0000";
layers = (
{
anchors = (
{
name = bottom;
position = "{569, 0}";
},
{
name = nukta;
position = "{224, -100}";
},
{
name = top;
position = "{569, 500}";
}
);
background = {
paths = (
{
closed = 1;
nodes = (
"262 323 LINE",
"301 296 OFFCURVE",
"315 249 OFFCURVE",
"315 210 CURVE SMOOTH",
"315 150 OFFCURVE",
"266 98 OFFCURVE",
"196 98 CURVE SMOOTH",
"102 98 OFFCURVE",
"9 199 OFFCURVE",
"-42 284 CURVE",
"-76 262 LINE",
"-27 173 OFFCURVE",
"69 18 OFFCURVE",
"233 18 CURVE SMOOTH",
"330 18 OFFCURVE",
"394 77 OFFCURVE",
"394 173 CURVE SMOOTH",
"394 251 OFFCURVE",
"357 300 OFFCURVE",
"297 351 CURVE"
);
},
{
closed = 1;
nodes = (
"135 667 OFFCURVE",
"49 630 OFFCURVE",
"12 603 CURVE",
"58 516 LINE",
"99 553 OFFCURVE",
"150 586 OFFCURVE",
"206 586 CURVE SMOOTH",
"258 586 OFFCURVE",
"304 544 OFFCURVE",
"304 497 CURVE SMOOTH",
"304 450 OFFCURVE",
"276 425 OFFCURVE",
"244 407 CURVE SMOOTH",
"208 388 OFFCURVE",
"149 382 OFFCURVE",
"113 380 CURVE",
"102 353 LINE",
"137 289 LINE",
"190 296 OFFCURVE",
"232 303 OFFCURVE",
"296 324 CURVE",
"349 365 OFFCURVE",
"367 422 OFFCURVE",
"367 461 CURVE SMOOTH",
"367 557 OFFCURVE",
"252 665 OFFCURVE",
"172 667 CURVE SMOOTH"
);
},
{
closed = 1;
nodes = (
"304 301 LINE",
"361 261 LINE",
"376 270 LINE",
"414 240 OFFCURVE",
"453 220 OFFCURVE",
"501 220 CURVE SMOOTH",
"537 220 OFFCURVE",
"560 230 OFFCURVE",
"577 243 CURVE",
"571 334 LINE",
"541 313 OFFCURVE",
"509 296 OFFCURVE",
"461 296 CURVE SMOOTH",
"404 296 OFFCURVE",
"337 324 OFFCURVE",
"301 346 CURVE"
);
},
{
closed = 1;
nodes = (
"561 605 LINE",
"561 287 LINE",
"499 232 LINE",
"561 232 LINE",
"561 -1 LINE",
"633 -42 LINE",
"649 -42 LINE",
"649 605 LINE"
);
},
{
closed = 1;
nodes = (
"383 650 LINE",
"383 634 LINE",
"415 575 LINE",
"759 575 LINE",
"759 590 LINE",
"727 650 LINE"
);
},
{
closed = 1;
nodes = (
"736 918 LINE",
"708 874 OFFCURVE",
"647 818 OFFCURVE",
"560 818 CURVE SMOOTH",
"494 818 OFFCURVE",
"441 867 OFFCURVE",
"400 925 CURVE",
"368 911 LINE",
"408 843 OFFCURVE",
"486 752 OFFCURVE",
"598 752 CURVE SMOOTH",
"696 752 OFFCURVE",
"753 798 OFFCURVE",
"800 857 CURVE"
);
}
);
};
components = (
{
name = "a-deva";
},
{
name = "eCandraMatra-deva";
transform = "{1, 0, 0, 1, 690, 0}";
}
);
layerId = "E777F328-EA17-4AE7-9EBA-8002E537BA4F";
name = Regular;
width = 690;
},
{
anchors = (
{
name = bottom;
position = "{583, 0}";
},
{
name = nukta;
position = "{243, -110}";
},
{
name = top;
position = "{583, 500}";
}
);
components = (
{
name = "a-deva";
},
{
name = "eCandraMatra-deva";
transform = "{1, 0, 0, 1, 749, 0}";
}
);
layerId = "39185045-6A8C-415A-8312-7B8F11386A4C";
name = Bold;
width = 749;
}
);
unicode = 0972;
},
{
color = 3;
glyphname = "a-deva";
lastChange = "2014-11-14 12:23:40 +0000";
layers = (
{
anchors = (
{
name = bottom;
position = "{570, 0}";
},
{
name = nukta;
position = "{255, -100}";
},
{
name = top;
position = "{570, 500}";
}
);
background = {
paths = (
{
closed = 1;
nodes = (
"150 510 OFFCURVE",
"70 462 OFFCURVE",
"70 405 CURVE SMOOTH",
"70 377 OFFCURVE",
"94 355 OFFCURVE",
"125 355 CURVE SMOOTH",
"146 355 OFFCURVE",
"172 365 OFFCURVE",
"200 385 CURVE",
"187 396 OFFCURVE",
"180 408 OFFCURVE",
"180 420 CURVE SMOOTH",
"180 453 OFFCURVE",
"209 480 OFFCURVE",
"245 480 CURVE SMOOTH",
"286 480 OFFCURVE",
"320 449 OFFCURVE",
"320 410 CURVE SMOOTH",
"320 342 OFFCURVE",
"284 305 OFFCURVE",
"185 305 CURVE",
"150 253 LINE",
"168 260 OFFCURVE",
"190 263 OFFCURVE",
"215 263 CURVE SMOOTH",
"292 263 OFFCURVE",
"355 209 OFFCURVE",
"355 140 CURVE SMOOTH",
"355 76 OFFCURVE",
"310 25 OFFCURVE",
"255 25 CURVE SMOOTH",
"208 25 OFFCURVE",
"170 73 OFFCURVE",
"170 130 CURVE SMOOTH",
"170 146 OFFCURVE",
"172 165 OFFCURVE",
"175 180 CURVE",
"111 180 OFFCURVE",
"60 149 OFFCURVE",
"60 110 CURVE SMOOTH",
"60 43 OFFCURVE",
"147 -10 OFFCURVE",
"255 -10 CURVE SMOOTH",
"371 -10 OFFCURVE",
"465 57 OFFCURVE",
"465 140 CURVE SMOOTH",
"465 210 OFFCURVE",
"426 280 OFFCURVE",
"305 294 CURVE",
"388 316 OFFCURVE",
"430 363 OFFCURVE",
"430 410 CURVE SMOOTH",
"430 465 OFFCURVE",
"360 510 OFFCURVE",
"250 510 CURVE SMOOTH"
);
},
{
closed = 1;
nodes = (
"470 500 LINE",
"470 470 LINE",
"520 470 LINE",
"520 285 LINE",
"467 285 OFFCURVE",
"407 261 OFFCURVE",
"400 229 CURVE",
"394 200 LINE",
"422 227 OFFCURVE",
"467 240 OFFCURVE",
"490 240 CURVE SMOOTH",
"501 240 OFFCURVE",
"511 237 OFFCURVE",
"520 230 CURVE",
"520 0 LINE",
"620 0 LINE",
"620 470 LINE",
"700 470 LINE",
"700 500 LINE"
);
}
);
};
components = (
{
name = "connect-deva";
transform = "{1, 0, 0, 1, 382, -52}";
}
);
layerId = "E777F328-EA17-4AE7-9EBA-8002E537BA4F";
name = Regular;
paths = (
{
closed = 1;
nodes = (
"128 510 OFFCURVE",
"50 458 OFFCURVE",
"50 395 CURVE SMOOTH",
"50 357 OFFCURVE",
"74 338 OFFCURVE",
"100 338 CURVE SMOOTH",
"124 338 OFFCURVE",
"150 349 OFFCURVE",
"170 375 CURVE",
"157 386 OFFCURVE",
"150 402 OFFCURVE",
"150 420 CURVE SMOOTH",
"150 453 OFFCURVE",
"182 480 OFFCURVE",
"225 480 CURVE SMOOTH",
"262 480 OFFCURVE",
"290 449 OFFCURVE",
"290 410 CURVE SMOOTH",
"290 339 OFFCURVE",
"244 300 OFFCURVE",
"155 300 CURVE",
"130 253 LINE",
"149 260 OFFCURVE",
"170 263 OFFCURVE",
"195 263 CURVE SMOOTH",
"267 263 OFFCURVE",
"325 209 OFFCURVE",
"325 140 CURVE SMOOTH",
"325 76 OFFCURVE",
"292 25 OFFCURVE",
"225 25 CURVE SMOOTH",
"176 25 OFFCURVE",
"140 73 OFFCURVE",
"140 130 CURVE SMOOTH",
"140 146 OFFCURVE",
"142 165 OFFCURVE",
"145 180 CURVE",
"78 180 OFFCURVE",
"40 149 OFFCURVE",
"40 110 CURVE SMOOTH",
"40 43 OFFCURVE",
"113 -10 OFFCURVE",
"225 -10 CURVE SMOOTH",
"342 -10 OFFCURVE",
"435 57 OFFCURVE",
"435 140 CURVE SMOOTH",
"435 209 OFFCURVE",
"386 278 OFFCURVE",
"275 293 CURVE",
"358 317 OFFCURVE",
"400 363 OFFCURVE",
"400 410 CURVE SMOOTH",
"400 465 OFFCURVE",
"333 510 OFFCURVE",
"225 510 CURVE SMOOTH"
);
},
{
closed = 1;
nodes = (
"470 500 LINE",
"470 470 LINE",
"520 470 LINE",
"520 0 LINE",
"620 0 LINE",
"620 470 LINE",
"700 470 LINE",
"700 500 LINE"
);
}
);
width = 690;
},
{
anchors = (
{
name = bottom;
position = "{614, 0}";
},
{
name = nukta;
position = "{274, -110}";
},
{
name = top;
position = "{614, 500}";
}
);
components = (
{
name = "connect-deva";
transform = "{1, 0, 0, 1, 414, -52}";
}
);
layerId = "39185045-6A8C-415A-8312-7B8F11386A4C";
name = Bold;
paths = (
{
closed = 1;
nodes = (
"130 510 OFFCURVE",
"45 461 OFFCURVE",
"45 400 CURVE SMOOTH",
"45 355 OFFCURVE",
"75 330 OFFCURVE",
"112 330 CURVE SMOOTH",
"141 330 OFFCURVE",
"173 343 OFFCURVE",
"199 370 CURVE",
"184 383 OFFCURVE",
"175 399 OFFCURVE",
"175 415 CURVE SMOOTH",
"175 451 OFFCURVE",
"204 470 OFFCURVE",
"234 470 CURVE SMOOTH",
"266 470 OFFCURVE",
"292 443 OFFCURVE",
"292 410 CURVE SMOOTH",
"292 344 OFFCURVE",
"243 310 OFFCURVE",
"174 310 CURVE",
"139 250 LINE",
"157 257 OFFCURVE",
"179 260 OFFCURVE",
"204 260 CURVE SMOOTH",
"272 260 OFFCURVE",
"327 207 OFFCURVE",
"327 140 CURVE SMOOTH",
"327 83 OFFCURVE",
"299 35 OFFCURVE",
"244 35 CURVE SMOOTH",
"193 35 OFFCURVE",
"165 78 OFFCURVE",
"165 130 CURVE SMOOTH",
"165 152 OFFCURVE",
"168 167 OFFCURVE",
"174 190 CURVE",
"78 190 OFFCURVE",
"35 149 OFFCURVE",
"35 110 CURVE SMOOTH",
"35 33 OFFCURVE",
"129 -10 OFFCURVE",
"244 -10 CURVE SMOOTH",
"369 -10 OFFCURVE",
"470 57 OFFCURVE",
"470 140 CURVE SMOOTH",
"470 228 OFFCURVE",
"410 275 OFFCURVE",
"314 300 CURVE",
"386 319 OFFCURVE",
"435 365 OFFCURVE",
"435 410 CURVE SMOOTH",
"435 465 OFFCURVE",
"345 510 OFFCURVE",
"234 510 CURVE SMOOTH"
);
},
{
closed = 1;
nodes = (
"499 500 LINE",
"499 470 LINE",
"549 470 LINE",
"549 0 LINE",
"679 0 LINE",
"679 470 LINE",
"759 470 LINE",
"759 500 LINE"
);
}
);
width = 749;
},
{
anchors = (
{
name = bottom;
position = "{539, 0}";
},
{
name = nukta;
position = "{224, -100}";
},
{
name = top;
position = "{539, 500}";
}
);
associatedMasterId = "E777F328-EA17-4AE7-9EBA-8002E537BA4F";
background = {
paths = (
{
closed = 1;
nodes = (
"119 510 OFFCURVE",
"39 462 OFFCURVE",
"39 405 CURVE SMOOTH",
"39 377 OFFCURVE",
"63 355 OFFCURVE",
"94 355 CURVE SMOOTH",
"115 355 OFFCURVE",
"141 365 OFFCURVE",
"169 385 CURVE",
"156 396 OFFCURVE",
"149 408 OFFCURVE",
"149 420 CURVE SMOOTH",
"149 453 OFFCURVE",
"178 480 OFFCURVE",
"214 480 CURVE SMOOTH",
"255 480 OFFCURVE",
"289 449 OFFCURVE",
"289 410 CURVE SMOOTH",
"289 342 OFFCURVE",
"253 305 OFFCURVE",
"154 305 CURVE",
"119 253 LINE",
"137 260 OFFCURVE",
"159 263 OFFCURVE",
"184 263 CURVE SMOOTH",
"261 263 OFFCURVE",
"324 209 OFFCURVE",
"324 140 CURVE SMOOTH",
"324 76 OFFCURVE",
"279 25 OFFCURVE",
"224 25 CURVE SMOOTH",
"177 25 OFFCURVE",
"139 73 OFFCURVE",
"139 130 CURVE SMOOTH",
"139 146 OFFCURVE",
"141 165 OFFCURVE",
"144 180 CURVE",
"80 180 OFFCURVE",
"29 149 OFFCURVE",
"29 110 CURVE SMOOTH",
"29 43 OFFCURVE",
"116 -10 OFFCURVE",
"224 -10 CURVE SMOOTH",
"340 -10 OFFCURVE",
"434 57 OFFCURVE",
"434 140 CURVE SMOOTH",
"434 210 OFFCURVE",
"395 280 OFFCURVE",
"274 294 CURVE",
"357 316 OFFCURVE",
"399 363 OFFCURVE",
"399 410 CURVE SMOOTH",
"399 465 OFFCURVE",
"329 510 OFFCURVE",
"219 510 CURVE SMOOTH"
);
},
{
closed = 1;
nodes = (
"439 500 LINE",
"439 470 LINE",
"489 470 LINE",
"489 285 LINE",
"436 285 OFFCURVE",
"376 261 OFFCURVE",
"369 229 CURVE",
"363 200 LINE",
"391 227 OFFCURVE",
"436 240 OFFCURVE",
"459 240 CURVE SMOOTH",
"470 240 OFFCURVE",
"480 237 OFFCURVE",
"489 230 CURVE",
"489 0 LINE",
"589 0 LINE",
"589 470 LINE",
"669 470 LINE",
"669 500 LINE"
);
}
);
};
layerId = "6E756E2E-D470-44DE-BAD6-A89DF6FCE0D8";
name = "Regular Nov 12 14, 16:23";
paths = (
{
closed = 1;
nodes = (
"127 510 OFFCURVE",
"49 458 OFFCURVE",
"49 395 CURVE SMOOTH",
"49 357 OFFCURVE",
"73 338 OFFCURVE",
"99 338 CURVE SMOOTH",
"123 338 OFFCURVE",
"149 349 OFFCURVE",
"169 375 CURVE",
"156 386 OFFCURVE",
"149 402 OFFCURVE",
"149 420 CURVE SMOOTH",
"149 453 OFFCURVE",
"181 480 OFFCURVE",
"224 480 CURVE SMOOTH",
"261 480 OFFCURVE",
"289 449 OFFCURVE",
"289 410 CURVE SMOOTH",
"289 339 OFFCURVE",
"243 300 OFFCURVE",
"154 300 CURVE",
"129 253 LINE",
"148 260 OFFCURVE",
"169 263 OFFCURVE",
"194 263 CURVE SMOOTH",
"266 263 OFFCURVE",
"324 209 OFFCURVE",
"324 140 CURVE SMOOTH",
"324 76 OFFCURVE",
"291 25 OFFCURVE",
"224 25 CURVE SMOOTH",
"175 25 OFFCURVE",
"139 73 OFFCURVE",
"139 130 CURVE SMOOTH",
"139 146 OFFCURVE",
"141 165 OFFCURVE",
"144 180 CURVE",
"77 180 OFFCURVE",
"39 149 OFFCURVE",
"39 110 CURVE SMOOTH",
"39 43 OFFCURVE",
"112 -10 OFFCURVE",
"224 -10 CURVE SMOOTH",
"341 -10 OFFCURVE",
"434 57 OFFCURVE",
"434 140 CURVE SMOOTH",
"434 209 OFFCURVE",
"385 278 OFFCURVE",
"274 293 CURVE",
"357 317 OFFCURVE",
"399 363 OFFCURVE",
"399 410 CURVE SMOOTH",
"399 465 OFFCURVE",
"332 510 OFFCURVE",
"224 510 CURVE SMOOTH"
);
},
{
closed = 1;
nodes = (
"439 500 LINE",
"439 470 LINE",
"489 470 LINE",
"489 285 LINE",
"436 285 OFFCURVE",
"389 265 OFFCURVE",
"363 229 CURVE",
"363 205 LINE",
"388 227 OFFCURVE",
"428 245 OFFCURVE",
"449 245 CURVE SMOOTH",
"465 245 OFFCURVE",
"478 242 OFFCURVE",
"489 235 CURVE",
"489 0 LINE",
"589 0 LINE",
"589 470 LINE",
"669 470 LINE",
"669 500 LINE"
);
}
);
width = 659;
},
{
anchors = (
{
name = bottom;
position = "{583, 0}";
},
{
name = nukta;
position = "{243, -110}";
},
{
name = top;
position = "{583, 500}";
}
);
associatedMasterId = "39185045-6A8C-415A-8312-7B8F11386A4C";
layerId = "AC5E5C0E-A4F5-429B-A884-7A336EAB9CBA";
name = "Bold Nov 12 14, 16:23";
paths = (
{
closed = 1;
nodes = (
"129 510 OFFCURVE",
"44 461 OFFCURVE",
"44 400 CURVE SMOOTH",
"44 355 OFFCURVE",
"74 330 OFFCURVE",
"111 330 CURVE SMOOTH",
"140 330 OFFCURVE",
"172 343 OFFCURVE",
"198 370 CURVE",
"183 383 OFFCURVE",
"174 399 OFFCURVE",
"174 415 CURVE SMOOTH",
"174 451 OFFCURVE",
"203 470 OFFCURVE",
"233 470 CURVE SMOOTH",
"265 470 OFFCURVE",
"291 443 OFFCURVE",
"291 410 CURVE SMOOTH",
"291 344 OFFCURVE",
"242 310 OFFCURVE",
"173 310 CURVE",
"138 250 LINE",
"156 257 OFFCURVE",
"178 260 OFFCURVE",
"203 260 CURVE SMOOTH",
"271 260 OFFCURVE",
"326 207 OFFCURVE",
"326 140 CURVE SMOOTH",
"326 83 OFFCURVE",
"298 35 OFFCURVE",
"243 35 CURVE SMOOTH",
"192 35 OFFCURVE",
"164 78 OFFCURVE",
"164 130 CURVE SMOOTH",
"164 152 OFFCURVE",
"167 167 OFFCURVE",
"173 190 CURVE",
"77 190 OFFCURVE",
"34 149 OFFCURVE",
"34 110 CURVE SMOOTH",
"34 33 OFFCURVE",
"128 -10 OFFCURVE",
"243 -10 CURVE SMOOTH",
"368 -10 OFFCURVE",
"469 57 OFFCURVE",
"469 140 CURVE SMOOTH",
"469 228 OFFCURVE",
"409 275 OFFCURVE",
"313 300 CURVE",
"385 319 OFFCURVE",
"434 365 OFFCURVE",
"434 410 CURVE SMOOTH",
"434 465 OFFCURVE",
"344 510 OFFCURVE",
"233 510 CURVE SMOOTH"
);
},
{
closed = 1;
nodes = (
"468 500 LINE",
"468 470 LINE",
"518 470 LINE",
"518 290 LINE",
"471 290 OFFCURVE",
"419 273 OFFCURVE",
"398 238 CURVE",
"398 200 LINE",
"422 224 OFFCURVE",
"454 238 OFFCURVE",
"476 238 CURVE SMOOTH",
"492 238 OFFCURVE",
"504 236 OFFCURVE",
"518 230 CURVE",
"518 0 LINE",
"648 0 LINE",
"648 470 LINE",
"728 470 LINE",
"728 500 LINE"
);
}
);
width = 718;
}
);
unicode = 0905;
},
{
color = 6;
glyphname = "i-deva";
lastChange = "2014-11-07 16:59:30 +0000";
layers = (
{
anchors = (
{
name = top;
position = "{383, 500}";
}
);
background = {
paths = (
{
closed = 1;
nodes = (
"383 56 OFFCURVE",
"308 20 OFFCURVE",
"235 20 CURVE SMOOTH",
"174 20 OFFCURVE",
"113 52 OFFCURVE",
"113 114 CURVE SMOOTH",
"113 133 OFFCURVE",
"122 148 OFFCURVE",
"133 148 CURVE SMOOTH",
"154 148 OFFCURVE",
"169 125 OFFCURVE",
"233 4 CURVE SMOOTH",
"263 -53 OFFCURVE",
"301 -89 OFFCURVE",
"355 -89 CURVE SMOOTH",
"395 -89 OFFCURVE",
"429 -75 OFFCURVE",
"446 -51 CURVE",
"384 -51 OFFCURVE",
"356 -34 OFFCURVE",
"330 15 CURVE SMOOTH",
"262 142 OFFCURVE",
"218 178 OFFCURVE",
"133 178 CURVE SMOOTH",
"78 178 OFFCURVE",
"34 146 OFFCURVE",
"34 104 CURVE SMOOTH",
"34 38 OFFCURVE",
"119 -10 OFFCURVE",
"228 -10 CURVE SMOOTH",
"352 -10 OFFCURVE",
"483 35 OFFCURVE",
"483 140 CURVE",
"483 309 OFFCURVE",
"183 277 OFFCURVE",
"183 360 CURVE SMOOTH",
"183 389 OFFCURVE",
"213 400 OFFCURVE",
"238 400 CURVE SMOOTH",
"281 400 OFFCURVE",
"323 381 OFFCURVE",
"353 350 CURVE",
"433 375 LINE",
"433 470 LINE",
"514 470 LINE",
"514 500 LINE",
"-10 500 LINE",
"-10 470 LINE",
"333 470 LINE",
"333 407 LINE",
"288 426 OFFCURVE",
"253 430 OFFCURVE",
"218 430 CURVE SMOOTH",
"145 430 OFFCURVE",
"83 402 OFFCURVE",
"83 337 CURVE SMOOTH",
"83 201 OFFCURVE",
"383 240 OFFCURVE",
"383 123 CURVE"
);
}
);
};
layerId = "E777F328-EA17-4AE7-9EBA-8002E537BA4F";
name = Regular;
paths = (
{
closed = 1;
nodes = (
"383 56 OFFCURVE",
"308 20 OFFCURVE",
"235 20 CURVE SMOOTH",
"179 20 OFFCURVE",
"121 52 OFFCURVE",
"121 114 CURVE SMOOTH",
"121 132 OFFCURVE",
"129 153 OFFCURVE",
"151 153 CURVE SMOOTH",
"222 153 OFFCURVE",
"228 -89 OFFCURVE",
"370 -89 CURVE SMOOTH",
"407 -89 OFFCURVE",
"433 -75 OFFCURVE",
"446 -51 CURVE",
"280 -51 OFFCURVE",
"324 183 OFFCURVE",
"151 183 CURVE SMOOTH",
"89 183 OFFCURVE",
"41 157 OFFCURVE",
"41 104 CURVE SMOOTH",
"41 38 OFFCURVE",
"124 -10 OFFCURVE",
"228 -10 CURVE SMOOTH",
"352 -10 OFFCURVE",
"483 35 OFFCURVE",
"483 140 CURVE",
"483 309 OFFCURVE",
"183 277 OFFCURVE",
"183 360 CURVE SMOOTH",
"183 389 OFFCURVE",
"213 400 OFFCURVE",
"238 400 CURVE SMOOTH",
"281 400 OFFCURVE",
"323 381 OFFCURVE",
"353 350 CURVE",
"433 375 LINE",
"433 470 LINE",
"513 470 LINE",
"513 500 LINE",
"-10 500 LINE",
"-10 470 LINE",
"333 470 LINE",
"333 407 LINE",
"288 426 OFFCURVE",
"253 430 OFFCURVE",
"218 430 CURVE SMOOTH",
"145 430 OFFCURVE",
"83 402 OFFCURVE",
"83 337 CURVE SMOOTH",
"83 201 OFFCURVE",
"383 240 OFFCURVE",
"383 123 CURVE"
);
}
);
width = 503;
},
{
anchors = (
{
name = top;
position = "{399, 500}";
}
);
background = {
paths = (
{
closed = 1;
nodes = (
"377 63 OFFCURVE",
"309 30 OFFCURVE",
"241 30 CURVE SMOOTH",
"177 30 OFFCURVE",
"116 57 OFFCURVE",
"116 112 CURVE SMOOTH",
"116 132 OFFCURVE",
"126 142 OFFCURVE",
"135 142 CURVE SMOOTH",
"145 142 OFFCURVE",
"166 133 OFFCURVE",
"220 15 CURVE SMOOTH",
"250 -51 OFFCURVE",
"300 -95.943 OFFCURVE",
"365 -96 CURVE SMOOTH",
"422 -96 OFFCURVE",
"466 -78 OFFCURVE",
"486 -47 CURVE",
"415 -47 OFFCURVE",
"376 -37 OFFCURVE",
"342 29 CURVE SMOOTH",
"290 129 OFFCURVE",
"242 182 OFFCURVE",
"135 182 CURVE SMOOTH",
"70 182 OFFCURVE",
"19 149 OFFCURVE",
"19 108 CURVE SMOOTH",
"19 30 OFFCURVE",
"115 -10 OFFCURVE",
"231 -10 CURVE SMOOTH",
"355 -10 OFFCURVE",
"520 28 OFFCURVE",
"520 150 CURVE",
"520 314 OFFCURVE",
"222 295 OFFCURVE",
"222 363 CURVE SMOOTH",
"222 380 OFFCURVE",
"236 390 OFFCURVE",
"264 390 CURVE SMOOTH",
"297 390 OFFCURVE",
"328 375 OFFCURVE",
"353 350 CURVE",
"464 384 LINE",
"464 470 LINE",
"556 470 LINE",
"556 500 LINE",
"-10 500 LINE",
"-10 470 LINE",
"334 470 LINE",
"334 413 LINE",
"303 424 OFFCURVE",
"278 430 OFFCURVE",
"219 430 CURVE SMOOTH",
"140 430 OFFCURVE",
"79 399 OFFCURVE",
"79 335 CURVE SMOOTH",
"79 195 OFFCURVE",
"377 242 OFFCURVE",
"377 125 CURVE"
);
}
);
};
layerId = "39185045-6A8C-415A-8312-7B8F11386A4C";
name = Bold;
paths = (
{
closed = 1;
nodes = (
"377 63 OFFCURVE",
"309 30 OFFCURVE",
"241 30 CURVE SMOOTH",
"192 30 OFFCURVE",
"143 48 OFFCURVE",
"143 103 CURVE SMOOTH",
"143 123 OFFCURVE",
"156 143 OFFCURVE",
"172 143 CURVE SMOOTH",
"245 143 OFFCURVE",
"224 -96 OFFCURVE",
"395 -96 CURVE SMOOTH",
"439 -96 OFFCURVE",
"471 -78 OFFCURVE",
"486 -47 CURVE",
"291 -47 OFFCURVE",
"373 183 OFFCURVE",
"172 183 CURVE SMOOTH",
"81 183 OFFCURVE",
"39 143 OFFCURVE",
"39 99 CURVE SMOOTH",
"39 21 OFFCURVE",
"126 -10 OFFCURVE",
"231 -10 CURVE SMOOTH",
"355 -10 OFFCURVE",
"520 28 OFFCURVE",
"520 150 CURVE",
"520 314 OFFCURVE",
"222 295 OFFCURVE",
"222 363 CURVE SMOOTH",
"222 380 OFFCURVE",
"236 390 OFFCURVE",
"264 390 CURVE SMOOTH",
"297 390 OFFCURVE",
"328 375 OFFCURVE",
"353 350 CURVE",
"464 384 LINE",
"464 470 LINE",
"556 470 LINE",
"556 500 LINE",
"-10 500 LINE",
"-10 470 LINE",
"334 470 LINE",
"334 413 LINE",
"303 424 OFFCURVE",
"278 430 OFFCURVE",
"219 430 CURVE SMOOTH",
"140 430 OFFCURVE",
"79 399 OFFCURVE",
"79 335 CURVE SMOOTH",
"79 195 OFFCURVE",
"377 242 OFFCURVE",
"377 125 CURVE"
);
}
);
width = 546;
}
);
unicode = 0907;
},
{
color = 6;
glyphname = "ii-deva";
lastChange = "2014-11-13 17:11:54 +0000";
layers = (
{
anchors = (
{
name = top;
position = "{383, 500}";
}
);
background = {
paths = (
{
closed = 1;
nodes = (
"268 964 OFFCURVE",
"186 909 OFFCURVE",
"186 822 CURVE SMOOTH",
"186 755 OFFCURVE",
"239 684 OFFCURVE",
"304 633 CURVE",
"304 572 LINE",
"369 631 LINE",
"329 668 OFFCURVE",
"281 735 OFFCURVE",
"281 795 CURVE SMOOTH",
"281 859 OFFCURVE",
"321 890 OFFCURVE",
"370 890 CURVE SMOOTH",
"414 890 OFFCURVE",
"467 864 OFFCURVE",
"489 847 CURVE",
"515 889 LINE",
"472 934 OFFCURVE",
"414 964 OFFCURVE",
"355 964 CURVE SMOOTH"
);
},
{
closed = 0;
nodes = (
"183 826 LINE",
"288 796 LINE"
);
},
{
closed = 0;
nodes = (
"347 979 LINE",
"368 876 LINE"
);
}
);
};
components = (
{
name = "i-deva";
},
{
name = "reph-deva";
transform = "{1, 0, 0, 1, 516, 0}";
}
);
layerId = "E777F328-EA17-4AE7-9EBA-8002E537BA4F";
name = Regular;
width = 503;
},
{
anchors = (
{
name = top;
position = "{399, 500}";
}
);
components = (
{
name = "i-deva";
},
{
name = "reph-deva";
transform = "{1, 0, 0, 1, 547, 0}";
}
);
layerId = "39185045-6A8C-415A-8312-7B8F11386A4C";
name = Bold;
width = 546;
}
);
unicode = 0908;
},
{
color = 6;
glyphname = "u-deva";
lastChange = "2014-11-05 22:49:12 +0000";
layers = (
{
anchors = (
{
name = bottom;
position = "{250, 0}";
},
{
name = top;
position = "{275, 500}";
}
);
background = {
paths = (
{
closed = 1;
nodes = (
"119 253 LINE",
"137 260 OFFCURVE",
"159 263 OFFCURVE",
"184 263 CURVE SMOOTH",
"261 263 OFFCURVE",
"324 209 OFFCURVE",
"324 140 CURVE SMOOTH",
"324 76 OFFCURVE",
"279 25 OFFCURVE",
"224 25 CURVE SMOOTH",
"177 25 OFFCURVE",
"139 73 OFFCURVE",
"139 130 CURVE SMOOTH",
"139 146 OFFCURVE",
"141 165 OFFCURVE",
"144 180 CURVE",
"70 180 OFFCURVE",
"29 149 OFFCURVE",
"29 110 CURVE SMOOTH",
"29 43 OFFCURVE",
"106 -10 OFFCURVE",
"224 -10 CURVE SMOOTH",
"340 -10 OFFCURVE",
"434 57 OFFCURVE",
"434 140 CURVE SMOOTH",
"434 210 OFFCURVE",
"395 280 OFFCURVE",
"274 294 CURVE",
"357 314 OFFCURVE",
"399 351 OFFCURVE",
"399 398 CURVE SMOOTH",
"399 444 OFFCURVE",
"318 495 OFFCURVE",
"189 495 CURVE",
"184 470 LINE",
"253 470 OFFCURVE",
"289 427 OFFCURVE",
"289 388 CURVE SMOOTH",
"289 328 OFFCURVE",
"250 305 OFFCURVE",
"154 305 CURVE"
);
}
);
};
layerId = "E777F328-EA17-4AE7-9EBA-8002E537BA4F";
name = Regular;
paths = (
{
closed = 1;
nodes = (
"-10 500 LINE",
"-10 470 LINE",
"473 470 LINE",
"473 500 LINE"
);
},
{
closed = 1;
nodes = (
"224 470 LINE",
"261 470 OFFCURVE",
"289 440 OFFCURVE",
"289 400 CURVE SMOOTH",
"289 335 OFFCURVE",
"243 300 OFFCURVE",
"154 300 CURVE",
"129 253 LINE",
"148 260 OFFCURVE",
"169 263 OFFCURVE",
"194 263 CURVE SMOOTH",
"266 263 OFFCURVE",
"324 209 OFFCURVE",
"324 140 CURVE SMOOTH",
"324 76 OFFCURVE",
"291 25 OFFCURVE",
"224 25 CURVE SMOOTH",
"175 25 OFFCURVE",
"139 73 OFFCURVE",
"139 130 CURVE SMOOTH",
"139 146 OFFCURVE",
"141 165 OFFCURVE",
"144 180 CURVE",
"77 180 OFFCURVE",
"39 149 OFFCURVE",
"39 110 CURVE SMOOTH",
"39 43 OFFCURVE",
"112 -10 OFFCURVE",
"224 -10 CURVE SMOOTH",
"341 -10 OFFCURVE",
"434 57 OFFCURVE",
"434 140 CURVE SMOOTH",
"434 209 OFFCURVE",
"385 278 OFFCURVE",
"274 293 CURVE",
"357 315 OFFCURVE",
"399 356 OFFCURVE",
"399 400 CURVE SMOOTH",
"399 449 OFFCURVE",
"332 490 OFFCURVE",
"224 490 CURVE"
);
}
);
width = 463;
},
{
anchors = (
{
name = bottom;
position = "{265, 0}";
},
{
name = top;
position = "{305, 500}";
}
);
background = {
paths = (
{
closed = 1;
nodes = (
"148 250 LINE",
"166 257 OFFCURVE",
"188 260 OFFCURVE",
"213 260 CURVE SMOOTH",
"285 260 OFFCURVE",
"343 207 OFFCURVE",
"343 140 CURVE SMOOTH",
"343 83 OFFCURVE",
"302 35 OFFCURVE",
"253 35 CURVE SMOOTH",
"212 35 OFFCURVE",
"174 78 OFFCURVE",
"174 130 CURVE SMOOTH",
"174 152 OFFCURVE",
"177 167 OFFCURVE",
"183 190 CURVE",
"83 190 OFFCURVE",
"38 149 OFFCURVE",
"38 110 CURVE SMOOTH",
"38 33 OFFCURVE",
"135 -10 OFFCURVE",
"253 -10 CURVE SMOOTH",
"378 -10 OFFCURVE",
"479 57 OFFCURVE",
"479 140 CURVE SMOOTH",
"479 228 OFFCURVE",
"419 275 OFFCURVE",
"323 300 CURVE",
"395 317 OFFCURVE",
"444 359 OFFCURVE",
"444 400 CURVE SMOOTH",
"444 456 OFFCURVE",
"339 492 OFFCURVE",
"208 492 CURVE",
"203 470 LINE",
"284 470 OFFCURVE",
"308 435 OFFCURVE",
"308 390 CURVE SMOOTH",
"308 336 OFFCURVE",
"275 310 OFFCURVE",
"183 310 CURVE"
);
}
);
};
layerId = "39185045-6A8C-415A-8312-7B8F11386A4C";
name = Bold;
paths = (
{
closed = 1;
nodes = (
"-10 500 LINE",
"-10 470 LINE",
"509 470 LINE",
"509 500 LINE"
);
},
{
closed = 1;
nodes = (
"243 470 LINE",
"275 470 OFFCURVE",
"301 439 OFFCURVE",
"301 400 CURVE SMOOTH",
"301 340 OFFCURVE",
"252 310 OFFCURVE",
"183 310 CURVE",
"148 250 LINE",
"166 257 OFFCURVE",
"188 260 OFFCURVE",
"213 260 CURVE SMOOTH",
"281 260 OFFCURVE",
"336 207 OFFCURVE",
"336 140 CURVE SMOOTH",
"336 83 OFFCURVE",
"308 35 OFFCURVE",
"253 35 CURVE SMOOTH",
"202 35 OFFCURVE",
"174 78 OFFCURVE",
"174 130 CURVE SMOOTH",
"174 152 OFFCURVE",
"177 167 OFFCURVE",
"183 190 CURVE",
"87 190 OFFCURVE",
"44 149 OFFCURVE",
"44 110 CURVE SMOOTH",
"44 33 OFFCURVE",
"138 -10 OFFCURVE",
"253 -10 CURVE SMOOTH",
"378 -10 OFFCURVE",
"479 57 OFFCURVE",
"479 140 CURVE SMOOTH",
"479 228 OFFCURVE",
"419 275 OFFCURVE",
"323 300 CURVE",
"395 317 OFFCURVE",
"444 359 OFFCURVE",
"444 400 CURVE SMOOTH",
"444 449 OFFCURVE",
"354 490 OFFCURVE",
"243 490 CURVE"
);
}
);
width = 499;
}
);
unicode = 0909;
},
{
color = 6;
glyphname = "uu-deva";
lastChange = "2014-11-06 20:55:10 +0000";
layers = (
{
anchors = (
{
name = bottom;
position = "{270, 0}";
},
{
name = top;
position = "{275, 500}";
}
);
background = {
paths = (
{
closed = 1;
nodes = (
"399 225 LINE",
"418 270 OFFCURVE",
"454 300 OFFCURVE",
"494 300 CURVE SMOOTH",
"535 300 OFFCURVE",
"574 252 OFFCURVE",
"574 180 CURVE SMOOTH",
"574 111 OFFCURVE",
"535 40 OFFCURVE",
"474 10 CURVE",
"544 0 LINE",
"628 31 OFFCURVE",
"684 111 OFFCURVE",
"684 200 CURVE SMOOTH",
"684 283 OFFCURVE",
"615 350 OFFCURVE",
"536 350 CURVE SMOOTH",
"471 350 OFFCURVE",
"410 314 OFFCURVE",
"374 255 CURVE"
);
}
);
};
layerId = "E777F328-EA17-4AE7-9EBA-8002E537BA4F";
name = Regular;
paths = (
{
closed = 1;
nodes = (
"-10 500 LINE",
"-10 470 LINE",
"704 470 LINE",
"704 500 LINE"
);
},
{
closed = 1;
nodes = (
"224 470 LINE",
"261 470 OFFCURVE",
"289 440 OFFCURVE",
"289 400 CURVE SMOOTH",
"289 335 OFFCURVE",
"243 300 OFFCURVE",
"154 300 CURVE",
"129 253 LINE",
"148 260 OFFCURVE",
"169 263 OFFCURVE",
"194 263 CURVE SMOOTH",
"266 263 OFFCURVE",
"324 209 OFFCURVE",
"324 140 CURVE SMOOTH",
"324 76 OFFCURVE",
"291 25 OFFCURVE",
"224 25 CURVE SMOOTH",
"175 25 OFFCURVE",
"139 73 OFFCURVE",
"139 130 CURVE SMOOTH",
"139 146 OFFCURVE",
"141 165 OFFCURVE",
"144 180 CURVE",
"77 180 OFFCURVE",
"39 149 OFFCURVE",
"39 110 CURVE SMOOTH",
"39 43 OFFCURVE",
"112 -10 OFFCURVE",
"224 -10 CURVE SMOOTH",
"341 -10 OFFCURVE",
"434 57 OFFCURVE",
"434 140 CURVE SMOOTH",
"434 209 OFFCURVE",
"385 278 OFFCURVE",
"274 293 CURVE",
"357 315 OFFCURVE",
"399 356 OFFCURVE",
"399 400 CURVE SMOOTH",
"399 449 OFFCURVE",
"332 490 OFFCURVE",
"224 490 CURVE"
);
},
{
closed = 1;
nodes = (
"400 160 LINE",
"402 246 OFFCURVE",
"445 315 OFFCURVE",
"499 315 CURVE SMOOTH",
"551 315 OFFCURVE",
"574 247 OFFCURVE",
"574 200 CURVE",
"574 100 OFFCURVE",
"530 39 OFFCURVE",
"445 39 CURVE",
"445 11 OFFCURVE",
"475 -10 OFFCURVE",
"516 -10 CURVE",
"609 -10 OFFCURVE",
"674 63 OFFCURVE",
"674 170 CURVE",
"674 269 OFFCURVE",
"602 345 OFFCURVE",
"509 345 CURVE SMOOTH",
"455 345 OFFCURVE",
"404 321 OFFCURVE",
"374 235 CURVE"
);
}
);
width = 694;
},
{
anchors = (
{
name = bottom;
position = "{285, 0}";
},
{
name = top;
position = "{305, 500}";
}
);
background = {
paths = (
{
closed = 1;
nodes = (
"444 220 LINE",
"464 263 OFFCURVE",
"495 290 OFFCURVE",
"524 290 CURVE SMOOTH",
"568 290 OFFCURVE",
"604 237 OFFCURVE",
"604 170 CURVE SMOOTH",
"604 99 OFFCURVE",
"566 37 OFFCURVE",
"509 10 CURVE",
"614 0 LINE",
"694 27 OFFCURVE",
"747 102 OFFCURVE",
"747 191 CURVE SMOOTH",
"747 280 OFFCURVE",
"673 350 OFFCURVE",
"581 350 CURVE SMOOTH",
"514 350 OFFCURVE",
"450 314 OFFCURVE",
"414 255 CURVE"
);
}
);
};
layerId = "39185045-6A8C-415A-8312-7B8F11386A4C";
name = Bold;
paths = (
{
closed = 1;
nodes = (
"-10 500 LINE",
"-10 470 LINE",
"760 470 LINE",
"760 500 LINE"
);
},
{
closed = 1;
nodes = (
"243 470 LINE",
"275 470 OFFCURVE",
"301 439 OFFCURVE",
"301 400 CURVE SMOOTH",
"301 340 OFFCURVE",
"252 310 OFFCURVE",
"183 310 CURVE",
"148 250 LINE",
"166 257 OFFCURVE",
"188 260 OFFCURVE",
"213 260 CURVE SMOOTH",
"281 260 OFFCURVE",
"336 207 OFFCURVE",
"336 140 CURVE SMOOTH",
"336 83 OFFCURVE",
"308 35 OFFCURVE",
"253 35 CURVE SMOOTH",
"202 35 OFFCURVE",
"174 78 OFFCURVE",
"174 130 CURVE SMOOTH",
"174 152 OFFCURVE",
"177 167 OFFCURVE",
"183 190 CURVE",
"87 190 OFFCURVE",
"44 149 OFFCURVE",
"44 110 CURVE SMOOTH",
"44 33 OFFCURVE",
"138 -10 OFFCURVE",
"253 -10 CURVE SMOOTH",
"378 -10 OFFCURVE",
"479 57 OFFCURVE",
"479 140 CURVE SMOOTH",
"479 228 OFFCURVE",
"419 275 OFFCURVE",
"323 300 CURVE",
"395 317 OFFCURVE",
"444 359 OFFCURVE",
"444 400 CURVE SMOOTH",
"444 449 OFFCURVE",
"354 490 OFFCURVE",
"243 490 CURVE"
);
},
{
closed = 1;
nodes = (
"448 170 LINE",
"448 245 OFFCURVE",
"490 305 OFFCURVE",
"539 305 CURVE SMOOTH",
"579 305 OFFCURVE",
"604 260 OFFCURVE",
"604 200 CURVE SMOOTH",
"604 123 OFFCURVE",
"570 53 OFFCURVE",
"489 53 CURVE",
"489 16 OFFCURVE",
"525 -10 OFFCURVE",
"574 -10 CURVE",
"671 -10 OFFCURVE",
"734 54 OFFCURVE",
"734 165 CURVE SMOOTH",
"734 265 OFFCURVE",
"647 345 OFFCURVE",
"549 345 CURVE SMOOTH",
"485 345 OFFCURVE",
"439 309 OFFCURVE",
"414 245 CURVE"
);
}
);
width = 750;
}
);
unicode = 090A;
},
{
color = 6;
glyphname = "rVocalic-deva";
lastChange = "2014-11-08 21:24:38 +0000";
layers = (
{
anchors = (
{
name = bottom;
position = "{432, 0}";
},
{
name = top;
position = "{432, 500}";
}
);
background = {
paths = (
{
closed = 1;
nodes = (
"-10 500 LINE",
"-10 470 LINE",
"382 470 LINE",
"382 194 LINE",
"282 137 LINE",
"328 182 OFFCURVE",
"342 222 OFFCURVE",
"342 261 CURVE SMOOTH",
"342 348 OFFCURVE",
"271 405 OFFCURVE",
"162 405 CURVE SMOOTH",
"93 405 OFFCURVE",
"12 381 OFFCURVE",
"12 315 CURVE SMOOTH",
"12 279 OFFCURVE",
"42 250 OFFCURVE",
"82 250 CURVE",
"82 320 OFFCURVE",
"110 375 OFFCURVE",
"167 375 CURVE SMOOTH",
"218 375 OFFCURVE",
"242 315 OFFCURVE",
"242 240 CURVE SMOOTH",
"242 162 OFFCURVE",
"218 103 OFFCURVE",
"152 65 CURVE SMOOTH",
"82 25 LINE",
"97 -10 LINE",
"382 150 LINE",
"382 0 LINE",
"482 0 LINE",
"482 206 LINE",
"572 251 LINE",
"649 207 OFFCURVE",
"697 156 OFFCURVE",
"697 120 CURVE SMOOTH",
"697 51 OFFCURVE",
"642 30 OFFCURVE",
"572 30 CURVE",
"572 13 OFFCURVE",
"590 0 OFFCURVE",
"622 0 CURVE",
"719 0 OFFCURVE",
"797 57 OFFCURVE",
"797 130 CURVE SMOOTH",
"797 178 OFFCURVE",
"744 238 OFFCURVE",
"662 290 CURVE",
"693 307 OFFCURVE",
"712 331 OFFCURVE",
"712 350 CURVE SMOOTH",
"712 383 OFFCURVE",
"683 410 OFFCURVE",
"647 410 CURVE SMOOTH",
"590 410 OFFCURVE",
"542 372 OFFCURVE",
"542 325 CURVE SMOOTH",
"542 310 OFFCURVE",
"545 295 OFFCURVE",
"552 284 CURVE",
"482 250 LINE",
"482 470 LINE",
"828 470 LINE",
"828 500 LINE"
);
},
{
closed = 0;
nodes = (
"482 250 LINE",
"767 410 LINE"
);
},
{
closed = 0;
nodes = (
"482 206 LINE",
"767 366 LINE"
);
}
);
};
guideLines = (
{
position = "{566, 405}";
}
);
layerId = "E777F328-EA17-4AE7-9EBA-8002E537BA4F";
name = Regular;
paths = (
{
closed = 1;
nodes = (
"-10 500 LINE",
"-10 470 LINE",
"382 470 LINE",
"382 194 LINE",
"282 137 LINE",
"328 182 OFFCURVE",
"342 222 OFFCURVE",
"342 261 CURVE SMOOTH",
"342 348 OFFCURVE",
"271 405 OFFCURVE",
"162 405 CURVE SMOOTH",
"93 405 OFFCURVE",
"12 378 OFFCURVE",
"12 305 CURVE SMOOTH",
"12 269 OFFCURVE",
"42 240 OFFCURVE",
"82 240 CURVE",
"81 249 OFFCURVE",
"80 258 OFFCURVE",
"80 266 CURVE SMOOTH",
"80 332 OFFCURVE",
"114 375 OFFCURVE",
"162 375 CURVE SMOOTH",
"220 375 OFFCURVE",
"242 315 OFFCURVE",
"242 240 CURVE SMOOTH",
"242 162 OFFCURVE",
"218 103 OFFCURVE",
"152 65 CURVE SMOOTH",
"82 25 LINE",
"97 -5 LINE",
"382 155 LINE",
"382 0 LINE",
"482 0 LINE",
"482 211 LINE",
"588 270 LINE",
"669 216 OFFCURVE",
"697 153 OFFCURVE",
"697 110 CURVE SMOOTH",
"697 57.179 OFFCURVE",
"641.92 40 OFFCURVE",
"572 40 CURVE",
"572 16.226 OFFCURVE",
"591 0 OFFCURVE",
"622 0 CURVE",
"719 0 OFFCURVE",
"797 57 OFFCURVE",
"797 130 CURVE SMOOTH",
"797 210 OFFCURVE",
"714 261 OFFCURVE",
"632 295 CURVE",
"712 340 LINE",
"712 383 OFFCURVE",
"672 405 OFFCURVE",
"632 405 CURVE SMOOTH",
"591 405 OFFCURVE",
"551 383 OFFCURVE",
"551 337 CURVE SMOOTH",
"551 323 OFFCURVE",
"555 309 OFFCURVE",
"564 296 CURVE",
"482 250 LINE",
"482 470 LINE",
"828 470 LINE",
"828 500 LINE"
);
}
);
width = 818;
},
{
anchors = (
{
name = bottom;
position = "{486, 0}";
},
{
name = top;
position = "{486, 500}";
}
);
background = {
paths = (
{
closed = 1;
nodes = (
"-10 500 LINE",
"-10 470 LINE",
"431 470 LINE",
"431 205 LINE",
"340 157 LINE",
"376 195 OFFCURVE",
"387 232 OFFCURVE",
"387 260 CURVE SMOOTH",
"387 354 OFFCURVE",
"305 415 OFFCURVE",
"181 415 CURVE SMOOTH",
"102 415 OFFCURVE",
"11 390 OFFCURVE",
"11 315 CURVE SMOOTH",
"11 280 OFFCURVE",
"40 240 OFFCURVE",
"101 240 CURVE",
"101 310 OFFCURVE",
"127 375 OFFCURVE",
"181 375 CURVE SMOOTH",
"223 375 OFFCURVE",
"257 310 OFFCURVE",
"257 230 CURVE SMOOTH",
"257 157 OFFCURVE",
"227 98 OFFCURVE",
"174 70 CURVE SMOOTH",
"99 30 LINE",
"116 -10 LINE",
"431 155 LINE",
"431 0 LINE",
"561 0 LINE",
"561 223 LINE",
"651 264 LINE",
"722 218 OFFCURVE",
"766 160 OFFCURVE",
"766 120 CURVE SMOOTH",
"766 68 OFFCURVE",
"710 52 OFFCURVE",
"641 52 CURVE",
"641 22 OFFCURVE",
"674 0 OFFCURVE",
"721 0 CURVE",
"820 0 OFFCURVE",
"896 58 OFFCURVE",
"896 130 CURVE SMOOTH",
"896 185 OFFCURVE",
"848 248 OFFCURVE",
"771 295 CURVE",
"796 310 OFFCURVE",
"811 330 OFFCURVE",
"811 350 CURVE SMOOTH",
"811 386 OFFCURVE",
"773 415 OFFCURVE",
"726 415 CURVE SMOOTH",
"664 415 OFFCURVE",
"609 382 OFFCURVE",
"609 337 CURVE SMOOTH",
"609 325 OFFCURVE",
"613 313 OFFCURVE",
"621 300 CURVE",
"561 273 LINE",
"561 470 LINE",
"924 470 LINE",
"924 500 LINE"
);
},
{
closed = 0;
nodes = (
"561 223 LINE",
"876 388 LINE"
);
},
{
closed = 0;
nodes = (
"561 273 LINE",
"876 438 LINE"
);
}
);
};
guideLines = (
{
position = "{315, 415}";
}
);
layerId = "39185045-6A8C-415A-8312-7B8F11386A4C";
name = Bold;
paths = (
{
closed = 1;
nodes = (
"-10 500 LINE",
"-10 470 LINE",
"421 470 LINE",
"421 200 LINE",
"340 157 LINE",
"376 195.351 OFFCURVE",
"387 231.602 OFFCURVE",
"387 260 CURVE SMOOTH",
"387 357 OFFCURVE",
"305 405 OFFCURVE",
"181 405 CURVE SMOOTH",
"92 405 OFFCURVE",
"11 374 OFFCURVE",
"11 300 CURVE SMOOTH",
"11 265 OFFCURVE",
"40 225 OFFCURVE",
"101 225 CURVE",
"100 234 OFFCURVE",
"99 244 OFFCURVE",
"99 252 CURVE SMOOTH",
"99 321 OFFCURVE",
"133 365 OFFCURVE",
"181 365 CURVE SMOOTH",
"233 365 OFFCURVE",
"257 304 OFFCURVE",
"257 230 CURVE SMOOTH",
"257 157 OFFCURVE",
"227.119 98.33 OFFCURVE",
"174 70 CURVE SMOOTH",
"99 30 LINE",
"116 -10 LINE",
"421 150 LINE",
"421 0 LINE",
"551 0 LINE",
"551 218 LINE",
"651 270 LINE",
"722 222 OFFCURVE",
"766 162 OFFCURVE",
"766 120 CURVE SMOOTH",
"766 68 OFFCURVE",
"710 52 OFFCURVE",
"641 52 CURVE",
"641 22 OFFCURVE",
"674 0 OFFCURVE",
"721 0 CURVE",
"820 0 OFFCURVE",
"896 58 OFFCURVE",
"896 130 CURVE SMOOTH",
"896 225 OFFCURVE",
"792 277 OFFCURVE",
"715 304 CURVE",
"786 340 LINE",
"786 382 OFFCURVE",
"741 405 OFFCURVE",
"697 405 CURVE SMOOTH",
"653 405 OFFCURVE",
"609 383 OFFCURVE",
"609 341 CURVE SMOOTH",
"609 329 OFFCURVE",
"613 317 OFFCURVE",
"621 304 CURVE",
"551 268 LINE",
"551 470 LINE",
"924 470 LINE",
"924 500 LINE"
);
}
);
width = 914;
}
);
unicode = 090B;
},
{
color = 6;
glyphname = "rrVocalic-deva";
lastChange = "2014-11-09 22:19:57 +0000";
layers = (
{
anchors = (
{
name = bottom;
position = "{432, 0}";
},
{
name = top;
position = "{432, 500}";
}
);
background = {
paths = (
{
closed = 0;
nodes = (
"703 205 LINE",
"632 295 LINE"
);
}
);
};
layerId = "E777F328-EA17-4AE7-9EBA-8002E537BA4F";
name = Regular;
paths = (
{
closed = 1;
nodes = (
"-10 500 LINE",
"-10 470 LINE",
"382 470 LINE",
"382 194 LINE",
"282 137 LINE",
"328 182 OFFCURVE",
"342 222 OFFCURVE",
"342 261 CURVE SMOOTH",
"342 348 OFFCURVE",
"271 405 OFFCURVE",
"162 405 CURVE SMOOTH",
"93 405 OFFCURVE",
"12 378 OFFCURVE",
"12 305 CURVE SMOOTH",
"12 269 OFFCURVE",
"42 240 OFFCURVE",
"82 240 CURVE",
"81 249 OFFCURVE",
"80 258 OFFCURVE",
"80 266 CURVE SMOOTH",
"80 332 OFFCURVE",
"114 375 OFFCURVE",
"162 375 CURVE SMOOTH",
"220 375 OFFCURVE",
"242 315 OFFCURVE",
"242 240 CURVE SMOOTH",
"242 162 OFFCURVE",
"218 103 OFFCURVE",
"152 65 CURVE SMOOTH",
"82 25 LINE",
"97 -5 LINE",
"382 155 LINE",
"382 0 LINE",
"482 0 LINE",
"482 211 LINE",
"712 340 LINE",
"712 383 OFFCURVE",
"672 405 OFFCURVE",
"632 405 CURVE SMOOTH",
"592 405 OFFCURVE",
"554 383 OFFCURVE",
"554 339 CURVE SMOOTH",
"554 325 OFFCURVE",
"558 311 OFFCURVE",
"567 298 CURVE",
"482 250 LINE",
"482 470 LINE",
"828 470 LINE",
"828 500 LINE"
);
},
{
closed = 1;
nodes = (
"691 219 LINE",
"665 196 OFFCURVE",
"646 166 OFFCURVE",
"646 118 CURVE SMOOTH",
"646 77 OFFCURVE",
"671 55 OFFCURVE",
"703 55 CURVE SMOOTH",
"737 55 OFFCURVE",
"767 73 OFFCURVE",
"784 100 CURVE",
"804 65 LINE",
"771 17 OFFCURVE",
"725 0 OFFCURVE",
"677 0 CURVE SMOOTH",
"611 0 OFFCURVE",
"559 41 OFFCURVE",
"559 105 CURVE SMOOTH",
"559 145 OFFCURVE",
"587 189 OFFCURVE",
"629 218 CURVE",
"588 270 LINE",
"632 295 LINE"
);
}
);
width = 818;
},
{
anchors = (
{
name = bottom;
position = "{486, 0}";
},
{
name = top;
position = "{486, 500}";
}
);
background = {
paths = (
{
closed = 0;
nodes = (
"770 225 LINE",
"715 304 LINE"
);
}
);
};
layerId = "39185045-6A8C-415A-8312-7B8F11386A4C";
name = Bold;
paths = (
{
closed = 1;
nodes = (
"-10 500 LINE",
"-10 470 LINE",
"421 470 LINE",
"421 200 LINE",
"340 157 LINE",
"376 195.351 OFFCURVE",
"387 231.602 OFFCURVE",
"387 260 CURVE SMOOTH",
"387 357 OFFCURVE",
"305 405 OFFCURVE",
"181 405 CURVE SMOOTH",
"92 405 OFFCURVE",
"11 374 OFFCURVE",
"11 300 CURVE SMOOTH",
"11 265 OFFCURVE",
"40 225 OFFCURVE",
"101 225 CURVE",
"100 234 OFFCURVE",
"99 244 OFFCURVE",
"99 252 CURVE SMOOTH",
"99 321 OFFCURVE",
"133 365 OFFCURVE",
"181 365 CURVE SMOOTH",
"233 365 OFFCURVE",
"257 304 OFFCURVE",
"257 230 CURVE SMOOTH",
"257 157 OFFCURVE",
"227.119 98.33 OFFCURVE",
"174 70 CURVE SMOOTH",
"99 30 LINE",
"116 -10 LINE",
"421 150 LINE",
"421 0 LINE",
"551 0 LINE",
"551 218 LINE",
"786 340 LINE",
"786 382 OFFCURVE",
"741 405 OFFCURVE",
"697 405 CURVE SMOOTH",
"654 405 OFFCURVE",
"612 385 OFFCURVE",
"612 343 CURVE SMOOTH",
"612 331 OFFCURVE",
"616 319 OFFCURVE",
"624 306 CURVE",
"551 268 LINE",
"551 470 LINE",
"924 470 LINE",
"924 500 LINE"
);
},
{
closed = 1;
nodes = (
"765 232 LINE",
"746 211 OFFCURVE",
"725 179 OFFCURVE",
"725 132 CURVE SMOOTH",
"725 91 OFFCURVE",
"750 71 OFFCURVE",
"782 71 CURVE SMOOTH",
"811 71 OFFCURVE",
"842 84 OFFCURVE",
"861 107 CURVE",
"886 60 LINE",
"854 21 OFFCURVE",
"804 0 OFFCURVE",
"751 0 CURVE SMOOTH",
"679 0 OFFCURVE",
"621 49 OFFCURVE",
"621 110 CURVE SMOOTH",
"621 150 OFFCURVE",
"645 192 OFFCURVE",
"686 220 CURVE",
"651 270 LINE",
"715 304 LINE"
);
}
);
width = 914;
}
);
unicode = 0960;
},
{
color = 6;
glyphname = "lVocalic-deva";
lastChange = "2014-11-11 15:50:15 +0000";
layers = (
{
anchors = (
{
name = bottom;
position = "{463, 0}";
},
{
name = nukta;
position = "{90, -100}";
},
{
name = top;
position = "{463, 500}";
}
);
background = {
paths = (
{
closed = 1;
nodes = (
"513 375 LINE",
"513 470 LINE",
"656 470 LINE",
"656 500 LINE",
"-10 500 LINE",
"-10 470 LINE",
"413 470 LINE",
"413 375 LINE"
);
},
{
closed = 0;
nodes = (
"445 -5 LINE",
"538 -5 OFFCURVE",
"613 77 OFFCURVE",
"613 200 CURVE",
"613 308 OFFCURVE",
"541 395 OFFCURVE",
"448 395 CURVE SMOOTH",
"398 395 OFFCURVE",
"350 375 OFFCURVE",
"323 305 CURVE",
"296 375 OFFCURVE",
"248 395 OFFCURVE",
"198 395 CURVE SMOOTH",
"105 395 OFFCURVE",
"33 308 OFFCURVE",
"33 200 CURVE",
"33 77 OFFCURVE",
"108 -5 OFFCURVE",
"201 -5 CURVE",
"252 -5 OFFCURVE",
"280 26 OFFCURVE",
"282 54 CURVE",
"187 54 OFFCURVE",
"133 118 OFFCURVE",
"133 230 CURVE",
"133 281 OFFCURVE",
"156 365 OFFCURVE",
"208 365 CURVE SMOOTH",
"257 365 OFFCURVE",
"296 305 OFFCURVE",
"297 230 CURVE",
"349 230 LINE",
"350 305 OFFCURVE",
"389 365 OFFCURVE",
"438 365 CURVE SMOOTH",
"490 365 OFFCURVE",
"513 281 OFFCURVE",
"513 230 CURVE",
"513 118 OFFCURVE",
"459 54 OFFCURVE",
"364 54 CURVE"
);
},
{
closed = 0;
nodes = (
"310 -61 LINE",
"310 -131 OFFCURVE",
"390 -186 OFFCURVE",
"493 -186 CURVE SMOOTH",
"563 -186 OFFCURVE",
"646 -155 OFFCURVE",
"646 -96 CURVE",
"646 -75 OFFCURVE",
"620 -56 OFFCURVE",
"586 -56 CURVE",
"586 -117 OFFCURVE",
"550 -156 OFFCURVE",
"500 -156 CURVE SMOOTH",
"449 -156 OFFCURVE",
"410 -123 OFFCURVE",
"410 -61 CURVE"
);
}
);
};
layerId = "E777F328-EA17-4AE7-9EBA-8002E537BA4F";
name = Regular;
paths = (
{
closed = 1;
nodes = (
"581 -186 OFFCURVE",
"646 -149 OFFCURVE",
"646 -96 CURVE SMOOTH",
"646 -60 OFFCURVE",
"616 -36 OFFCURVE",
"576 -36 CURVE",
"576 -97 OFFCURVE",
"550 -156 OFFCURVE",
"490 -156 CURVE SMOOTH",
"448 -156 OFFCURVE",
"420 -129 OFFCURVE",
"420 -71 CURVE SMOOTH",
"420 58 OFFCURVE",
"613 64 OFFCURVE",
"613 230 CURVE SMOOTH",
"613 322 OFFCURVE",
"541 395 OFFCURVE",
"448 395 CURVE SMOOTH",
"398 395 OFFCURVE",
"350 375 OFFCURVE",
"323 305 CURVE",
"296 375 OFFCURVE",
"248 395 OFFCURVE",
"198 395 CURVE SMOOTH",
"105 395 OFFCURVE",
"33 308 OFFCURVE",
"33 200 CURVE SMOOTH",
"33 77 OFFCURVE",
"108 -5 OFFCURVE",
"201 -5 CURVE",
"252 -5 OFFCURVE",
"280 26 OFFCURVE",
"282 54 CURVE",
"187 54 OFFCURVE",
"133 118 OFFCURVE",
"133 230 CURVE SMOOTH",
"133 281 OFFCURVE",
"156 365 OFFCURVE",
"208 365 CURVE SMOOTH",
"257 365 OFFCURVE",
"296 305 OFFCURVE",
"297 230 CURVE",
"349 230 LINE",
"350 305 OFFCURVE",
"389 365 OFFCURVE",
"438 365 CURVE SMOOTH",
"490 365 OFFCURVE",
"513 281 OFFCURVE",
"513 230 CURVE SMOOTH",
"513 33 OFFCURVE",
"320 51 OFFCURVE",
"320 -71 CURVE SMOOTH",
"320 -140 OFFCURVE",
"393 -186 OFFCURVE",
"488 -186 CURVE SMOOTH"
);
},
{
closed = 1;
nodes = (
"513 375 LINE",
"513 470 LINE",
"656 470 LINE",
"656 500 LINE",
"-10 500 LINE",
"-10 470 LINE",
"413 470 LINE",
"413 375 LINE"
);
}
);
width = 646;
},
{
anchors = (
{
name = bottom;
position = "{508, 0}";
},
{
name = nukta;
position = "{95, -100}";
},
{
name = top;
position = "{508, 500}";
}
);
background = {
paths = (
{
closed = 1;
nodes = (
"573 368 LINE",
"573 470 LINE",
"716 470 LINE",
"716 500 LINE",
"-10 500 LINE",
"-10 470 LINE",
"443 470 LINE",
"443 368 LINE"
);
},
{
closed = 0;
nodes = (
"493 -5 LINE",
"583 -5 OFFCURVE",
"673 69 OFFCURVE",
"673 205 CURVE SMOOTH",
"673 310 OFFCURVE",
"586 395 OFFCURVE",
"488 395 CURVE SMOOTH",
"423 395 OFFCURVE",
"376 358 OFFCURVE",
"353 295 CURVE",
"330 358 OFFCURVE",
"283 395 OFFCURVE",
"218 395 CURVE SMOOTH",
"120 395 OFFCURVE",
"33 310 OFFCURVE",
"33 205 CURVE SMOOTH",
"33 69 OFFCURVE",
"123 -5 OFFCURVE",
"213 -5 CURVE",
"261 -5 OFFCURVE",
"298 36 OFFCURVE",
"298 73 CURVE",
"224 73 OFFCURVE",
"163 149 OFFCURVE",
"163 240 CURVE SMOOTH",
"163 304 OFFCURVE",
"188 355 OFFCURVE",
"228 355 CURVE SMOOTH",
"267 355 OFFCURVE",
"319 295 OFFCURVE",
"319 220 CURVE",
"387 220 LINE",
"387 295 OFFCURVE",
"439 355 OFFCURVE",
"478 355 CURVE SMOOTH",
"518 355 OFFCURVE",
"543 304 OFFCURVE",
"543 240 CURVE SMOOTH",
"543 149 OFFCURVE",
"482 73 OFFCURVE",
"408 73 CURVE"
);
},
{
closed = 0;
nodes = (
"344 -56 LINE",
"344 -130 OFFCURVE",
"432 -186 OFFCURVE",
"541 -186 CURVE SMOOTH",
"616 -186 OFFCURVE",
"706 -155 OFFCURVE",
"706 -96 CURVE",
"706 -59 OFFCURVE",
"670 -44 OFFCURVE",
"634 -44 CURVE",
"634 -127 OFFCURVE",
"583 -146 OFFCURVE",
"551 -146 CURVE SMOOTH",
"503 -146 OFFCURVE",
"474 -102 OFFCURVE",
"474 -56 CURVE"
);
}
);
};
layerId = "39185045-6A8C-415A-8312-7B8F11386A4C";
name = Bold;
paths = (
{
closed = 1;
nodes = (
"619 -186 OFFCURVE",
"703 -154 OFFCURVE",
"703 -86 CURVE",
"703 -53 OFFCURVE",
"664 -21 OFFCURVE",
"612 -21 CURVE",
"612 -115 OFFCURVE",
"567 -146 OFFCURVE",
"528 -146 CURVE SMOOTH",
"488 -146 OFFCURVE",
"461 -112 OFFCURVE",
"461 -56 CURVE SMOOTH",
"461 64 OFFCURVE",
"673 60 OFFCURVE",
"673 238 CURVE SMOOTH",
"673 328 OFFCURVE",
"596 395 OFFCURVE",
"488 395 CURVE SMOOTH",
"423 395 OFFCURVE",
"376 358 OFFCURVE",
"353 295 CURVE",
"330 358 OFFCURVE",
"283 395 OFFCURVE",
"218 395 CURVE SMOOTH",
"120 395 OFFCURVE",
"33 310 OFFCURVE",
"33 205 CURVE SMOOTH",
"33 69 OFFCURVE",
"123 -5 OFFCURVE",
"213 -5 CURVE",
"261 -5 OFFCURVE",
"298 36 OFFCURVE",
"298 73 CURVE",
"224 73 OFFCURVE",
"163 149 OFFCURVE",
"163 240 CURVE SMOOTH",
"163 304 OFFCURVE",
"188 355 OFFCURVE",
"228 355 CURVE SMOOTH",
"267 355 OFFCURVE",
"319 295 OFFCURVE",
"319 220 CURVE",
"387 220 LINE",
"387 295 OFFCURVE",
"439 355 OFFCURVE",
"478 355 CURVE SMOOTH",
"518 355 OFFCURVE",
"543 304 OFFCURVE",
"543 240 CURVE SMOOTH",
"543 59 OFFCURVE",
"331 71 OFFCURVE",
"331 -56 CURVE SMOOTH",
"331 -130 OFFCURVE",
"420 -186 OFFCURVE",
"528 -186 CURVE SMOOTH"
);
},
{
closed = 1;
nodes = (
"573 368 LINE",
"573 470 LINE",
"716 470 LINE",
"716 500 LINE",
"-10 500 LINE",
"-10 470 LINE",
"443 470 LINE",
"443 368 LINE"
);
}
);
width = 706;
}
);
unicode = 090C;
},
{
color = 6;
glyphname = "llVocalic-deva";
lastChange = "2014-11-11 21:20:02 +0000";
layers = (
{
anchors = (
{
name = bottom;
position = "{463, 0}";
},
{
name = nukta;
position = "{90, -100}";
},
{
name = top;
position = "{463, 500}";
}
);
background = {
paths = (
{
closed = 1;
nodes = (
"513 375 LINE",
"513 470 LINE",
"656 470 LINE",
"656 500 LINE",
"-10 500 LINE",
"-10 470 LINE",
"413 470 LINE",
"413 375 LINE"
);
},
{
closed = 0;
nodes = (
"613 230 LINE",
"613 322 OFFCURVE",
"541 395 OFFCURVE",
"448 395 CURVE SMOOTH",
"398 395 OFFCURVE",
"350 375 OFFCURVE",
"323 305 CURVE",
"296 375 OFFCURVE",
"248 395 OFFCURVE",
"198 395 CURVE SMOOTH",
"105 395 OFFCURVE",
"33 308 OFFCURVE",
"33 200 CURVE SMOOTH",
"33 77 OFFCURVE",
"110 -5 OFFCURVE",
"201 -5 CURVE",
"252 -5 OFFCURVE",
"280 26 OFFCURVE",
"282 54 CURVE",
"187 54 OFFCURVE",
"133 118 OFFCURVE",
"133 230 CURVE SMOOTH",
"133 281 OFFCURVE",
"156 365 OFFCURVE",
"208 365 CURVE SMOOTH",
"257 365 OFFCURVE",
"296 305 OFFCURVE",
"297 230 CURVE",
"349 230 LINE",
"350 305 OFFCURVE",
"389 365 OFFCURVE",
"438 365 CURVE SMOOTH",
"490 365 OFFCURVE",
"513 281 OFFCURVE",
"513 230 CURVE"
);
},
{
closed = 1;
nodes = (
"408 -1 OFFCURVE",
"321 -37 OFFCURVE",
"321 -105 CURVE SMOOTH",
"321 -158 OFFCURVE",
"396 -201 OFFCURVE",
"494 -201 CURVE SMOOTH",
"569 -201 OFFCURVE",
"657 -170 OFFCURVE",
"657 -111 CURVE",
"657 -90 OFFCURVE",
"631 -71 OFFCURVE",
"597 -71 CURVE",
"597 -132 OFFCURVE",
"557 -171 OFFCURVE",
"501 -171 CURVE SMOOTH",
"455 -171 OFFCURVE",
"421 -146 OFFCURVE",
"421 -105 CURVE SMOOTH",
"421 -67 OFFCURVE",
"451 -31 OFFCURVE",
"537 -31 CURVE",
"537 -1 LINE"
);
},
{
closed = 0;
nodes = (
"512 130 LINE",
"419 130 OFFCURVE",
"351 93 OFFCURVE",
"351 45 CURVE SMOOTH",
"351 5 OFFCURVE",
"419 -32 OFFCURVE",
"504 -32 CURVE",
"511 -2 LINE",
"479 -2 OFFCURVE",
"451 20 OFFCURVE",
"451 45 CURVE SMOOTH",
"451 76 OFFCURVE",
"481 100 OFFCURVE",
"557 100 CURVE"
);
}
);
};
layerId = "E777F328-EA17-4AE7-9EBA-8002E537BA4F";
name = Regular;
paths = (
{
closed = 1;
nodes = (
"513 375 LINE",
"513 470 LINE",
"656 470 LINE",
"656 500 LINE",
"-10 500 LINE",
"-10 470 LINE",
"413 470 LINE",
"413 375 LINE"
);
},
{
closed = 1;
nodes = (
"613 322 OFFCURVE",
"541 395 OFFCURVE",
"448 395 CURVE SMOOTH",
"398 395 OFFCURVE",
"350 375 OFFCURVE",
"323 305 CURVE",
"296 375 OFFCURVE",
"248 395 OFFCURVE",
"198 395 CURVE SMOOTH",
"105 395 OFFCURVE",
"33 308 OFFCURVE",
"33 200 CURVE SMOOTH",
"33 77 OFFCURVE",
"110 -5 OFFCURVE",
"201 -5 CURVE",
"252 -5 OFFCURVE",
"280 26 OFFCURVE",
"282 54 CURVE",
"187 54 OFFCURVE",
"133 118 OFFCURVE",
"133 230 CURVE SMOOTH",
"133 281 OFFCURVE",
"156 365 OFFCURVE",
"208 365 CURVE SMOOTH",
"257 365 OFFCURVE",
"296 305 OFFCURVE",
"297 230 CURVE",
"349 230 LINE",
"350 305 OFFCURVE",
"389 365 OFFCURVE",
"438 365 CURVE SMOOTH",
"490 365 OFFCURVE",
"513 281 OFFCURVE",
"513 230 CURVE",
"513 100 OFFCURVE",
"351 93 OFFCURVE",
"351 45 CURVE SMOOTH",
"351 5 OFFCURVE",
"419 -29 OFFCURVE",
"504 -29 CURVE",
"511 -2 LINE",
"479 -2 OFFCURVE",
"451 20 OFFCURVE",
"451 45 CURVE SMOOTH",
"451 90 OFFCURVE",
"613 104 OFFCURVE",
"613 230 CURVE"
);
},
{
closed = 1;
nodes = (
"408 -1 OFFCURVE",
"321 -37 OFFCURVE",
"321 -105 CURVE SMOOTH",
"321 -158 OFFCURVE",
"396 -201 OFFCURVE",
"484 -201 CURVE SMOOTH",
"559 -201 OFFCURVE",
"637 -170 OFFCURVE",
"637 -111 CURVE",
"637 -90 OFFCURVE",
"611 -71 OFFCURVE",
"577 -71 CURVE",
"577 -132 OFFCURVE",
"544 -171 OFFCURVE",
"491 -171 CURVE SMOOTH",
"455 -171 OFFCURVE",
"421 -146 OFFCURVE",
"421 -105 CURVE SMOOTH",
"421 -67 OFFCURVE",
"451 -31 OFFCURVE",
"537 -31 CURVE",
"537 -1 LINE"
);
}
);
width = 646;
},
{
anchors = (
{
name = bottom;
position = "{508, 0}";
},
{
name = nukta;
position = "{95, -100}";
},
{
name = top;
position = "{508, 500}";
}
);
background = {
paths = (
{
closed = 1;
nodes = (
"619 -186 OFFCURVE",
"703 -154 OFFCURVE",
"703 -86 CURVE",
"703 -53 OFFCURVE",
"664 -21 OFFCURVE",
"612 -21 CURVE",
"612 -115 OFFCURVE",
"567 -146 OFFCURVE",
"528 -146 CURVE SMOOTH",
"488 -146 OFFCURVE",
"461 -112 OFFCURVE",
"461 -56 CURVE SMOOTH",
"461 64 OFFCURVE",
"673 60 OFFCURVE",
"673 238 CURVE SMOOTH",
"673 328 OFFCURVE",
"596 395 OFFCURVE",
"488 395 CURVE SMOOTH",
"423 395 OFFCURVE",
"376 358 OFFCURVE",
"353 295 CURVE",
"330 358 OFFCURVE",
"283 395 OFFCURVE",
"218 395 CURVE SMOOTH",
"120 395 OFFCURVE",
"33 310 OFFCURVE",
"33 205 CURVE SMOOTH",
"33 69 OFFCURVE",
"123 -5 OFFCURVE",
"213 -5 CURVE",
"261 -5 OFFCURVE",
"298 36 OFFCURVE",
"298 73 CURVE",
"224 73 OFFCURVE",
"163 149 OFFCURVE",
"163 240 CURVE SMOOTH",
"163 304 OFFCURVE",
"188 355 OFFCURVE",
"228 355 CURVE SMOOTH",
"267 355 OFFCURVE",
"319 295 OFFCURVE",
"319 220 CURVE",
"387 220 LINE",
"387 295 OFFCURVE",
"439 355 OFFCURVE",
"478 355 CURVE SMOOTH",
"518 355 OFFCURVE",
"543 304 OFFCURVE",
"543 240 CURVE SMOOTH",
"543 59 OFFCURVE",
"331 71 OFFCURVE",
"331 -56 CURVE SMOOTH",
"331 -130 OFFCURVE",
"420 -186 OFFCURVE",
"528 -186 CURVE SMOOTH"
);
}
);
};
layerId = "39185045-6A8C-415A-8312-7B8F11386A4C";
name = Bold;
paths = (
{
closed = 1;
nodes = (
"573 368 LINE",
"573 470 LINE",
"716 470 LINE",
"716 500 LINE",
"-10 500 LINE",
"-10 470 LINE",
"443 470 LINE",
"443 368 LINE"
);
},
{
closed = 1;
nodes = (
"673 328 OFFCURVE",
"596 395 OFFCURVE",
"488 395 CURVE SMOOTH",
"423 395 OFFCURVE",
"376 358 OFFCURVE",
"353 295 CURVE",
"330 358 OFFCURVE",
"283 395 OFFCURVE",
"218 395 CURVE SMOOTH",
"120 395 OFFCURVE",
"33 310 OFFCURVE",
"33 205 CURVE SMOOTH",
"33 69 OFFCURVE",
"123 -5 OFFCURVE",
"213 -5 CURVE",
"261 -5 OFFCURVE",
"298 36 OFFCURVE",
"298 73 CURVE",
"224 73 OFFCURVE",
"163 149 OFFCURVE",
"163 240 CURVE SMOOTH",
"163 304 OFFCURVE",
"188 355 OFFCURVE",
"228 355 CURVE SMOOTH",
"267 355 OFFCURVE",
"319 295 OFFCURVE",
"319 220 CURVE",
"387 220 LINE",
"387 295 OFFCURVE",
"439 355 OFFCURVE",
"478 355 CURVE SMOOTH",
"518 355 OFFCURVE",
"543 304 OFFCURVE",
"543 240 CURVE",
"543 117 OFFCURVE",
"360 103 OFFCURVE",
"360 53 CURVE SMOOTH",
"360 12 OFFCURVE",
"425 -20 OFFCURVE",
"527 -20 CURVE",
"537 16 LINE",
"499 16 OFFCURVE",
"490 37 OFFCURVE",
"490 53 CURVE SMOOTH",
"490 88 OFFCURVE",
"673 105 OFFCURVE",
"673 238 CURVE"
);
},
{
closed = 1;
nodes = (
"432 20 OFFCURVE",
"330 -8 OFFCURVE",
"330 -95 CURVE SMOOTH",
"330 -154 OFFCURVE",
"412 -200 OFFCURVE",
"514 -200 CURVE SMOOTH",
"583 -200 OFFCURVE",
"666 -169 OFFCURVE",
"666 -110 CURVE",
"666 -73 OFFCURVE",
"630 -58 OFFCURVE",
"594 -58 CURVE",
"594 -141 OFFCURVE",
"551 -160 OFFCURVE",
"524 -160 CURVE SMOOTH",
"484 -160 OFFCURVE",
"460 -128 OFFCURVE",
"460 -95 CURVE SMOOTH",
"460 -41 OFFCURVE",
"507 -20 OFFCURVE",
"567 -20 CURVE",
"567 20 LINE"
);
}
);
width = 706;
}
);
unicode = 0961;
},
{
color = 3;
glyphname = "eCandra-deva";
lastChange = "2014-11-14 11:48:44 +0000";
layers = (
{
anchors = (
{
name = top;
position = "{256, 500}";
}
);
background = {
paths = (
{
closed = 1;
nodes = (
"399 325 LINE SMOOTH",
"399 281 OFFCURVE",
"362 263 OFFCURVE",
"319 244 CURVE",
"319 233 LINE",
"384 189 LINE",
"427 204 OFFCURVE",
"487 242 OFFCURVE",
"487 342 CURVE SMOOTH",
"487 575 LINE",
"588 575 LINE",
"588 590 LINE",
"556 650 LINE",
"-31 650 LINE",
"-31 634 LINE",
"0 575 LINE",
"91 575 LINE",
"91 279 LINE SMOOTH",
"91 232 OFFCURVE",
"103 211 OFFCURVE",
"199 147 CURVE SMOOTH",
"559 -95 LINE",
"505 -154 LINE",
"505 -156 LINE",
"514 -176 OFFCURVE",
"536 -202 OFFCURVE",
"573 -202 CURVE SMOOTH",
"613 -202 OFFCURVE",
"647 -180 OFFCURVE",
"647 -136 CURVE SMOOTH",
"647 -101 OFFCURVE",
"625 -73 OFFCURVE",
"529 -10 CURVE SMOOTH",
"224 197 LINE SMOOTH",
"186 223 OFFCURVE",
"180 240 OFFCURVE",
"180 268 CURVE SMOOTH",
"180 575 LINE",
"399 575 LINE"
);
},
{
closed = 1;
nodes = (
"433 918 LINE",
"406 874 OFFCURVE",
"345 818 OFFCURVE",
"257 818 CURVE SMOOTH",
"191 818 OFFCURVE",
"139 867 OFFCURVE",
"98 925 CURVE",
"65 911 LINE",
"104 843 OFFCURVE",
"183 752 OFFCURVE",
"295 752 CURVE SMOOTH",
"392 752 OFFCURVE",
"451 798 OFFCURVE",
"498 857 CURVE"
);
}
);
};
components = (
{
name = "e-deva";
},
{
disableAlignment = 1;
name = "eCandraMatra-deva";
transform = "{1, 0, 0, 1, 402, 0}";
}
);
layerId = "E777F328-EA17-4AE7-9EBA-8002E537BA4F";
name = Regular;
width = 512;
},
{
anchors = (
{
name = top;
position = "{279, 500}";
}
);
background = {
paths = (
{
closed = 1;
nodes = (
"399 325 LINE SMOOTH",
"399 281 OFFCURVE",
"362 263 OFFCURVE",
"319 244 CURVE",
"319 233 LINE",
"384 189 LINE",
"427 204 OFFCURVE",
"487 242 OFFCURVE",
"487 342 CURVE SMOOTH",
"487 575 LINE",
"588 575 LINE",
"588 590 LINE",
"556 650 LINE",
"-31 650 LINE",
"-31 634 LINE",
"0 575 LINE",
"91 575 LINE",
"91 279 LINE SMOOTH",
"91 232 OFFCURVE",
"103 211 OFFCURVE",
"199 147 CURVE SMOOTH",
"559 -95 LINE",
"505 -154 LINE",
"505 -156 LINE",
"514 -176 OFFCURVE",
"536 -202 OFFCURVE",
"573 -202 CURVE SMOOTH",
"613 -202 OFFCURVE",
"647 -180 OFFCURVE",
"647 -136 CURVE SMOOTH",
"647 -101 OFFCURVE",
"625 -73 OFFCURVE",
"529 -10 CURVE SMOOTH",
"224 197 LINE SMOOTH",
"186 223 OFFCURVE",
"180 240 OFFCURVE",
"180 268 CURVE SMOOTH",
"180 575 LINE",
"399 575 LINE"
);
},
{
closed = 1;
nodes = (
"433 918 LINE",
"406 874 OFFCURVE",
"345 818 OFFCURVE",
"257 818 CURVE SMOOTH",
"191 818 OFFCURVE",
"139 867 OFFCURVE",
"98 925 CURVE",
"65 911 LINE",
"104 843 OFFCURVE",
"183 752 OFFCURVE",
"295 752 CURVE SMOOTH",
"392 752 OFFCURVE",
"451 798 OFFCURVE",
"498 857 CURVE"
);
}
);
};
components = (
{
name = "e-deva";
},
{
disableAlignment = 1;
name = "eCandraMatra-deva";
transform = "{1, 0, 0, 1, 439, 0}";
}
);
layerId = "39185045-6A8C-415A-8312-7B8F11386A4C";
name = Bold;
width = 558;
}
);
rightMetricsKey = "=e-deva";
unicode = 090D;
},
{
color = 3;
glyphname = "eShort-deva";
lastChange = "2014-11-13 16:48:43 +0000";
layers = (
{
anchors = (
{
name = top;
position = "{256, 500}";
}
);
background = {
paths = (
{
closed = 1;
nodes = (
"-16 937 OFFCURVE",
"-26 907 OFFCURVE",
"-26 878 CURVE SMOOTH",
"-26 835 OFFCURVE",
"36 775 OFFCURVE",
"161 775 CURVE SMOOTH",
"220 775 OFFCURVE",
"279 786 OFFCURVE",
"317 786 CURVE SMOOTH",
"405 786 OFFCURVE",
"430 721 OFFCURVE",
"430 664 CURVE SMOOTH",
"430 649 OFFCURVE",
"426 636 OFFCURVE",
"419 625 CURVE",
"465 622 LINE",
"469 637 OFFCURVE",
"474 661 OFFCURVE",
"474 679 CURVE SMOOTH",
"474 715 OFFCURVE",
"457 754 OFFCURVE",
"431 786 CURVE SMOOTH",
"407 816 OFFCURVE",
"359 836 OFFCURVE",
"307 836 CURVE SMOOTH",
"273 836 OFFCURVE",
"150 824 OFFCURVE",
"113 824 CURVE SMOOTH",
"59 824 OFFCURVE",
"18 850 OFFCURVE",
"18 893 CURVE SMOOTH",
"18 908 OFFCURVE",
"23 927 OFFCURVE",
"29 948 CURVE",
"-10 955 LINE"
);
},
{
closed = 1;
nodes = (
"109 605 LINE",
"109 279 LINE SMOOTH",
"109 235 OFFCURVE",
"127 203 OFFCURVE",
"199 154 CURVE SMOOTH",
"562 -91 LINE",
"511 -147 LINE",
"511 -149 LINE",
"521 -168 OFFCURVE",
"544 -192 OFFCURVE",
"573 -192 CURVE SMOOTH",
"607 -192 OFFCURVE",
"635 -171 OFFCURVE",
"637 -138 CURVE SMOOTH",
"639 -103 OFFCURVE",
"615 -79 OFFCURVE",
"529 -21 CURVE SMOOTH",
"224 186 LINE SMOOTH",
"183 214 OFFCURVE",
"163 235 OFFCURVE",
"163 268 CURVE SMOOTH",
"163 605 LINE"
);
},
{
closed = 1;
nodes = (
"415 605 LINE",
"415 328 LINE SMOOTH",
"415 283 OFFCURVE",
"378 259 OFFCURVE",
"336 240 CURVE",
"336 231 LINE",
"378 202 LINE",
"416 215 OFFCURVE",
"469 250 OFFCURVE",
"469 339 CURVE SMOOTH",
"469 605 LINE"
);
},
{
closed = 1;
nodes = (
"-29 634 LINE",
"-29 624 LINE",
"-12 590 LINE",
"569 590 LINE",
"569 601 LINE",
"550 634 LINE"
);
}
);
};
components = (
{
name = "e-deva";
},
{
name = "eShortMatra-deva";
transform = "{1, 0, 0, 1, 522, 0}";
}
);
layerId = "E777F328-EA17-4AE7-9EBA-8002E537BA4F";
name = Regular;
width = 512;
},
{
anchors = (
{
name = top;
position = "{279, 500}";
}
);
components = (
{
name = "e-deva";
},
{
name = "eShortMatra-deva";
transform = "{1, 0, 0, 1, 414, 0}";
}
);
layerId = "39185045-6A8C-415A-8312-7B8F11386A4C";
name = Bold;
width = 558;
}
);
unicode = 090E;
},
{
color = 3;
glyphname = "e-deva";
lastChange = "2014-11-14 11:49:18 +0000";
layers = (
{
anchors = (
{
name = top;
position = "{402, 500}";
}
);
layerId = "E777F328-EA17-4AE7-9EBA-8002E537BA4F";
name = Regular;
paths = (
{
closed = 1;
nodes = (
"356 -230 OFFCURVE",
"435 -163 OFFCURVE",
"435 -80 CURVE SMOOTH",
"435 114 OFFCURVE",
"160 129 OFFCURVE",
"160 270 CURVE SMOOTH",
"160 470 LINE",
"352 470 LINE",
"352 347 LINE",
"352 280 OFFCURVE",
"325 211 OFFCURVE",
"269 170 CURVE",
"386 181 OFFCURVE",
"452 258 OFFCURVE",
"452 343 CURVE",
"452 470 LINE",
"522 470 LINE",
"522 500 LINE",
"-10 500 LINE",
"-10 470 LINE",
"60 470 LINE",
"60 250 LINE SMOOTH",
"60 101 OFFCURVE",
"365 26 OFFCURVE",
"365 -100 CURVE SMOOTH",
"365 -162 OFFCURVE",
"317 -195 OFFCURVE",
"260 -195 CURVE",
"211 -195 OFFCURVE",
"175 -147 OFFCURVE",
"175 -90 CURVE SMOOTH",
"175 -74 OFFCURVE",
"177 -55 OFFCURVE",
"180 -40 CURVE",
"113 -40 OFFCURVE",
"75 -71 OFFCURVE",
"75 -110 CURVE SMOOTH",
"75 -177 OFFCURVE",
"148 -230 OFFCURVE",
"260 -230 CURVE"
);
}
);
width = 512;
},
{
anchors = (
{
name = top;
position = "{433, 500}";
}
);
layerId = "39185045-6A8C-415A-8312-7B8F11386A4C";
name = Bold;
paths = (
{
closed = 1;
nodes = (
"398 -230 OFFCURVE",
"485 -157 OFFCURVE",
"485 -68 CURVE SMOOTH",
"485 118 OFFCURVE",
"190 145 OFFCURVE",
"190 280 CURVE SMOOTH",
"190 470 LINE",
"368 470 LINE",
"368 348 LINE",
"368 285 OFFCURVE",
"346 220 OFFCURVE",
"305 180 CURVE",
"430 193 OFFCURVE",
"498 270 OFFCURVE",
"498 353 CURVE",
"498 470 LINE",
"568 470 LINE",
"568 500 LINE",
"-10 500 LINE",
"-10 470 LINE",
"60 470 LINE",
"60 250 LINE SMOOTH",
"60 123 OFFCURVE",
"395 19 OFFCURVE",
"395 -100 CURVE SMOOTH",
"395 -158 OFFCURVE",
"347 -185 OFFCURVE",
"290 -185 CURVE",
"239 -185 OFFCURVE",
"211 -142 OFFCURVE",
"211 -90 CURVE SMOOTH",
"211 -68 OFFCURVE",
"214 -53 OFFCURVE",
"220 -30 CURVE",
"124 -30 OFFCURVE",
"81 -71 OFFCURVE",
"81 -110 CURVE SMOOTH",
"81 -187 OFFCURVE",
"175 -230 OFFCURVE",
"290 -230 CURVE"
);
}
);
width = 558;
},
{
anchors = (
{
name = top;
position = "{272, 500}";
}
);
associatedMasterId = "E777F328-EA17-4AE7-9EBA-8002E537BA4F";
layerId = "E1214054-17B3-454D-9261-2E9DF83F1A86";
name = "Regular Nov 5 14, 18:54";
paths = (
{
closed = 1;
nodes = (
"-10 500 LINE",
"-10 470 LINE",
"42 470 LINE",
"42 250 LINE SMOOTH",
"42 121 OFFCURVE",
"377 36 OFFCURVE",
"377 -100 CURVE SMOOTH",
"377 -149 OFFCURVE",
"336 -190 OFFCURVE",
"287 -190 CURVE SMOOTH",
"240 -190 OFFCURVE",
"192 -137 OFFCURVE",
"172 -60 CURVE",
"82 -120 LINE",
"106 -187 OFFCURVE",
"181 -230 OFFCURVE",
"272 -230 CURVE SMOOTH",
"368 -230 OFFCURVE",
"447 -167 OFFCURVE",
"447 -90 CURVE SMOOTH",
"447 120 OFFCURVE",
"142 125 OFFCURVE",
"142 270 CURVE SMOOTH",
"142 470 LINE",
"222 470 LINE",
"283 434 OFFCURVE",
"322 364 OFFCURVE",
"322 285 CURVE SMOOTH",
"322 237 OFFCURVE",
"296 187 OFFCURVE",
"252 150 CURVE",
"352 150 OFFCURVE",
"432 213 OFFCURVE",
"432 290 CURVE SMOOTH",
"432 357 OFFCURVE",
"399 422 OFFCURVE",
"342 470 CURVE",
"475 470 LINE",
"475 500 LINE"
);
}
);
width = 465;
},
{
anchors = (
{
name = top;
position = "{310, 500}";
}
);
associatedMasterId = "39185045-6A8C-415A-8312-7B8F11386A4C";
layerId = "DD610930-2F62-4D69-BD65-5BFAC6397595";
name = "Bold Nov 5 14, 18:55";
paths = (
{
closed = 1;
nodes = (
"-10 500 LINE",
"-10 470 LINE",
"42 470 LINE",
"42 250 LINE SMOOTH",
"42 123 OFFCURVE",
"407 19 OFFCURVE",
"407 -100 CURVE SMOOTH",
"407 -161 OFFCURVE",
"366 -190 OFFCURVE",
"317 -190 CURVE SMOOTH",
"270 -190 OFFCURVE",
"222 -137 OFFCURVE",
"202 -60 CURVE",
"82 -120 LINE",
"106 -187 OFFCURVE",
"194 -230 OFFCURVE",
"302 -230 CURVE SMOOTH",
"410 -230 OFFCURVE",
"497 -157 OFFCURVE",
"497 -68 CURVE SMOOTH",
"497 118 OFFCURVE",
"172 175 OFFCURVE",
"172 280 CURVE SMOOTH",
"172 470 LINE",
"242 470 LINE",
"303 434 OFFCURVE",
"342 364 OFFCURVE",
"342 285 CURVE SMOOTH",
"342 241 OFFCURVE",
"322 199 OFFCURVE",
"287 170 CURVE",
"392 170 OFFCURVE",
"478 226 OFFCURVE",
"478 295 CURVE SMOOTH",
"478 360 OFFCURVE",
"447 425 OFFCURVE",
"392 470 CURVE",
"520 470 LINE",
"520 500 LINE"
);
}
);
width = 510;
}
);
unicode = 090F;
},
{
color = 3;
glyphname = "ai-deva";
lastChange = "2014-11-13 16:48:13 +0000";
layers = (
{
background = {
paths = (
{
closed = 1;
nodes = (
"269 634 LINE",
"269 624 LINE",
"286 590 LINE",
"415 590 LINE",
"414 13 LINE",
"457 -11 LINE",
"469 -11 LINE",
"469 590 LINE",
"585 590 LINE",
"585 601 LINE",
"566 634 LINE"
);
},
{
closed = 1;
nodes = (
"127 1010 OFFCURVE",
"103 990 OFFCURVE",
"103 956 CURVE SMOOTH",
"103 929 OFFCURVE",
"119 905 OFFCURVE",
"133 894 CURVE",
"247 928 LINE",
"264 917 OFFCURVE",
"307 848 OFFCURVE",
"360 748 CURVE SMOOTH",
"371 727 OFFCURVE",
"400 667 OFFCURVE",
"415 633 CURVE",
"465 633 LINE",
"446 676 OFFCURVE",
"403 760 OFFCURVE",
"385 795 CURVE SMOOTH",
"323 913 OFFCURVE",
"262 1010 OFFCURVE",
"165 1010 CURVE SMOOTH"
);
}
);
};
components = (
{
name = "e-deva";
},
{
name = "eMatra-deva";
transform = "{1, 0, 0, 1, 522, 0}";
}
);
layerId = "E777F328-EA17-4AE7-9EBA-8002E537BA4F";
name = Regular;
width = 512;
},
{
background = {
paths = (
{
closed = 1;
nodes = (
"399 325 LINE SMOOTH",
"399 281 OFFCURVE",
"362 263 OFFCURVE",
"319 244 CURVE",
"319 233 LINE",
"384 189 LINE",
"427 204 OFFCURVE",
"487 242 OFFCURVE",
"487 342 CURVE SMOOTH",
"487 575 LINE",
"588 575 LINE",
"588 590 LINE",
"556 650 LINE",
"465 650 LINE",
"446 692 OFFCURVE",
"410 765 OFFCURVE",
"391 801 CURVE SMOOTH",
"327 924 OFFCURVE",
"262 1018 OFFCURVE",
"164 1018 CURVE SMOOTH",
"121 1018 OFFCURVE",
"93 996 OFFCURVE",
"93 956 CURVE SMOOTH",
"93 928 OFFCURVE",
"109 900 OFFCURVE",
"128 885 CURVE",
"247 921 LINE",
"269 910 OFFCURVE",
"309 844 OFFCURVE",
"360 753 CURVE SMOOTH",
"369 738 OFFCURVE",
"396 682 OFFCURVE",
"411 650 CURVE",
"-31 650 LINE",
"-31 634 LINE",
"0 575 LINE",
"91 575 LINE",
"91 279 LINE SMOOTH",
"91 232 OFFCURVE",
"103 211 OFFCURVE",
"199 147 CURVE SMOOTH",
"559 -95 LINE",
"505 -154 LINE",
"505 -156 LINE",
"514 -176 OFFCURVE",
"536 -202 OFFCURVE",
"573 -202 CURVE SMOOTH",
"613 -202 OFFCURVE",
"647 -180 OFFCURVE",
"647 -136 CURVE SMOOTH",
"647 -101 OFFCURVE",
"625 -73 OFFCURVE",
"529 -10 CURVE SMOOTH",
"224 197 LINE SMOOTH",
"186 223 OFFCURVE",
"180 240 OFFCURVE",
"180 268 CURVE SMOOTH",
"180 575 LINE",
"399 575 LINE"
);
}
);
};
components = (
{
name = "e-deva";
},
{
name = "eMatra-deva";
transform = "{1, 0, 0, 1, 414, 0}";
}
);
layerId = "39185045-6A8C-415A-8312-7B8F11386A4C";
name = Bold;
width = 558;
}
);
unicode = 0910;
},
{
color = 6;
glyphname = "oCandra-deva";
lastChange = "2014-11-14 11:49:55 +0000";
layers = (
{
background = {
paths = (
{
closed = 1;
nodes = (
"708 634 LINE",
"708 624 LINE",
"725 590 LINE",
"854 590 LINE",
"853 13 LINE",
"896 -11 LINE",
"908 -11 LINE",
"908 590 LINE",
"1024 590 LINE",
"1024 601 LINE",
"1005 634 LINE"
);
},
{
closed = 1;
nodes = (
"1027 874 LINE",
"997 835 OFFCURVE",
"933 784 OFFCURVE",
"843 785 CURVE SMOOTH",
"778 786 OFFCURVE",
"726 831 OFFCURVE",
"685 885 CURVE",
"662 868 LINE",
"699 812 OFFCURVE",
"770 736 OFFCURVE",
"872 735 CURVE SMOOTH",
"966 734 OFFCURVE",
"1021 780 OFFCURVE",
"1067 837 CURVE"
);
}
);
};
components = (
{
name = "aa-deva";
},
{
disableAlignment = 1;
name = "eCandraMatra-deva";
transform = "{1, 0, 0, 1, 819, 0}";
}
);
layerId = "E777F328-EA17-4AE7-9EBA-8002E537BA4F";
name = Regular;
width = 930;
},
{
background = {
paths = (
{
closed = 1;
nodes = (
"953 -1 LINE",
"1025 -42 LINE",
"1040 -42 LINE",
"1040 575 LINE",
"1150 575 LINE",
"1150 590 LINE",
"1118 650 LINE",
"467 650 LINE",
"467 634 LINE",
"499 575 LINE",
"645 575 LINE",
"645 327 LINE",
"618 310 OFFCURVE",
"589 296 OFFCURVE",
"545 296 CURVE SMOOTH",
"492 296 OFFCURVE",
"432 320 OFFCURVE",
"397 339 CURVE",
"429 368 OFFCURVE",
"451 419 OFFCURVE",
"451 461 CURVE SMOOTH",
"451 557 OFFCURVE",
"336 665 OFFCURVE",
"256 667 CURVE SMOOTH",
"219 667 OFFCURVE",
"133 630 OFFCURVE",
"96 603 CURVE",
"142 516 LINE",
"183 553 OFFCURVE",
"234 586 OFFCURVE",
"290 586 CURVE SMOOTH",
"342 586 OFFCURVE",
"388 544 OFFCURVE",
"388 497 CURVE SMOOTH",
"388 450 OFFCURVE",
"360 425 OFFCURVE",
"328 407 CURVE SMOOTH",
"292 388 OFFCURVE",
"233 382 OFFCURVE",
"197 380 CURVE",
"186 353 LINE",
"221 289 LINE",
"252 293 OFFCURVE",
"315 303 OFFCURVE",
"355 316 CURVE",
"386 290 OFFCURVE",
"399 247 OFFCURVE",
"399 210 CURVE SMOOTH",
"399 150 OFFCURVE",
"350 98 OFFCURVE",
"280 98 CURVE SMOOTH",
"186 98 OFFCURVE",
"93 199 OFFCURVE",
"42 284 CURVE",
"8 262 LINE",
"57 173 OFFCURVE",
"153 18 OFFCURVE",
"317 18 CURVE SMOOTH",
"414 18 OFFCURVE",
"478 77 OFFCURVE",
"478 173 CURVE SMOOTH",
"478 209 OFFCURVE",
"469 240 OFFCURVE",
"455 267 CURVE",
"460 270 LINE",
"498 240 OFFCURVE",
"537 220 OFFCURVE",
"585 220 CURVE SMOOTH",
"609 220 OFFCURVE",
"630 225 OFFCURVE",
"643 232 CURVE",
"645 232 LINE",
"645 -1 LINE",
"717 -42 LINE",
"733 -42 LINE",
"733 575 LINE",
"953 575 LINE"
);
},
{
closed = 1;
nodes = (
"1147 918 LINE",
"1119 874 OFFCURVE",
"1058 818 OFFCURVE",
"971 818 CURVE SMOOTH",
"905 818 OFFCURVE",
"852 867 OFFCURVE",
"811 925 CURVE",
"779 911 LINE",
"819 843 OFFCURVE",
"897 752 OFFCURVE",
"1009 752 CURVE SMOOTH",
"1107 752 OFFCURVE",
"1165 798 OFFCURVE",
"1211 857 CURVE"
);
}
);
};
components = (
{
name = "aa-deva";
},
{
disableAlignment = 1;
name = "eCandraMatra-deva";
transform = "{1, 0, 0, 1, 887, 0}";
}
);
layerId = "39185045-6A8C-415A-8312-7B8F11386A4C";
name = Bold;
width = 1019;
}
);
leftMetricsKey = "=aa-deva";
rightMetricsKey = "=aa-deva";
unicode = 0911;
},
